<svg width="8" height="4" viewBox="0 0 8 4" fill="none" xmlns="http://www.w3.org/2000/svg">
<path d="M4.31216 3.89139L7.8722 0.861476C7.9546 0.791398 8 0.697849 8 0.598101C8 0.498353 7.9546 0.404805 7.8722 0.334726L7.61008 0.111594C7.43929 -0.0335999 7.1617 -0.0335999 6.99116 0.111594L4.00166 2.65589L1.00884 0.108771C0.926432 0.0386922 0.816579 -3.0128e-07 0.699441 -3.06193e-07C0.582174 -3.11111e-07 0.472322 0.0386922 0.389851 0.108771L0.127804 0.331903C0.0453982 0.402037 4.5416e-07 0.49553 4.49596e-07 0.595278C4.45031e-07 0.695026 0.0453982 0.788575 0.127804 0.858653L3.69109 3.89139C3.77376 3.96164 3.88413 4.00022 4.00146 4C4.11925 4.00022 4.22956 3.96164 4.31216 3.89139Z" fill="#F7901E"/>
</svg>
