<svg width="22" height="23" viewBox="0 0 22 23" fill="none" xmlns="http://www.w3.org/2000/svg">
<path d="M6.70003 14.9001H18.5584C19.9031 14.9001 21 13.8241 21 12.5051V7.61093C21 7.60659 21 7.59792 21 7.59358C21 7.58056 21 7.57188 21 7.55887C21 7.55019 21 7.54151 20.9956 7.53284C20.9956 7.52416 20.9912 7.51114 20.9912 7.50246C20.9912 7.49379 20.9867 7.48511 20.9867 7.47643C20.9823 7.46775 20.9823 7.45908 20.9779 7.44606C20.9735 7.43738 20.9735 7.4287 20.969 7.42003C20.9646 7.41135 20.9646 7.40267 20.9602 7.39399C20.9558 7.38532 20.9513 7.37664 20.9469 7.36362C20.9425 7.35495 20.9381 7.34627 20.9337 7.34193C20.9292 7.33325 20.9248 7.32457 20.9204 7.3159C20.916 7.30722 20.9115 7.30288 20.9071 7.2942C20.9027 7.28553 20.8938 7.27685 20.8894 7.26817C20.885 7.25949 20.8806 7.25515 20.8717 7.24648C20.8673 7.2378 20.8585 7.23346 20.854 7.22478C20.8496 7.2161 20.8408 7.21177 20.8363 7.20309C20.8319 7.19441 20.8231 7.19007 20.8187 7.18573C20.8098 7.17706 20.8054 7.17272 20.7965 7.16404C20.7877 7.1597 20.7833 7.15102 20.7744 7.14669C20.7656 7.14235 20.7567 7.13367 20.7479 7.12933C20.739 7.12499 20.7346 7.12065 20.7258 7.11631C20.7169 7.11197 20.7081 7.10764 20.6992 7.09896C20.6904 7.09462 20.6815 7.09028 20.6727 7.08594C20.6638 7.0816 20.655 7.07726 20.6462 7.07293C20.6373 7.06859 20.6285 7.06425 20.6196 7.05991C20.6108 7.05557 20.6019 7.05557 20.5931 7.05123C20.5842 7.04689 20.571 7.04255 20.5621 7.04255C20.5533 7.04255 20.5444 7.03822 20.54 7.03822C20.5267 7.03388 20.5179 7.03388 20.5046 7.03388C20.5002 7.03388 20.4958 7.02954 20.4869 7.02954L5.45713 4.99465V2.93808C5.45713 2.91638 5.45713 2.89469 5.45271 2.87733C5.45271 2.87299 5.45271 2.86865 5.44828 2.85998C5.44828 2.84696 5.44386 2.83394 5.44386 2.82093C5.43944 2.80791 5.43944 2.79923 5.43502 2.78622C5.43502 2.77754 5.43059 2.7732 5.43059 2.76452C5.42617 2.75151 5.42175 2.73849 5.41732 2.72548C5.41732 2.72114 5.4129 2.71246 5.4129 2.70812C5.40848 2.6951 5.40405 2.68643 5.39521 2.67341C5.39078 2.66907 5.39078 2.66039 5.38636 2.65605C5.38194 2.64738 5.37751 2.6387 5.36867 2.63002C5.36424 2.62134 5.35982 2.61701 5.3554 2.60833C5.35098 2.59965 5.34655 2.59531 5.34213 2.58663C5.33771 2.57796 5.32886 2.56928 5.32444 2.5606C5.32001 2.55626 5.31559 2.55192 5.31117 2.54759C5.30232 2.53891 5.29347 2.53023 5.28463 2.52155C5.28021 2.51721 5.27578 2.51288 5.27136 2.50854C5.26251 2.49986 5.25367 2.49118 5.2404 2.4825C5.23597 2.47817 5.22713 2.47383 5.2227 2.46949C5.21386 2.46081 5.20501 2.45647 5.19617 2.44779C5.1829 2.43912 5.16963 2.43044 5.16078 2.4261C5.15636 2.42176 5.15193 2.42176 5.14751 2.41742C5.12982 2.40874 5.1077 2.40007 5.09001 2.39139L1.83017 1.04637C1.52497 0.920546 1.17554 1.05939 1.04727 1.35876C0.919001 1.65814 1.06054 2.0009 1.36574 2.12672L4.25846 3.32423V5.97955V6.40042V9.62846V12.5137V16.1583C4.25846 17.3732 5.18732 18.3798 6.38599 18.5316C6.16925 18.8874 6.04098 19.3039 6.04098 19.7465C6.04098 21.0525 7.12465 22.1111 8.45159 22.1111C9.77853 22.1111 10.8622 21.0481 10.8622 19.7465C10.8622 19.3126 10.7428 18.9004 10.5305 18.5533H15.9001C15.6878 18.9048 15.5684 19.3126 15.5684 19.7465C15.5684 21.0525 16.6521 22.1111 17.979 22.1111C19.3059 22.1111 20.3896 21.0481 20.3896 19.7465C20.3896 18.4448 19.3059 17.3818 17.979 17.3818H6.70003C6.01002 17.3818 5.45271 16.8308 5.45271 16.1583V14.5703C5.8154 14.7786 6.24445 14.9001 6.70003 14.9001ZM9.67237 19.7421C9.67237 20.4016 9.1239 20.9353 8.45601 20.9353C7.78812 20.9353 7.23965 20.3973 7.23965 19.7421C7.23965 19.087 7.78812 18.549 8.45601 18.549C9.1239 18.549 9.67237 19.0826 9.67237 19.7421ZM19.1998 19.7421C19.1998 20.4016 18.6513 20.9353 17.9834 20.9353C17.3155 20.9353 16.7671 20.3973 16.7671 19.7421C16.7671 19.087 17.3155 18.549 17.9834 18.549C18.6513 18.549 19.1998 19.0826 19.1998 19.7421ZM18.5584 13.7286H6.70003C6.01002 13.7286 5.45271 13.1776 5.45271 12.5051V9.61979V6.39174V6.1748L19.8058 8.11423V12.5007C19.8058 13.1819 19.244 13.7286 18.5584 13.7286Z" fill="#8B8D8D" stroke="#8B8D8D" stroke-width="0.3"/>
</svg>
