<svg width="50" height="50" viewBox="0 0 50 50" fill="none" xmlns="http://www.w3.org/2000/svg">
<g clip-path="url(#clip0)">
<path d="M44.7273 2.42923H12.3956C9.58968 2.42923 7.30682 4.69074 7.30682 7.46149L7.09846 35.9312H0.788762C0.341599 35.9312 0 36.3266 0 36.7738V40.6919C0 44.3597 2.93522 47.3594 6.47773 47.5239V47.5709H33.7044V47.5179C33.9069 47.5262 34.0294 47.5709 34.1686 47.5709H34.188C37.9661 47.5488 41.0117 44.4692 40.9919 40.6911V15.7896H49.2112C49.6584 15.7896 50 15.3847 50 14.9379V7.74892C50.0051 4.82714 47.6491 2.45018 44.7273 2.42923V2.42923ZM6.83198 45.9515H6.82645C3.94618 45.9515 1.61943 43.571 1.61943 40.6911V37.5507H27.3279V40.6777C27.3216 42.5003 28.0416 44.2502 29.3285 45.5407C29.4653 45.6783 29.6084 45.7491 29.7547 45.9515H6.83198ZM39.3725 40.6903C39.3725 43.571 37.0682 45.9515 34.1868 45.9515H34.1702C31.2745 45.9305 28.9406 43.5737 28.9474 40.6781V36.7738C28.9497 36.3203 28.5911 35.9471 28.1376 35.9312H8.71789L8.92625 7.46703C8.92625 5.58388 10.4824 4.04866 12.3956 4.04866H40.9045C39.9817 5.06081 39.3725 6.34141 39.3725 7.77067V40.6903ZM48.3806 7.76316V14.1701H40.9919V7.76909C40.9919 5.74242 42.6777 4.04866 44.7036 4.04866H44.7262C46.7572 4.06883 48.39 5.72582 48.3806 7.75723V7.76316Z" fill="#F7901E"/>
<path d="M19.0139 22.3599L23.1886 25.2141C23.461 25.4019 23.8212 25.4019 24.0936 25.2141L28.2556 22.3607C29.7015 21.3743 30.7694 19.312 30.7694 17.5633V11.7885C30.7781 11.4833 30.6097 11.2002 30.3377 11.0614L23.9813 7.93486C23.7583 7.82416 23.4966 7.82416 23.2736 7.93486L16.9291 11.0527C16.6571 11.1915 16.4891 11.4746 16.4982 11.7798V17.5633C16.4982 19.312 17.5684 21.3743 19.0139 22.3599ZM18.1176 12.2851L23.6338 9.56339L29.15 12.2926V17.5633C29.15 18.783 28.3505 20.3344 27.3419 21.022L23.6243 23.5646L19.9213 21.0224C18.9127 20.334 18.1176 18.783 18.1176 17.5633V12.2851Z" fill="#F7901E"/>
<path d="M22.2638 18.7855C22.4149 18.9397 22.6213 19.0271 22.8371 19.0282H22.8391C23.0542 19.0274 23.2602 18.9413 23.4116 18.7886L26.6327 15.5664C26.9494 15.2501 26.9494 14.7369 26.6331 14.4206C26.3172 14.1039 25.804 14.1039 25.4877 14.4202L22.8419 17.0656L21.7843 15.9977C21.4692 15.6799 20.9564 15.6775 20.6385 15.9926C20.3206 16.3077 20.3186 16.8205 20.6333 17.1384L22.2638 18.7855Z" fill="#F7901E"/>
<path d="M33.7046 27.5303H14.2714C13.8242 27.5303 13.4617 27.8929 13.4617 28.34C13.4617 28.7872 13.8242 29.1497 14.2714 29.1497H33.7046C34.1518 29.1497 34.5143 28.7872 34.5143 28.34C34.5143 27.8929 34.1518 27.5303 33.7046 27.5303Z" fill="#F7901E"/>
<path d="M33.7046 31.2754H14.2714C13.8242 31.2754 13.4617 31.638 13.4617 32.0851C13.4617 32.5323 13.8242 32.8949 14.2714 32.8949H33.7046C34.1518 32.8949 34.5143 32.5323 34.5143 32.0851C34.5143 31.638 34.1518 31.2754 33.7046 31.2754Z" fill="#F7901E"/>
</g>
<defs>
<clipPath id="clip0">
<rect width="50" height="50" fill="white"/>
</clipPath>
</defs>
</svg>
