<svg width="48" height="48" viewBox="0 0 48 48" fill="none" xmlns="http://www.w3.org/2000/svg">
<path d="M46.9223 19.7817C46.668 19.6323 46.3536 19.6284 46.0957 19.7717L43.8023 21.0458L43.1665 -1.19C43.1539 -1.64115 42.7844 -2.00021 42.3332 -2H36.4998C36.0486 -2.00021 35.6791 -1.64115 35.6665 -1.19L34.8898 26L32.3332 27.4167V20.5C32.333 20.0398 31.9596 19.6669 31.4994 19.6671C31.3582 19.6672 31.2192 19.7031 31.0957 19.7717L17.3332 27.4167V20.5C17.333 20.0398 16.9596 19.6669 16.4994 19.6671C16.3582 19.6672 16.2192 19.7031 16.0957 19.7717L1.09567 28.105C0.830983 28.2518 0.666608 28.5306 0.666504 28.8333V47.1667C0.666504 47.6269 1.03963 48 1.49984 48H46.4998C46.96 48 47.3332 47.6269 47.3332 47.1667V20.5C47.3332 20.2047 47.1769 19.9314 46.9223 19.7817ZM37.3098 -0.333333H41.5232L41.5715 1.33333H37.2623L37.3098 -0.333333ZM37.214 3H41.619L42.1607 21.9575L36.5832 25.055L37.214 3ZM23.1665 46.3333H18.1665V42.1667H23.1665V46.3333ZM29.8332 46.3333H24.8332V42.1667H29.8332V46.3333ZM45.6665 46.3333H31.4998V41.3333C31.4998 40.8731 31.1267 40.5 30.6665 40.5H17.3332C16.873 40.5 16.4998 40.8731 16.4998 41.3333V46.3333H2.33317V29.3242L15.6665 21.9167V28.8333C15.6667 29.2935 16.04 29.6665 16.5003 29.6663C16.6415 29.6661 16.7805 29.6302 16.904 29.5617L30.6665 21.9167V28.8333C30.6667 29.2935 31.04 29.6665 31.5002 29.6663C31.6415 29.6661 31.7805 29.6302 31.904 29.5617L39.7632 25.1958L43.4165 23.1667L45.6665 21.9167V46.3333Z" fill="#F7901E"/>
</svg>
