<svg width="26" height="24" viewBox="0 0 26 24" fill="none" xmlns="http://www.w3.org/2000/svg">
<path d="M11.9979 20.7718L12.2277 20.3272L12.227 20.3269L11.9979 20.7718ZM10.927 22.3837L10.6767 21.9503L10.6766 21.9504L10.927 22.3837ZM5.69239 22.3743L5.94281 21.9409L5.94237 21.9407L5.69239 22.3743ZM5.11329 20.7177C5.16302 20.4458 4.98291 20.1851 4.711 20.1353C4.43909 20.0856 4.17835 20.2657 4.12862 20.5376L5.11329 20.7177ZM12.1952 20.9266C12.3443 20.6938 12.2763 20.3843 12.0435 20.2353C11.8107 20.0862 11.5012 20.1542 11.3522 20.387L12.1952 20.9266ZM10.927 21.4188L11.1773 21.8522L11.1778 21.8519L10.927 21.4188ZM5.69187 21.4093L5.44158 21.8428L5.44164 21.8428L5.69187 21.4093ZM5.21456 20.3018C5.08012 20.0603 4.77534 19.9735 4.53382 20.1079C4.2923 20.2424 4.2055 20.5472 4.33995 20.7887L5.21456 20.3018ZM11.1772 20.8881C11.4166 20.7499 11.4986 20.4438 11.3604 20.2044C11.2221 19.9651 10.916 19.8831 10.6766 20.0213L11.1772 20.8881ZM5.69235 20.4447L5.44103 20.8775L5.44201 20.8781L5.69235 20.4447ZM5.67761 19.838C5.45676 19.6718 5.14297 19.7161 4.97673 19.9369C4.81049 20.1577 4.85476 20.4715 5.0756 20.6378L5.67761 19.838ZM4.29221 17.1535C4.17031 17.4015 4.27259 17.7015 4.52068 17.8234C4.76876 17.9453 5.0687 17.843 5.19061 17.5949L4.29221 17.1535ZM5.9261 16.8918C6.16571 16.754 6.24822 16.448 6.1104 16.2084C5.97257 15.9688 5.66661 15.8863 5.427 16.0241L5.9261 16.8918ZM10.0861 19.8536L10.2359 20.3312L10.2387 20.3303L10.0861 19.8536ZM6.46278 19.2905C6.20438 19.1923 5.91533 19.3222 5.81718 19.5806C5.71904 19.8391 5.84895 20.1281 6.10736 20.2262L6.46278 19.2905ZM10.3245 20.3018C10.5867 20.2144 10.7284 19.9309 10.641 19.6687C10.5536 19.4065 10.2702 19.2648 10.0079 19.3522L10.3245 20.3018ZM9.84418 19.4731C10.1131 19.4093 10.2794 19.1396 10.2157 18.8706C10.1519 18.6017 9.88211 18.4354 9.61315 18.4992L9.84418 19.4731ZM6.65517 18.3934C6.39234 18.3078 6.10987 18.4515 6.02426 18.7143C5.93864 18.9771 6.0823 19.2596 6.34512 19.3452L6.65517 18.3934ZM4.17987 17.5202C4.26141 17.7844 4.54162 17.9324 4.80574 17.8508C5.06986 17.7693 5.21787 17.4891 5.13632 17.2249L4.17987 17.5202ZM5.67691 15.4928L5.92698 15.9264L5.92719 15.9263L5.67691 15.4928ZM10.9104 15.5018L11.1608 15.0684L11.1608 15.0684L10.9104 15.5018ZM11.437 17.334C11.3296 17.5888 11.4491 17.8823 11.7039 17.9896C11.9586 18.0969 12.2521 17.9774 12.3594 17.7227L11.437 17.334ZM10.3146 18.3753C10.577 18.2883 10.7192 18.0051 10.6322 17.7427C10.5452 17.4803 10.262 17.3382 9.99958 17.4252L10.3146 18.3753ZM5.69244 17.5508L5.44196 17.9841L5.44224 17.9843L5.69244 17.5508ZM5.67665 14.528L5.42645 14.0946L5.42626 14.0947L5.67665 14.528ZM10.9117 14.537L11.1623 14.1037L11.1617 14.1034L10.9117 14.537ZM11.0918 16.8296C10.8868 17.015 10.8708 17.3315 11.0562 17.5365C11.2416 17.7416 11.5581 17.7575 11.7632 17.5721L11.0918 16.8296ZM10.927 16.5947L10.6767 16.1613L10.6766 16.1614L10.927 16.5947ZM5.69244 16.5852L5.44219 17.0187L5.44221 17.0187L5.69244 16.5852ZM5.67665 13.563L5.42645 13.1295L5.42638 13.1296L5.67665 13.563ZM10.9107 13.5725L11.161 13.1391L11.1609 13.139L10.9107 13.5725ZM10.927 15.6294L10.6769 15.1959L10.6766 15.196L10.927 15.6294ZM5.69244 15.6199L5.94279 15.1865L5.94257 15.1864L5.69244 15.6199ZM5.67665 12.5977L5.42631 12.1643L5.42626 12.1643L5.67665 12.5977ZM10.9107 12.6077L10.6603 13.0411L10.6605 13.0411L10.9107 12.6077ZM10.927 14.6645L10.6767 14.2311L10.6766 14.2312L10.927 14.6645ZM5.69244 14.6545L5.94279 14.2211L5.94257 14.221L5.69244 14.6545ZM5.67665 11.6328L5.42645 11.1994L5.42638 11.1994L5.67665 11.6328ZM10.9107 11.6428L10.6602 12.0761L10.6605 12.0763L10.9107 11.6428ZM5.69244 13.6904L5.94279 13.257L5.94257 13.2569L5.69244 13.6904ZM5.67665 10.6681L5.42643 10.2347L5.42626 10.2348L5.67665 10.6681ZM10.9107 10.6781L10.6603 11.1115L10.6605 11.1116L10.9107 10.6781ZM5.69244 12.7252L5.94279 12.2919L5.94257 12.2917L5.69244 12.7252ZM5.67665 9.70354L5.42645 9.27007L5.42638 9.27011L5.67665 9.70354ZM10.9107 9.71301L10.6603 10.1464L10.6605 10.1465L10.9107 9.71301ZM5.69244 11.7601L5.94279 11.3267L5.94269 11.3267L5.69244 11.7601ZM5.67665 8.73788L5.42645 8.30441L5.42626 8.30452L5.67665 8.73788ZM10.9117 8.74736L11.1622 8.31405L11.162 8.3139L10.9117 8.74736ZM10.927 10.8055L10.6767 10.3721L10.6766 10.3721L10.927 10.8055ZM5.69244 10.796L5.44219 11.2295L5.44221 11.2295L5.69244 10.796ZM5.67665 7.77379L5.42645 7.34032L5.42638 7.34036L5.67665 7.77379ZM10.9107 7.78326L10.6603 8.21664L10.6603 8.21665L10.9107 7.78326ZM10.927 9.84037L10.6769 9.40687L10.6766 9.40701L10.927 9.84037ZM5.69245 9.8309L5.4422 10.2643L5.44222 10.2644L5.69245 9.8309ZM5.67666 6.80866L5.9268 7.24217L5.92687 7.24213L5.67666 6.80866ZM10.9107 6.81814L11.1611 6.38475L11.161 6.38469L10.9107 6.81814ZM10.927 8.87504L10.6769 8.44154L10.6766 8.44168L10.927 8.87504ZM5.69244 8.86557L5.94279 8.43218L5.94257 8.43206L5.69244 8.86557ZM5.67665 5.84334L5.42645 5.40987L5.42626 5.40998L5.67665 5.84334ZM10.9107 5.85334L10.6603 6.28672L10.6605 6.2868L10.9107 5.85334ZM10.927 7.91011L10.6769 7.47661L10.6766 7.47675L10.927 7.91011ZM5.69244 7.90064L5.44219 8.33409L5.44221 8.3341L5.69244 7.90064ZM5.67665 4.87841L5.42645 4.44494L5.42626 4.44505L5.67665 4.87841ZM10.9107 4.88841L10.6603 5.32179L10.6605 5.32187L10.9107 4.88841ZM5.69244 6.93602L5.94279 6.50263L5.94257 6.50251L5.69244 6.93602ZM5.67665 3.91379L5.42656 3.48025L5.42626 3.48043L5.67665 3.91379ZM10.9107 3.92379L10.6603 4.35717L10.6605 4.35725L10.9107 3.92379ZM10.927 6.01069L10.6767 5.57726L10.6766 5.57733L10.927 6.01069ZM5.69244 6.00122L5.44219 6.43467L5.44221 6.43468L5.69244 6.00122ZM5.67665 2.97899L5.42645 2.54552L5.42638 2.54556L5.67665 2.97899ZM10.9107 2.98846L10.6603 3.42184L10.6603 3.42185L10.9107 2.98846ZM5.77766 3.15354L5.52728 2.72017L5.52712 2.72026L5.77766 3.15354ZM5.79292 5.82687L5.54265 6.2603L5.54297 6.26049L5.79292 5.82687ZM10.8265 5.83687L11.0763 6.27055L11.077 6.27015L10.8265 5.83687ZM10.8102 3.16301L11.061 2.72989L11.0601 2.7294L10.8102 3.16301ZM5.5919 6.17577L5.84239 5.74246L5.84204 5.74226L5.5919 6.17577ZM4.39837 4.48178H3.89787L3.89787 4.4826L4.39837 4.48178ZM5.57506 2.80464L5.32481 2.37119L5.32457 2.37133L5.57506 2.80464ZM11.0112 2.81411L10.7607 3.2474L10.7611 3.24764L11.0112 2.81411ZM11.028 6.18577L10.7778 5.75231L10.7775 5.75248L11.028 6.18577ZM10.929 4.85439L10.6787 4.42097L10.6786 4.42103L10.929 4.85439ZM5.69445 4.84492L5.94482 4.41154L5.94453 4.41138L5.69445 4.84492ZM4.60196 3.33933L5.10244 3.33401L5.10243 3.33358L4.60196 3.33933ZM5.67761 1.82269L5.4274 1.38922L5.42733 1.38926L5.67761 1.82269ZM10.9127 1.83216L11.1631 1.39877L11.1628 1.39863L10.9127 1.83216ZM5.77863 1.99776L6.02869 2.43132L6.02873 2.4313L5.77863 1.99776ZM4.8035 3.33706L5.30398 3.33226L5.30397 3.33176L4.8035 3.33706ZM5.79495 4.67057L6.04516 4.2371L6.04501 4.23701L5.79495 4.67057ZM10.8285 4.68057L11.0786 5.1141L11.0793 5.11366L10.8285 4.68057ZM10.8122 2.00671L11.063 1.57359L11.0621 1.57309L10.8122 2.00671ZM5.59287 5.01947L5.84336 4.58616L5.84312 4.58602L5.59287 5.01947ZM4.4004 3.3418L3.89993 3.34747L3.89993 3.34754L4.4004 3.3418ZM5.57708 1.64886L5.82732 2.08231L5.8276 2.08215L5.57708 1.64886ZM11.0132 1.65781L11.2636 1.22442L11.2635 1.22436L11.0132 1.65781ZM11.03 5.02947L11.2803 5.46291L11.2803 5.46291L11.03 5.02947ZM9.83544 4.22346L9.58511 3.79006L9.58491 3.79018L9.83544 4.22346ZM6.78058 4.21767L7.03096 3.7843L7.03067 3.78414L6.78058 4.21767ZM6.77164 2.45475L7.02197 2.88815L7.02208 2.88808L6.77164 2.45475ZM9.82597 2.45949L10.0763 2.02611L10.076 2.02593L9.82597 2.45949ZM6.87234 2.62879L7.12281 3.0621L7.12282 3.0621L6.87234 2.62879ZM6.88128 4.04281L7.13127 3.60921L7.13109 3.60911L6.88128 4.04281ZM9.73459 4.0486L9.48512 3.6147L9.48463 3.61498L9.73459 4.0486ZM9.72564 2.63405L9.97651 2.20096L9.97563 2.20045L9.72564 2.63405ZM6.67973 4.39224L6.93044 3.95906L6.93001 3.95881L6.67973 4.39224ZM5.94088 3.33133H5.44038L5.44038 3.33261L5.94088 3.33133ZM6.66973 2.27989L6.91977 2.71345L6.91996 2.71334L6.66973 2.27989ZM9.92667 2.28515L10.1767 1.8516L10.1765 1.85149L9.92667 2.28515ZM9.93614 4.3975L9.68589 3.96405L9.68506 3.96453L9.93614 4.3975ZM8.99453 3.73805L8.74441 3.30454L8.74395 3.3048L8.99453 3.73805ZM7.6163 3.73542L7.86699 3.30224L7.86629 3.30183L7.6163 3.73542ZM8.98927 2.9429L8.73857 3.37608L8.73935 3.37653L8.98927 2.9429ZM7.7131 3.11487L7.46347 2.68107L7.46225 2.68177L7.7131 3.11487ZM7.71678 3.56113L7.46678 3.99472L7.46734 3.99504L7.71678 3.56113ZM8.894 3.56376L9.14402 3.99734L9.14508 3.99673L8.894 3.56376ZM8.88873 3.11803L8.63849 3.55148L8.63958 3.5521L8.88873 3.11803ZM7.51576 3.91056L7.76623 3.47724L7.76616 3.4772L7.51576 3.91056ZM7.51155 2.76597L7.76077 3.20001L7.76187 3.19937L7.51155 2.76597ZM9.09029 2.76913L8.83905 3.20202L8.84207 3.20374L9.09029 2.76913ZM9.09555 3.91266L9.34594 4.34603L9.34598 4.346L9.09555 3.91266ZM9.771 20.1858C10.0113 20.3225 10.3168 20.2385 10.4535 19.9983C10.5902 19.758 10.5063 19.4525 10.266 19.3158L9.771 20.1858ZM10.1574 17.8989L9.75308 17.604L9.75241 17.6049L10.1574 17.8989ZM10.7316 17.3627L10.9807 17.7968L10.9825 17.7957L10.7316 17.3627ZM11.197 17.7256C11.4681 17.7798 11.7318 17.604 11.786 17.3329C11.8402 17.0619 11.6644 16.7982 11.3933 16.744L11.197 17.7256ZM14.2426 19.177L14.4924 19.6107L14.4928 19.6105L14.2426 19.177ZM10.239 19.3008C9.9935 19.1739 9.69153 19.27 9.56456 19.5155C9.43759 19.761 9.53371 20.063 9.77924 20.19L10.239 19.3008ZM11.1316 20.3259L10.9017 20.7704L10.9025 20.7708L11.1316 20.3259ZM13.3436 22.0308C13.5891 22.1578 13.8911 22.0616 14.018 21.816C14.1449 21.5705 14.0488 21.2685 13.8032 21.1416L13.3436 22.0308ZM11.5379 16.7803C11.2929 16.6523 10.9905 16.7471 10.8625 16.9921C10.7345 17.2371 10.8293 17.5395 11.0743 17.6675L11.5379 16.7803ZM11.3645 17.2544L11.1328 17.698L11.1354 17.6994L11.3645 17.2544ZM11.895 17.5275L12.1247 17.0829L12.1241 17.0826L11.895 17.5275ZM14.6407 19.5094C14.8862 19.6362 15.1882 19.54 15.3151 19.2944C15.4419 19.0488 15.3457 18.7469 15.1001 18.62L14.6407 19.5094ZM2.00934 21.5379L2.25946 21.1044L2.25911 21.1042L2.00934 21.5379ZM6.47188 20.2355C6.71747 20.1087 6.8137 19.8067 6.68683 19.5612C6.55996 19.3156 6.25802 19.2193 6.01244 19.3462L6.47188 20.2355ZM2.44923 21.187C2.20365 21.3139 2.10741 21.6158 2.23428 21.8614C2.36116 22.107 2.66309 22.2032 2.90867 22.0764L2.44923 21.187ZM5.98648 19.3607C5.74593 19.4969 5.66132 19.8023 5.79749 20.0428C5.93366 20.2834 6.23906 20.368 6.47961 20.2318L5.98648 19.3607ZM5.51998 17.4081L5.26908 17.8412L5.27034 17.8419L5.51998 17.4081ZM4.95637 17.2808L4.85821 16.79C4.81827 16.798 4.77945 16.8108 4.74262 16.8282L4.95637 17.2808ZM4.57642 17.4602L4.36267 17.0077C4.35733 17.0102 4.35203 17.0128 4.34678 17.0155L4.57642 17.4602ZM1.15194 18.6653C0.906333 18.7921 0.810044 19.0941 0.936872 19.3397C1.0637 19.5853 1.36562 19.6816 1.61122 19.5547L1.15194 18.6653ZM4.37313 14.2336C4.61874 14.3605 4.92066 14.2642 5.04747 14.0185C5.17429 13.7729 5.07799 13.471 4.83238 13.3442L4.37313 14.2336ZM3.76497 13.3563L3.99459 12.9116C3.93651 12.8816 3.87311 12.8633 3.80799 12.8577L3.76497 13.3563ZM3.18926 13.4948L2.93392 13.0643L2.93326 13.0647L3.18926 13.4948ZM2.47619 15.8829L2.23314 16.3204C2.4737 16.454 2.77701 16.3684 2.91217 16.1287C3.04732 15.889 2.96362 15.5851 2.72478 15.4485L2.47619 15.8829ZM2.46672 15.8776L2.6963 15.4329C2.45333 15.3074 2.15466 15.4002 2.02554 15.6413C1.89642 15.8823 1.98464 16.1823 2.22367 16.3151L2.46672 15.8776ZM4.34633 17.4111C4.59196 17.5379 4.89386 17.4416 5.02065 17.196C5.14745 16.9504 5.05112 16.6485 4.8055 16.5217L4.34633 17.4111ZM16.3168 22.1879H15.8163L15.8163 22.1918L16.3168 22.1879ZM16.8583 22.9368L16.6072 23.3697L16.6078 23.3701L16.8583 22.9368ZM19.4579 22.9415L19.2079 22.5079L19.2077 22.508L19.4579 22.9415ZM20.4925 22.1821C20.4893 21.9057 20.2627 21.6842 19.9863 21.6874C19.7099 21.6906 19.4884 21.9173 19.4916 22.1937L20.4925 22.1821ZM16.8173 22.1836C16.8173 21.9071 16.5932 21.6831 16.3168 21.6831C16.0403 21.6831 15.8163 21.9071 15.8163 22.1836H16.8173ZM16.8173 5.47929C16.8173 5.20287 16.5932 4.97879 16.3168 4.97879C16.0403 4.97879 15.8163 5.20287 15.8163 5.47929H16.8173ZM15.8163 22.1829C15.8163 22.4593 16.0403 22.6834 16.3168 22.6834C16.5932 22.6834 16.8173 22.4593 16.8173 22.1829H15.8163ZM19.4929 14.0016C19.4929 14.2781 19.717 14.5021 19.9934 14.5021C20.2698 14.5021 20.4939 14.2781 20.4939 14.0016H19.4929ZM20.4939 5.48013C20.4939 5.20372 20.2698 4.97963 19.9934 4.97963C19.717 4.97963 19.4929 5.20372 19.4929 5.48013H20.4939ZM19.9934 22.1883V22.6888C20.2698 22.6888 20.4939 22.4647 20.4939 22.1883H19.9934ZM20.4939 19.235C20.4939 18.9585 20.2698 18.7345 19.9934 18.7345C19.717 18.7345 19.4929 18.9585 19.4929 19.235H20.4939ZM19.9923 21.6878C19.7158 21.6878 19.4918 21.9118 19.4918 22.1883C19.4918 22.4647 19.7158 22.6888 19.9923 22.6888V21.6878ZM16.0454 4.87613H15.5449L15.5449 4.88123L16.0454 4.87613ZM16.6674 5.73444L16.417 6.16776L16.4171 6.16782L16.6674 5.73444ZM19.6523 5.7397L19.9027 6.17306L19.9034 6.17265L19.6523 5.7397ZM20.2638 4.87613L20.2456 4.37597C19.9748 4.38585 19.7611 4.6094 19.7633 4.88034L20.2638 4.87613ZM16.5459 4.4268C16.5459 4.15038 16.3218 3.9263 16.0454 3.9263C15.769 3.9263 15.5449 4.15038 15.5449 4.4268H16.5459ZM20.2648 4.8761L20.283 5.37627C20.5522 5.36644 20.7653 5.14541 20.7653 4.8761H20.2648ZM20.7653 4.44089C20.7653 4.16447 20.5412 3.94039 20.2648 3.94039C19.9883 3.94039 19.7643 4.16447 19.7643 4.44089H20.7653ZM15.6241 3.62566H15.1236L15.1237 3.63132L15.6241 3.62566ZM16.3704 4.65605L16.6208 4.22269L16.6204 4.22249L16.3704 4.65605ZM19.9504 4.66289L20.2006 5.09636L20.2013 5.09596L19.9504 4.66289ZM20.684 3.62566L20.7058 3.12564C20.5682 3.11963 20.4342 3.1706 20.3354 3.26655C20.2365 3.3625 20.1816 3.49495 20.1835 3.63269L20.684 3.62566ZM16.1246 3.61923C16.1246 3.34281 15.9006 3.11873 15.6241 3.11873C15.3477 3.11873 15.1236 3.34281 15.1236 3.61923H16.1246ZM16.1246 2.87733C16.1246 2.60091 15.9006 2.37683 15.6241 2.37683C15.3477 2.37683 15.1236 2.60091 15.1236 2.87733H16.1246ZM15.1236 3.61881C15.1236 3.89523 15.3477 4.11931 15.6241 4.11931C15.9006 4.11931 16.1246 3.89523 16.1246 3.61881H15.1236ZM20.686 3.62575L20.6642 4.12577C20.8006 4.13173 20.9335 4.08171 21.0321 3.9873C21.1308 3.89289 21.1865 3.76228 21.1865 3.62575H20.686ZM21.1865 2.87743C21.1865 2.60101 20.9625 2.37693 20.686 2.37693C20.4096 2.37693 20.1855 2.60101 20.1855 2.87743H21.1865ZM19.9502 3.9141L19.7 3.48063L19.6996 3.48083L19.9502 3.9141ZM16.3701 3.90778L16.6209 3.47462L16.6203 3.47432L16.3701 3.90778ZM16.3591 1.84016L16.1091 1.40658L16.1085 1.40689L16.3591 1.84016ZM19.9407 1.84648L20.1917 1.41345L20.1904 1.41274L19.9407 1.84648ZM17.8594 16.5685L17.6847 16.0994C17.6159 16.1251 17.5535 16.1655 17.5021 16.218L17.8594 16.5685ZM17.7136 17.481L17.2301 17.6101L17.2301 17.6102L17.7136 17.481ZM19.5481 19.3218L19.6781 18.8385L19.6776 18.8383L19.5481 19.3218ZM20.8167 19.5161C21.0098 19.3182 21.0059 19.0014 20.8081 18.8083C20.6102 18.6153 20.2934 18.6192 20.1003 18.817L20.8167 19.5161ZM17.8626 16.5645H18.3631C18.3631 16.3245 18.1929 16.1184 17.9573 16.073C17.7217 16.0276 17.4871 16.1558 17.398 16.3785L17.8626 16.5645ZM17.8616 16.5671H17.3611C17.3611 16.807 17.5313 17.0132 17.7669 17.0586C18.0025 17.1039 18.2371 16.9758 18.3263 16.753L17.8616 16.5671ZM17.8618 16.5676L18.1398 16.9837C18.351 16.8426 18.423 16.5658 18.3074 16.3397C18.1917 16.1136 17.9251 16.0099 17.6871 16.0985L17.8618 16.5676ZM20.1517 14.9843C20.3472 14.7889 20.3473 14.472 20.1519 14.2765C19.9565 14.081 19.6396 14.0809 19.4441 14.2763L20.1517 14.9843ZM17.5085 16.2108C17.313 16.4062 17.313 16.7231 17.5084 16.9186C17.7038 17.1141 18.0207 17.1142 18.2162 16.9188L17.5085 16.2108ZM20.459 19.168H19.9585C19.9585 19.3704 20.0805 19.5529 20.2675 19.6304C20.4545 19.7079 20.6698 19.665 20.8129 19.5219L20.459 19.168ZM22.7516 17.5832C22.9471 17.3878 22.9471 17.0709 22.7516 16.8754C22.5562 16.6799 22.2393 16.6799 22.0438 16.8754L22.7516 17.5832ZM20.9595 19.1669C20.9595 18.8905 20.7354 18.6664 20.459 18.6664C20.1826 18.6664 19.9585 18.8905 19.9585 19.1669H20.9595ZM20.0325 14.0114L19.7366 13.6078C19.7141 13.6243 19.693 13.6426 19.6736 13.6626L20.0325 14.0114ZM19.8652 15.0581L19.3817 15.1874L19.3818 15.1879L19.8652 15.0581ZM21.9712 17.1715L21.8417 17.655L21.8419 17.655L21.9712 17.1715ZM23.3732 17.3451C23.567 17.148 23.5644 16.8312 23.3673 16.6373C23.1702 16.4435 22.8533 16.4461 22.6595 16.6432L23.3732 17.3451ZM20.0364 14.0075L19.6831 13.6529L19.6826 13.6534L20.0364 14.0075ZM20.0343 14.0101L20.3302 14.4137C20.3657 14.3877 20.3976 14.3572 20.4251 14.3228L20.0343 14.0101ZM20.7041 14.0487C20.9 13.8537 20.9006 13.5368 20.7055 13.3409C20.5104 13.1451 20.1935 13.1445 19.9977 13.3396L20.7041 14.0487ZM23.0164 16.9957H22.5159C22.5159 17.1982 22.6379 17.3808 22.825 17.4582C23.0122 17.5356 23.2275 17.4926 23.3706 17.3493L23.0164 16.9957ZM23.6779 17.0414C23.8732 16.8458 23.8729 16.5289 23.6773 16.3336C23.4817 16.1383 23.1648 16.1386 22.9695 16.3342L23.6779 17.0414ZM23.5169 16.9946C23.5169 16.7182 23.2928 16.4941 23.0164 16.4941C22.74 16.4941 22.5159 16.7182 22.5159 16.9946H23.5169ZM20.6184 12.8283L20.4294 12.3649C20.3657 12.3909 20.308 12.4297 20.26 12.479L20.6184 12.8283ZM20.4179 14.086L19.9343 14.2149L19.9346 14.2161L20.4179 14.086ZM22.9455 16.6215L22.8156 17.1048L22.8164 17.1051L22.9455 16.6215ZM24.5555 16.757C24.7486 16.5592 24.7449 16.2423 24.5471 16.0492C24.3493 15.8561 24.0325 15.8599 23.8393 16.0576L24.5555 16.757ZM20.6201 12.8276L20.8092 13.291C20.8488 13.2749 20.8862 13.2537 20.9204 13.228L20.6201 12.8276ZM21.5015 12.6544C21.6971 12.459 21.6972 12.1421 21.5018 11.9466C21.3064 11.7511 20.9895 11.751 20.794 11.9463L21.5015 12.6544ZM24.1981 16.4083L23.8612 16.7784C24.0588 16.9583 24.3628 16.9512 24.5519 16.7624L24.1981 16.4083ZM25.0813 16.2335C25.2768 16.0381 25.277 15.7212 25.0816 15.5257C24.8862 15.3301 24.5694 15.33 24.3738 15.5253L25.0813 16.2335ZM24.5339 16.0371C24.3294 15.851 24.0129 15.8659 23.8268 16.0703C23.6408 16.2748 23.6557 16.5913 23.8601 16.7774L24.5339 16.0371ZM23.4746 16.0922L23.3449 16.5756L23.345 16.5757L23.4746 16.0922ZM20.947 13.5562L20.4635 13.6856L20.4636 13.6857L20.947 13.5562ZM22.4005 12.0859L22.5301 11.6025L22.53 11.6024L22.4005 12.0859ZM24.9291 14.6224L25.4128 14.4936L25.4125 14.4926L24.9291 14.6224ZM11.4993 20.8161C11.5275 21.1331 11.3445 21.5648 10.6767 21.9503L11.1772 22.8172C12.0408 22.3186 12.5714 21.5725 12.4964 20.7276L11.4993 20.8161ZM10.6766 21.9504C10.0507 22.312 9.19673 22.5065 8.31394 22.5049C7.43134 22.5033 6.57422 22.3058 5.94281 21.9409L5.44198 22.8076C6.26037 23.2805 7.3001 23.504 8.31213 23.5059C9.32395 23.5077 10.3623 23.288 11.1774 22.8171L10.6766 21.9504ZM5.94237 21.9407C5.21782 21.523 5.05187 21.0535 5.11329 20.7177L4.12862 20.5376C3.9627 21.4448 4.50929 22.2699 5.44242 22.8079L5.94237 21.9407ZM11.3522 20.387C11.2269 20.5826 11.0105 20.7921 10.6762 20.9857L11.1778 21.8519C11.616 21.5982 11.9647 21.2867 12.1952 20.9266L11.3522 20.387ZM10.6766 20.9854C10.0505 21.347 9.19651 21.5414 8.31371 21.5397C7.43112 21.5381 6.57389 21.3406 5.9421 20.9759L5.44164 21.8428C6.26019 22.3153 7.29981 22.5388 8.31183 22.5407C9.32365 22.5426 10.362 22.3231 11.1773 21.8522L10.6766 20.9854ZM5.94216 20.9759C5.56558 20.7584 5.33617 20.5203 5.21456 20.3018L4.33995 20.7887C4.56987 21.2017 4.9488 21.5582 5.44158 21.8428L5.94216 20.9759ZM10.6766 20.0213C10.0508 20.3827 9.19686 20.577 8.31413 20.5754C7.4316 20.5737 6.57443 20.3762 5.9427 20.0113L5.44201 20.8781C6.26061 21.351 7.30029 21.5745 8.31225 21.5764C9.324 21.5783 10.3622 21.3587 11.1772 20.8881L10.6766 20.0213ZM5.94367 20.0119C5.84224 19.953 5.75387 19.8954 5.67761 19.838L5.0756 20.6378C5.1909 20.7246 5.31407 20.8038 5.44103 20.8775L5.94367 20.0119ZM5.19061 17.5949C5.30091 17.3705 5.52934 17.1201 5.9261 16.8918L5.427 16.0241C4.90703 16.3232 4.51239 16.7054 4.29221 17.1535L5.19061 17.5949ZM9.93635 19.376C8.85365 19.7157 7.50144 19.685 6.46278 19.2905L6.10736 20.2262C7.36314 20.7032 8.94633 20.7357 10.2359 20.3312L9.93635 19.376ZM10.0079 19.3522C9.97483 19.3632 9.95626 19.3697 9.93361 19.3769L10.2387 20.3303C10.2687 20.3207 10.3039 20.3087 10.3245 20.3018L10.0079 19.3522ZM9.61315 18.4992C8.66039 18.7252 7.55906 18.6879 6.65517 18.3934L6.34512 19.3452C7.43149 19.6991 8.72037 19.7397 9.84418 19.4731L9.61315 18.4992ZM5.13632 17.2249C5.02616 16.8681 5.15893 16.3694 5.92698 15.9264L5.42684 15.0593C4.4267 15.6362 3.88061 16.5509 4.17987 17.5202L5.13632 17.2249ZM5.92719 15.9263C6.55311 15.5648 7.40706 15.3704 8.28968 15.3718C9.17211 15.3733 10.0289 15.5706 10.6601 15.9352L11.1608 15.0684C10.3426 14.5957 9.30313 14.3725 8.29134 14.3708C7.27974 14.3692 6.24157 14.5888 5.42663 15.0594L5.92719 15.9263ZM10.66 15.9351C11.0744 16.1746 11.3099 16.4377 11.4199 16.6715C11.5251 16.8951 11.5288 17.1159 11.437 17.334L12.3594 17.7227C12.5633 17.2388 12.5499 16.7218 12.3257 16.2453C12.1063 15.7791 11.7 15.38 11.1608 15.0684L10.66 15.9351ZM9.99958 17.4252C8.70291 17.8551 7.0154 17.7365 5.94264 17.1173L5.44224 17.9843C6.79653 18.766 8.78643 18.882 10.3146 18.3753L9.99958 17.4252ZM5.94292 17.1175C5.30836 16.7507 5.10286 16.3408 5.10124 16.0348C5.09963 15.7305 5.29872 15.3245 5.92705 14.9614L5.42626 14.0947C4.61373 14.5642 4.09607 15.2506 4.10025 16.0401C4.10442 16.8279 4.62724 17.5131 5.44196 17.9841L5.94292 17.1175ZM5.92686 14.9615C6.55301 14.6001 7.40707 14.4058 8.28994 14.4074C9.17261 14.409 10.0299 14.6063 10.6618 14.9706L11.1617 14.1034C10.3432 13.6315 9.3037 13.4083 8.29175 13.4064C7.28001 13.4046 6.24169 13.624 5.42645 14.0946L5.92686 14.9615ZM10.6612 14.9702C11.2096 15.2875 11.4391 15.6406 11.4903 15.9216C11.5384 16.1858 11.4505 16.5052 11.0918 16.8296L11.7632 17.5721C12.3169 17.0713 12.599 16.422 12.475 15.7421C12.3542 15.079 11.8695 14.5127 11.1623 14.1037L10.6612 14.9702ZM10.6766 16.1614C10.0508 16.5229 9.19696 16.7173 8.31422 16.7156C7.43169 16.714 6.57446 16.5165 5.94267 16.1518L5.44221 17.0187C6.26076 17.4912 7.30037 17.7147 8.31234 17.7166C9.32408 17.7185 10.3624 17.499 11.1774 17.0281L10.6766 16.1614ZM5.94269 16.1518C5.30836 15.7856 5.10286 15.3758 5.10124 15.0697C5.09963 14.7653 5.29877 14.3592 5.92693 13.9964L5.42638 13.1296C4.61367 13.5989 4.09607 14.2854 4.10025 15.075C4.10442 15.8628 4.62724 16.5482 5.44219 17.0187L5.94269 16.1518ZM5.92686 13.9965C6.55301 13.6351 7.40706 13.4408 8.28978 13.4425C9.1723 13.4441 10.0292 13.6415 10.6604 14.0059L11.1609 13.139C10.3429 12.6667 9.30349 12.4434 8.29165 12.4415C7.28001 12.4396 6.24168 12.659 5.42645 13.1295L5.92686 13.9965ZM10.6603 14.0059C11.2955 14.3727 11.5009 14.7826 11.5026 15.0884C11.5042 15.3925 11.3051 15.7985 10.6767 16.1613L11.1773 17.0281C11.9898 16.559 12.5077 15.8727 12.5035 15.0831C12.4994 14.2953 11.9763 13.61 11.161 13.1391L10.6603 14.0059ZM10.6766 15.196C10.0508 15.5576 9.19689 15.7521 8.31418 15.7505C7.43168 15.7489 6.57451 15.5514 5.94279 15.1865L5.44209 16.0533C6.2607 16.5262 7.30039 16.7497 8.31237 16.7515C9.32415 16.7533 10.3624 16.5337 11.1774 16.0628L10.6766 15.196ZM5.94257 15.1864C5.30831 14.8204 5.10286 14.4108 5.10124 14.1048C5.09963 13.8004 5.29882 13.394 5.92705 13.0311L5.42626 12.1643C4.61362 12.6339 4.09607 13.3206 4.10025 14.1101C4.10442 14.8979 4.62729 15.5832 5.44231 16.0534L5.94257 15.1864ZM5.927 13.0311C6.55252 12.6698 7.40648 12.4755 8.28935 12.4772C9.17201 12.4789 10.0292 12.6764 10.6603 13.0411L11.1611 12.1743C10.3429 11.7017 9.30325 11.4782 8.29129 11.4762C7.27954 11.4743 6.24112 11.6936 5.42631 12.1643L5.927 13.0311ZM10.6605 13.0411C11.2955 13.4077 11.5009 13.8175 11.5026 14.1234C11.5042 14.4274 11.3051 14.8334 10.6769 15.1959L11.1772 16.0629C11.9898 15.594 12.5077 14.9077 12.5035 14.1181C12.4994 13.3302 11.9763 12.6449 11.1609 12.1742L10.6605 13.0411ZM10.6766 14.2312C10.0508 14.5928 9.19697 14.7871 8.31425 14.7854C7.43175 14.7837 6.57455 14.5861 5.94279 14.2211L5.44209 15.0879C6.26066 15.5608 7.30032 15.7844 8.3123 15.7864C9.32407 15.7884 10.3624 15.5688 11.1774 15.0979L10.6766 14.2312ZM5.94257 14.221C5.30829 13.855 5.10286 13.4454 5.10124 13.1394C5.09963 12.8352 5.29876 12.429 5.92693 12.0663L5.42638 11.1994C4.61369 11.6687 4.09607 12.3552 4.10025 13.1447C4.10442 13.9326 4.6273 14.6178 5.44231 15.088L5.94257 14.221ZM5.92686 12.0663C6.55305 11.7048 7.40712 11.5105 8.28978 11.5122C9.17225 11.5138 10.0291 11.7113 10.6602 12.0761L11.1612 11.2095C10.343 10.7366 9.30353 10.5131 8.29165 10.5112C7.27996 10.5093 6.24164 10.7288 5.42645 11.1994L5.92686 12.0663ZM10.6605 12.0763C11.2955 12.4429 11.5009 12.8526 11.5026 13.1583C11.5042 13.4623 11.3051 13.8683 10.6767 14.2311L11.1773 15.098C11.9898 14.6288 12.5077 13.9425 12.5035 13.153C12.4994 12.3652 11.9762 11.68 11.1609 11.2094L10.6605 12.0763ZM10.6767 13.2669C10.0509 13.6283 9.19695 13.8227 8.31422 13.821C7.43169 13.8194 6.57452 13.6219 5.94279 13.257L5.44209 14.1238C6.2607 14.5966 7.30038 14.8201 8.31234 14.822C9.32409 14.8239 10.3623 14.6044 11.1773 14.1338L10.6767 13.2669ZM5.94257 13.2569C5.30831 12.8909 5.10286 12.4813 5.10124 12.1752C5.09963 11.8708 5.29882 11.4645 5.92705 11.1015L5.42626 10.2348C4.61362 10.7043 4.09607 11.391 4.10025 12.1805C4.10442 12.9684 4.62729 13.6536 5.44231 14.1239L5.94257 13.2569ZM5.92688 11.1016C6.55246 10.7405 7.40649 10.5462 8.28938 10.5479C9.17207 10.5495 10.0292 10.7469 10.6603 11.1115L11.1611 10.2448C10.3429 9.77211 9.30319 9.54876 8.29126 9.54687C7.27953 9.54497 6.24118 9.76435 5.42643 10.2347L5.92688 11.1016ZM10.6605 11.1116C11.2955 11.4782 11.5009 11.888 11.5026 12.1939C11.5042 12.4981 11.305 12.9041 10.6767 13.2669L11.1773 14.1338C11.9899 13.6646 12.5077 12.9782 12.5035 12.1886C12.4994 11.4007 11.9763 10.7154 11.1609 10.2447L10.6605 11.1116ZM10.6767 12.3018C10.0509 12.6632 9.19695 12.8576 8.31422 12.8559C7.43169 12.8543 6.57452 12.6568 5.94279 12.2919L5.44209 13.1586C6.2607 13.6315 7.30038 13.855 8.31234 13.8569C9.32409 13.8588 10.3623 13.6393 11.1773 13.1687L10.6767 12.3018ZM5.94257 12.2917C5.30829 11.9258 5.10286 11.5161 5.10124 11.2102C5.09963 10.9059 5.29876 10.4997 5.92693 10.137L5.42638 9.27011C4.61369 9.73938 4.09607 10.426 4.10025 11.2155C4.10442 12.0033 4.6273 12.6885 5.44231 13.1588L5.94257 12.2917ZM5.92686 10.137C6.55305 9.77556 7.40713 9.58121 8.28981 9.5828C9.17231 9.5844 10.0292 9.78177 10.6603 10.1464L11.1611 9.27963C10.3429 8.80699 9.30347 8.58363 8.29162 8.58181C7.27995 8.57998 6.24164 8.79952 5.42645 9.27007L5.92686 10.137ZM10.6605 10.1465C11.2955 10.513 11.5009 10.9228 11.5026 11.2287C11.5042 11.5329 11.305 11.939 10.6767 12.3018L11.1773 13.1687C11.9899 12.6995 12.5077 12.0131 12.5035 11.2235C12.4994 10.4356 11.9763 9.75024 11.1609 9.27955L10.6605 10.1465ZM10.6767 11.3367C10.0509 11.6981 9.19695 11.8924 8.31422 11.8908C7.43169 11.8891 6.57452 11.6916 5.94279 11.3267L5.44209 12.1935C6.2607 12.6664 7.30038 12.8899 8.31234 12.8918C9.32409 12.8937 10.3623 12.6741 11.1773 12.2035L10.6767 11.3367ZM5.94269 11.3267C5.3083 10.9604 5.10286 10.5508 5.10124 10.2448C5.09963 9.94047 5.29876 9.53427 5.92705 9.17125L5.42626 8.30452C4.61368 8.77402 4.09607 9.46057 4.10025 10.2501C4.10442 11.0379 4.6273 11.7231 5.44219 12.1936L5.94269 11.3267ZM5.92686 9.17136C6.55305 8.80991 7.40712 8.61556 8.28994 8.61715C9.17256 8.61874 10.0298 8.81611 10.6615 9.18081L11.162 8.3139C10.3434 7.84134 9.30375 7.61798 8.29175 7.61615C7.27995 7.61433 6.24165 7.83386 5.42645 8.30441L5.92686 9.17136ZM10.6613 9.18067C11.2957 9.54743 11.5011 9.95732 11.5027 10.2634C11.5042 10.5678 11.305 10.9739 10.6767 11.3367L11.1773 12.2035C11.9899 11.7343 12.5077 11.0479 12.5037 10.2584C12.4997 9.47056 11.977 8.78507 11.1622 8.31405L10.6613 9.18067ZM10.6766 10.3721C10.0508 10.7337 9.19696 10.9281 8.31422 10.9264C7.43169 10.9248 6.57446 10.7273 5.94267 10.3626L5.44221 11.2295C6.26076 11.702 7.30037 11.9255 8.31234 11.9274C9.32408 11.9293 10.3624 11.7098 11.1774 11.2389L10.6766 10.3721ZM5.94269 10.3626C5.30836 9.99635 5.10286 9.58659 5.10124 9.28048C5.09963 8.97611 5.29877 8.56994 5.92693 8.20722L5.42638 7.34036C4.61367 7.80964 4.09607 8.49621 4.10025 9.28578C4.10442 10.0736 4.62724 10.759 5.44219 11.2295L5.94269 10.3626ZM5.92686 8.20726C6.55305 7.84581 7.40713 7.65146 8.28981 7.65306C9.17231 7.65465 10.0292 7.85203 10.6603 8.21664L11.1611 7.34988C10.3429 6.87725 9.30347 6.65389 8.29162 6.65206C7.27995 6.65023 6.24164 6.86977 5.42645 7.34032L5.92686 8.20726ZM10.6603 8.21665C11.2955 8.58353 11.5009 8.99336 11.5026 9.2992C11.5042 9.60328 11.3051 10.0092 10.6767 10.3721L11.1773 11.2389C11.9898 10.7698 12.5077 10.0835 12.5035 9.2939C12.4994 8.50607 11.9763 7.82079 11.161 7.34987L10.6603 8.21665ZM10.6766 9.40701C10.0508 9.7686 9.19697 9.96296 8.31423 9.9613C7.4317 9.95965 6.57447 9.76216 5.94268 9.39744L5.44222 10.2644C6.26077 10.7369 7.30039 10.9604 8.31235 10.9623C9.32409 10.9642 10.3624 10.7447 11.1774 10.2737L10.6766 9.40701ZM5.9427 9.39745C5.30827 9.03116 5.10254 8.62133 5.10085 8.31524C5.09917 8.01104 5.29814 7.60492 5.9268 7.24217L5.42653 6.37515C4.61327 6.84441 4.0955 7.53103 4.09987 8.32077C4.10423 9.10861 4.62736 9.7939 5.4422 10.2643L5.9427 9.39745ZM5.92687 7.24213C6.55302 6.88071 7.40707 6.68647 8.28979 6.68813C9.17231 6.68978 10.0292 6.88716 10.6605 7.25158L11.161 6.38469C10.3429 5.91238 9.3035 5.68903 8.29166 5.68713C7.28002 5.68523 6.24169 5.90462 5.42646 6.37519L5.92687 7.24213ZM10.6604 7.25153C11.2954 7.61837 11.5009 8.02832 11.5026 8.33427C11.5042 8.63842 11.3051 9.04435 10.6769 9.40687L11.1772 10.2739C11.9898 9.80492 12.5077 9.11862 12.5036 8.32897C12.4994 7.54112 11.9763 6.85569 11.1611 6.38475L10.6604 7.25153ZM10.6766 8.44168C10.0508 8.8033 9.19689 8.99777 8.31418 8.99617C7.43168 8.99458 6.57451 8.7971 5.94279 8.43218L5.44209 9.29896C6.2607 9.77183 7.30039 9.99535 8.31237 9.99717C9.32415 9.999 10.3624 9.77931 11.1774 9.30841L10.6766 8.44168ZM5.94257 8.43206C5.30831 8.0661 5.10286 7.65649 5.10124 7.35043C5.09963 7.04601 5.29882 6.63969 5.92705 6.2767L5.42626 5.40998C4.61362 5.87951 4.09607 6.5662 4.10025 7.35572C4.10442 8.1436 4.62729 8.82884 5.44231 9.29909L5.94257 8.43206ZM5.92686 6.27681C6.55301 5.91539 7.40705 5.72115 8.28974 5.72287C9.17224 5.72459 10.0291 5.92208 10.6603 6.28672L11.1611 5.41996C10.343 4.94734 9.30355 4.72384 8.29169 4.72187C7.28002 4.7199 6.24168 4.9393 5.42645 5.40987L5.92686 6.27681ZM10.6605 6.2868C11.2955 6.65338 11.5009 7.06318 11.5026 7.36901C11.5042 7.67309 11.3051 8.07902 10.6769 8.44154L11.1772 9.30854C11.9898 8.8396 12.5077 8.15331 12.5035 7.36371C12.4994 6.57588 11.9763 5.89056 11.1609 5.41988L10.6605 6.2868ZM10.6766 7.47675C10.0508 7.83835 9.19696 8.0327 8.31422 8.03105C7.43169 8.02939 6.57446 7.83191 5.94267 7.46718L5.44221 8.3341C6.26076 8.80663 7.30037 9.03015 8.31234 9.03204C9.32408 9.03394 10.3624 8.8144 11.1774 8.34348L10.6766 7.47675ZM5.94269 7.46719C5.3083 7.10094 5.10286 6.69129 5.10124 6.3853C5.09963 6.081 5.29876 5.67479 5.92705 5.31177L5.42626 4.44505C4.61368 4.91455 4.09607 5.60109 4.10025 6.3906C4.10442 7.17841 4.6273 7.86362 5.44219 8.33409L5.94269 7.46719ZM5.92686 5.31188C6.55301 4.95046 7.40705 4.75622 8.28974 4.75794C9.17224 4.75965 10.0291 4.95715 10.6603 5.32179L11.1611 4.45503C10.343 3.98241 9.30355 3.75891 8.29169 3.75694C7.28002 3.75497 6.24168 3.97437 5.42645 4.44494L5.92686 5.31188ZM10.6605 5.32187C11.2955 5.68844 11.5009 6.09825 11.5026 6.40408C11.5042 6.70816 11.3051 7.11409 10.6769 7.47661L11.1772 8.34361C11.9898 7.87467 12.5077 7.18838 12.5035 6.39878C12.4994 5.61094 11.9763 4.92563 11.1609 4.45495L10.6605 5.32187ZM10.6767 6.51259C10.0509 6.87399 9.19695 7.06834 8.31422 7.06669C7.43169 7.06503 6.57452 6.86755 5.94279 6.50263L5.44209 7.36941C6.2607 7.84228 7.30038 8.06579 8.31234 8.06769C9.32409 8.06958 10.3623 7.85004 11.1773 7.37945L10.6767 6.51259ZM5.94257 6.50251C5.30831 6.13655 5.10286 5.72694 5.10124 5.42088C5.09963 5.11646 5.29882 4.71014 5.92705 4.34715L5.42626 3.48043C4.61362 3.94996 4.09607 4.63665 4.10025 5.42617C4.10442 6.21405 4.62729 6.89929 5.44231 7.36954L5.94257 6.50251ZM5.92674 4.34733C6.55295 3.9861 7.40707 3.79186 8.28978 3.79352C9.1723 3.79517 10.0292 3.99255 10.6603 4.35717L11.1611 3.49041C10.3429 3.01777 9.30348 2.79442 8.29165 2.79252C7.28001 2.79062 6.24174 3.01002 5.42656 3.48025L5.92674 4.34733ZM10.6605 4.35725C11.2955 4.72382 11.5009 5.13362 11.5026 5.43953C11.5042 5.74372 11.305 6.1498 10.6767 6.51259L11.1773 7.37945C11.9899 6.91025 12.5077 6.22383 12.5035 5.43423C12.4994 4.64634 11.9763 3.96102 11.1609 3.49033L10.6605 4.35725ZM10.6766 5.57733C10.0508 5.93893 9.19696 6.13328 8.31422 6.13163C7.43169 6.12997 6.57446 5.93249 5.94267 5.56776L5.44221 6.43468C6.26076 6.90721 7.30037 7.13073 8.31234 7.13262C9.32408 7.13452 10.3624 6.91498 11.1774 6.44406L10.6766 5.57733ZM5.94269 5.56777C5.30836 5.20155 5.10286 4.79179 5.10124 4.48568C5.09963 4.18131 5.29877 3.77514 5.92693 3.41242L5.42638 2.54556C4.61367 3.01484 4.09607 3.70141 4.10025 4.49098C4.10442 5.27881 4.62724 5.96416 5.44219 6.43467L5.94269 5.56777ZM5.92686 3.41246C6.55305 3.05101 7.40713 2.85666 8.28981 2.85826C9.17231 2.85985 10.0292 3.05722 10.6603 3.42184L11.1611 2.55508C10.3429 2.08244 9.30347 1.85908 8.29162 1.85726C7.27995 1.85543 6.24164 2.07497 5.42645 2.54552L5.92686 3.41246ZM10.6603 3.42185C11.2955 3.78873 11.5009 4.19856 11.5026 4.5044C11.5042 4.80848 11.3051 5.21444 10.6767 5.57726L11.1773 6.44413C11.9898 5.97495 12.5077 5.28869 12.5035 4.4991C12.4994 3.71127 11.9763 3.02598 11.161 2.55507L10.6603 3.42185ZM8.27838 2.05943C7.2628 2.05943 6.28289 2.2836 5.52728 2.72017L6.02805 3.5869C6.59858 3.25727 7.39633 3.06043 8.27838 3.06043V2.05943ZM5.52712 2.72026C4.82381 3.12694 4.30203 3.73346 4.30203 4.48178H5.30303C5.30303 4.24392 5.47378 3.90741 6.0282 3.58682L5.52712 2.72026ZM4.30203 4.48178C4.30203 5.23608 4.82998 5.84878 5.54265 6.2603L6.0432 5.39344C5.47814 5.06716 5.30303 4.72419 5.30303 4.48178H4.30203ZM5.54297 6.26049C6.30919 6.70217 7.29909 6.93097 8.32575 6.93097V5.92997C7.43477 5.92997 6.62595 5.72936 6.04288 5.39325L5.54297 6.26049ZM8.32575 6.93097C9.34177 6.93097 10.3202 6.70611 11.0763 6.27055L10.5766 5.40318C10.0045 5.73279 9.20736 5.92997 8.32575 5.92997V6.93097ZM11.077 6.27015C11.7803 5.86346 12.3021 5.25695 12.3021 4.50862H11.3011C11.3011 4.74648 11.1303 5.083 10.5759 5.40359L11.077 6.27015ZM12.3021 4.50862C12.3021 3.75374 11.7723 3.14182 11.061 2.72989L10.5593 3.59613C11.1257 3.9241 11.3011 4.2668 11.3011 4.50862H12.3021ZM11.0601 2.7294C10.2938 2.28764 9.30383 2.05943 8.27838 2.05943V3.06043C9.16848 3.06043 9.97725 3.26059 10.5602 3.59663L11.0601 2.7294ZM8.32575 6.3336C7.36623 6.3336 6.48621 6.11464 5.84239 5.74246L5.34141 6.60908C6.16687 7.08626 7.22765 7.3346 8.32575 7.3346V6.3336ZM5.84204 5.74226C5.16383 5.35093 4.89953 4.88796 4.89887 4.48097L3.89787 4.4826C3.89932 5.37333 4.48228 6.11336 5.34176 6.60928L5.84204 5.74226ZM4.89887 4.48178C4.89887 4.08036 5.1584 3.62361 5.82554 3.23795L5.32457 2.37133C4.47508 2.8624 3.89787 3.59707 3.89787 4.48178H4.89887ZM5.82531 3.23809C6.45881 2.87234 7.32824 2.6568 8.27838 2.6568V1.6558C7.19091 1.6558 6.14059 1.90021 5.32481 2.37119L5.82531 3.23809ZM8.27838 2.6568C9.23697 2.6568 10.118 2.87581 10.7607 3.2474L11.2617 2.38082C10.4372 1.9041 9.37531 1.6558 8.27838 1.6558V2.6568ZM10.7611 3.24764C11.4405 3.63961 11.7042 4.10286 11.7042 4.50862H12.7052C12.7052 3.61771 12.1216 2.87691 11.2613 2.38058L10.7611 3.24764ZM11.7042 4.50862C11.7042 4.91032 11.4454 5.36691 10.7778 5.75231L11.2782 6.61923C12.1294 6.1279 12.7052 5.39307 12.7052 4.50862H11.7042ZM10.7775 5.75248C10.1453 6.11803 9.27548 6.3336 8.32575 6.3336V7.3346C9.41259 7.3346 10.4636 7.09024 11.2785 6.61906L10.7775 5.75248ZM10.6786 4.42103C10.0528 4.78261 9.19874 4.97698 8.31583 4.97532C7.43313 4.97367 6.57598 4.77617 5.94482 4.41154L5.44409 5.2783C6.2622 5.75093 7.30191 5.97442 8.31395 5.97632C9.3258 5.97822 10.3644 5.75869 11.1794 5.28775L10.6786 4.42103ZM5.94453 4.41138C5.31183 4.04641 5.10567 3.63847 5.10244 3.33401L4.10149 3.34465C4.10983 4.12846 4.632 4.80986 5.44437 5.27846L5.94453 4.41138ZM5.10243 3.33358C5.09892 3.02846 5.29693 2.62046 5.92789 2.25611L5.42733 1.38926C4.61111 1.86059 4.09237 2.5514 4.1015 3.34508L5.10243 3.33358ZM5.92782 2.25616C6.55397 1.89473 7.40801 1.7005 8.29087 1.70215C9.1735 1.70381 10.0308 1.90118 10.6626 2.26569L11.1628 1.39863C10.3443 0.926411 9.30472 0.70305 8.29274 0.701153C7.28098 0.699256 6.24264 0.918646 5.4274 1.38922L5.92782 2.25616ZM10.6624 2.26555C11.2973 2.63233 11.5026 3.04221 11.5042 3.34817C11.5057 3.6525 11.3064 4.05847 10.6787 4.42097L11.1793 5.28781C11.9914 4.81884 12.5091 4.13259 12.5052 3.34312C12.5012 2.55528 11.9784 1.86978 11.1631 1.39877L10.6624 2.26555ZM8.28041 0.903131C7.2634 0.903131 6.2848 1.12797 5.52854 1.56423L6.02873 2.4313C6.60071 2.10134 7.39767 1.90413 8.28041 1.90413V0.903131ZM5.52857 1.56421C4.81878 1.97359 4.29504 2.58702 4.30303 3.34235L5.30397 3.33176C5.30144 3.09249 5.47024 2.75342 6.02869 2.43132L5.52857 1.56421ZM4.30302 3.34186C4.31019 4.08933 4.83799 4.69641 5.54489 5.10412L6.04501 4.23701C5.48366 3.91324 5.30628 3.57203 5.30398 3.33226L4.30302 3.34186ZM5.54474 5.10404C6.31118 5.54644 7.30018 5.77467 8.32672 5.77467V4.77367C7.43561 4.77367 6.62801 4.57353 6.04516 4.2371L5.54474 5.10404ZM8.32672 5.77467C9.3424 5.77467 10.3221 5.55047 11.0786 5.1141L10.5784 4.24703C10.0066 4.57687 9.20868 4.77367 8.32672 4.77367V5.77467ZM11.0793 5.11366C11.7814 4.70704 12.3031 4.10109 12.3031 3.35232H11.3021C11.3021 3.59079 11.1312 3.92682 10.5776 4.24747L11.0793 5.11366ZM12.3031 3.35232C12.3031 2.59851 11.7751 1.98593 11.063 1.57359L10.5614 2.43983C11.127 2.76739 11.3021 3.11047 11.3021 3.35232H12.3031ZM11.0621 1.57309C10.2958 1.13134 9.30585 0.903131 8.28041 0.903131V1.90413C9.1705 1.90413 9.97927 2.10429 10.5622 2.44032L11.0621 1.57309ZM8.32672 5.1773C7.3682 5.1773 6.48715 4.95832 5.84336 4.58616L5.34238 5.45278C6.16787 5.92998 7.22972 6.1783 8.32672 6.1783V5.1773ZM5.84312 4.58602C5.17084 4.19788 4.90548 3.73872 4.90086 3.33605L3.89993 3.34754C3.91004 4.22891 4.49089 4.96117 5.34262 5.45291L5.84312 4.58602ZM4.90086 3.33612C4.89627 2.9314 5.15379 2.47116 5.82732 2.08231L5.32684 1.21541C4.469 1.71066 3.88978 2.45341 3.89993 3.34747L4.90086 3.33612ZM5.8276 2.08215C6.45995 1.71654 7.32978 1.5005 8.28041 1.5005V0.4995C7.19236 0.4995 6.14139 0.744451 5.32656 1.21557L5.8276 2.08215ZM8.28041 1.5005C9.23882 1.5005 10.119 1.71944 10.7629 2.09125L11.2635 1.22436C10.4382 0.747869 9.37752 0.4995 8.28041 0.4995V1.5005ZM10.7628 2.09119C11.4417 2.48337 11.7062 2.94729 11.7062 3.35232H12.7072C12.7072 2.46174 12.1224 1.72055 11.2636 1.22442L10.7628 2.09119ZM11.7062 3.35232C11.7062 3.75434 11.4466 4.211 10.7798 4.59603L11.2803 5.46291C12.1301 4.97225 12.7072 4.2375 12.7072 3.35232H11.7062ZM10.7798 4.59602C10.1463 4.96176 9.27636 5.1773 8.32672 5.1773V6.1783C9.41364 6.1783 10.4645 5.93391 11.2803 5.46291L10.7798 4.59602ZM5.10238 4.52458V3.45209H4.10138V4.52458H5.10238ZM4.60185 4.22605C4.76873 4.22605 4.9008 4.36217 4.9008 4.52447H3.8998C3.8998 4.9099 4.21079 5.22705 4.60185 5.22705V4.22605ZM4.9008 4.52447V3.45198H3.8998V4.52447H4.9008ZM4.9008 3.45198C4.9008 3.61598 4.76703 3.75093 4.60185 3.75093V2.74993C4.21249 2.74993 3.8998 3.06485 3.8998 3.45198H4.9008ZM4.60185 3.75093C4.43732 3.75093 4.3029 3.61769 4.3029 3.45198H5.3039C5.3039 3.06315 4.98846 2.74993 4.60185 2.74993V3.75093ZM4.3029 3.45198V4.52447H5.3039V3.45198H4.3029ZM4.3029 4.52447C4.3029 4.36047 4.43562 4.22605 4.60185 4.22605V5.22705C4.99016 5.22705 5.3039 4.9116 5.3039 4.52447H4.3029ZM12.5027 4.49529V3.43175H11.5017V4.49529H12.5027ZM12.0022 4.19599C12.1667 4.19599 12.3011 4.32923 12.3011 4.49493H11.3001C11.3001 4.88377 11.6156 5.19699 12.0022 5.19699V4.19599ZM12.3011 4.49493V3.43192H11.3001V4.49493H12.3011ZM12.3011 3.43192C12.3011 3.59762 12.1667 3.73086 12.0022 3.73086V2.72986C11.6156 2.72986 11.3001 3.04308 11.3001 3.43192H12.3011ZM12.0022 3.73086C11.837 3.73086 11.7032 3.59592 11.7032 3.43192H12.7042C12.7042 3.04479 12.3915 2.72986 12.0022 2.72986V3.73086ZM11.7032 3.43192V4.49493H12.7042V3.43192H11.7032ZM11.7032 4.49493C11.7032 4.33093 11.837 4.19599 12.0022 4.19599V5.19699C12.3915 5.19699 12.7042 4.88206 12.7042 4.49493H11.7032ZM9.58491 3.79018C9.25913 3.97856 8.79928 4.08673 8.311 4.08575C7.82294 4.08476 7.36068 3.97479 7.03096 3.7843L6.53021 4.65105C7.04669 4.94944 7.69139 5.08549 8.30897 5.08674C8.92634 5.08799 9.57082 4.95462 10.086 4.65674L9.58491 3.79018ZM7.03067 3.78414C6.69814 3.59231 6.64452 3.41083 6.64412 3.33284C6.64373 3.25647 6.69359 3.07782 7.02197 2.88815L6.52131 2.02135C6.00875 2.3174 5.64024 2.7763 5.64314 3.338C5.64602 3.89809 6.01735 4.35521 6.5305 4.65121L7.03067 3.78414ZM7.02208 2.88808C7.34774 2.69987 7.80746 2.59158 8.29566 2.59234C8.78363 2.59309 9.24593 2.70272 9.57591 2.89304L10.076 2.02593C9.55928 1.72789 8.91462 1.59229 8.29721 1.59134C7.68003 1.59038 7.03595 1.72391 6.52119 2.02142L7.02208 2.88808ZM9.57559 2.89286C9.90862 3.08526 9.96247 3.26711 9.96289 3.34534C9.9633 3.4218 9.91347 3.6004 9.58511 3.79006L10.0858 4.65686C10.5983 4.3608 10.9669 3.90186 10.9639 3.33998C10.9609 2.77987 10.5895 2.32259 10.0763 2.02611L9.57559 2.89286ZM8.28952 1.79254C7.68357 1.79254 7.08876 1.92558 6.62186 2.19547L7.12282 3.0621C7.40423 2.89943 7.81666 2.79354 8.28952 2.79354V1.79254ZM6.62186 2.19547C6.21523 2.43053 5.84454 2.81286 5.84454 3.33133H6.84554C6.84554 3.33029 6.84466 3.30682 6.8813 3.258C6.92012 3.20627 6.99463 3.1362 7.12281 3.0621L6.62186 2.19547ZM5.84454 3.33133C5.84454 3.85334 6.21956 4.23925 6.63147 4.47651L7.13109 3.60911C7.00007 3.53364 6.92335 3.46189 6.88308 3.40843C6.84492 3.35776 6.84554 3.33294 6.84554 3.33133H5.84454ZM6.63129 4.47641C7.10466 4.74933 7.70525 4.88484 8.31741 4.88484V3.88384C7.84024 3.88384 7.42096 3.77624 7.13127 3.60921L6.63129 4.47641ZM8.31741 4.88484C8.92371 4.88484 9.51709 4.75167 9.98454 4.48222L9.48463 3.61498C9.20166 3.7781 8.78991 3.88384 8.31741 3.88384V4.88484ZM9.98406 4.48249C10.3922 4.2478 10.7624 3.86416 10.7624 3.34659H9.76139C9.76139 3.34735 9.76227 3.37099 9.72554 3.41995C9.68679 3.47162 9.61252 3.54145 9.48512 3.61471L9.98406 4.48249ZM10.7624 3.34659C10.7624 2.82441 10.386 2.43818 9.97651 2.20096L9.47477 3.06714C9.60555 3.14289 9.68271 3.21506 9.72342 3.26912C9.76215 3.32053 9.76139 3.34553 9.76139 3.34659H10.7624ZM9.97563 2.20045C9.50199 1.92738 8.90129 1.79254 8.28952 1.79254V2.79354C8.76708 2.79354 9.18623 2.90078 9.47565 3.06765L9.97563 2.20045ZM8.31741 4.28695C7.77216 4.28695 7.28059 4.16171 6.93044 3.95906L6.42902 4.82542C6.96086 5.13323 7.63335 5.28795 8.31741 5.28795V4.28695ZM6.93001 3.95881C6.54921 3.73893 6.44182 3.50168 6.44138 3.33004L5.44038 3.33261C5.44205 3.97981 5.85879 4.49615 6.42945 4.82567L6.93001 3.95881ZM6.44138 3.33133C6.44138 3.16225 6.54604 2.92898 6.91977 2.71345L6.41969 1.84632C5.85354 2.17282 5.44038 2.68683 5.44038 3.33133H6.44138ZM6.91996 2.71334C7.26527 2.514 7.75083 2.38991 8.28952 2.38991V1.38891C7.61153 1.38891 6.94566 1.54268 6.4195 1.84643L6.91996 2.71334ZM8.28952 2.38991C8.83369 2.38991 9.3244 2.51576 9.6768 2.71881L10.1765 1.85149C9.64484 1.54513 8.97465 1.38891 8.28952 1.38891V2.38991ZM9.6766 2.7187C10.0578 2.93858 10.1645 3.17586 10.1645 3.34659H11.1655C11.1655 2.69848 10.748 2.18112 10.1767 1.8516L9.6766 2.7187ZM10.1645 3.34659C10.1645 3.5148 10.0597 3.74824 9.68589 3.96406L10.1864 4.83095C10.7514 4.50473 11.1655 3.9909 11.1655 3.34659H10.1645ZM9.68506 3.96453C9.34178 4.1636 8.85791 4.28695 8.31741 4.28695V5.28795C8.99569 5.28795 9.66114 5.13554 10.1872 4.83047L9.68506 3.96453ZM8.74395 3.3048C8.64904 3.3597 8.49212 3.40161 8.30706 3.40122C8.12219 3.40083 7.96389 3.35831 7.86699 3.30224L7.3656 4.16861C7.6497 4.33303 7.99081 4.40155 8.30495 4.40222C8.61891 4.40288 8.96061 4.33586 9.24511 4.17131L8.74395 3.3048ZM7.86629 3.30183C7.81973 3.27498 7.80771 3.25699 7.80995 3.26015C7.81139 3.26219 7.81637 3.26985 7.82101 3.28347C7.82575 3.29737 7.82922 3.31489 7.82933 3.3347C7.82943 3.35453 7.82615 3.37242 7.82135 3.38696C7.81664 3.40122 7.81138 3.40961 7.80944 3.41239C7.8062 3.41703 7.81678 3.39999 7.86221 3.37378L7.36196 2.50675C7.07995 2.66946 6.82622 2.9535 6.82834 3.34019C6.83045 3.72512 7.0852 4.00695 7.3663 4.16902L7.86629 3.30183ZM7.86221 3.37378C7.95747 3.31882 8.11444 3.27696 8.29916 3.2773C8.48373 3.27764 8.64172 3.32003 8.73857 3.37608L9.23997 2.50971C8.95582 2.34526 8.61492 2.27688 8.30101 2.2763C7.98724 2.27572 7.64612 2.34279 7.36196 2.50675L7.86221 3.37378ZM8.73935 3.37653C8.7864 3.40365 8.7987 3.42188 8.7966 3.41891C8.79522 3.41696 8.79023 3.40934 8.78557 3.39572C8.7808 3.3818 8.77729 3.3642 8.77716 3.34427C8.77704 3.32432 8.78033 3.3063 8.78517 3.29164C8.78991 3.27725 8.79523 3.26878 8.7972 3.26596C8.8005 3.26123 8.78994 3.27827 8.74441 3.30454L9.24466 4.17157C9.52635 4.00904 9.78062 3.72506 9.77814 3.33786C9.77568 2.95268 9.52015 2.67119 9.23919 2.50926L8.73935 3.37653ZM8.29671 2.47807C8.01091 2.47807 7.707 2.54093 7.46347 2.68107L7.96273 3.54868C8.01916 3.5162 8.14046 3.47907 8.29671 3.47907V2.47807ZM7.46225 2.68177C7.36812 2.73629 7.27088 2.80919 7.1918 2.9054C7.11434 2.99964 7.03052 3.14686 7.03052 3.3359H8.03152C8.03152 3.45179 7.98059 3.52217 7.96509 3.54103C7.94797 3.56185 7.94178 3.56081 7.96394 3.54797L7.46225 2.68177ZM7.03052 3.3359C7.03052 3.52842 7.11797 3.677 7.19366 3.76896C7.27274 3.86503 7.37031 3.9391 7.46678 3.99472L7.96678 3.12754C7.94642 3.1158 7.95112 3.11409 7.96652 3.1328C7.97854 3.1474 8.03152 3.21705 8.03152 3.3359H7.03052ZM7.46734 3.99504C7.72132 4.14104 8.03532 4.19361 8.30572 4.19418C8.57558 4.19474 8.8902 4.1437 9.14402 3.99734L8.64397 3.13018C8.59572 3.15801 8.47462 3.19353 8.30783 3.19318C8.14156 3.19283 8.018 3.15698 7.96623 3.12722L7.46734 3.99504ZM9.14508 3.99673C9.23866 3.94245 9.33565 3.86972 9.41463 3.77363C9.49198 3.67953 9.57605 3.53218 9.57605 3.34274H8.57505C8.57505 3.22697 8.62597 3.15671 8.64135 3.138C8.65837 3.11729 8.66458 3.11823 8.64291 3.13079L9.14508 3.99673ZM9.57605 3.34274C9.57605 3.1486 9.48681 2.9996 9.41134 2.90864C9.33208 2.8131 9.23442 2.73936 9.13789 2.68395L8.63958 3.5521C8.6604 3.56405 8.65615 3.56609 8.64096 3.54778C8.62956 3.53405 8.57505 3.46372 8.57505 3.34274H9.57605ZM9.13897 2.68458C8.89271 2.54241 8.58566 2.47807 8.29671 2.47807V3.47907C8.45401 3.47907 8.57848 3.51683 8.63849 3.55148L9.13897 2.68458ZM8.30881 3.60319C8.0842 3.60319 7.89252 3.55024 7.76623 3.47724L7.26528 4.34387C7.57052 4.52031 7.94192 4.60419 8.30881 4.60419V3.60319ZM7.76616 3.4772C7.69744 3.43749 7.66063 3.39836 7.64317 3.37259C7.62694 3.34861 7.62736 3.33702 7.62736 3.3359H6.62636C6.62636 3.7891 6.91463 4.14126 7.26535 4.34391L7.76616 3.4772ZM7.62736 3.3359C7.62736 3.33417 7.62712 3.32304 7.64236 3.30043C7.65882 3.27604 7.69402 3.23834 7.76077 3.20001L7.26233 2.33193C6.91079 2.53378 6.62636 2.88534 6.62636 3.3359H7.62736ZM7.76187 3.19937C7.87881 3.13183 8.07304 3.08174 8.29941 3.08215C8.52564 3.08257 8.7207 3.13332 8.83906 3.20201L9.34151 2.33625C9.03098 2.15602 8.65033 2.08179 8.30124 2.08115C7.95229 2.08052 7.57159 2.1533 7.26122 2.33257L7.76187 3.19937ZM8.84207 3.20374C8.90986 3.24246 8.94571 3.28077 8.96257 3.30574C8.97829 3.32903 8.97815 3.34077 8.97815 3.34274H9.97915C9.97915 2.89181 9.69434 2.53774 9.3385 2.33452L8.84207 3.20374ZM8.97815 3.34274C8.97815 3.34452 8.97836 3.35588 8.96296 3.37878C8.94639 3.40342 8.91122 3.44112 8.84511 3.47932L9.34598 4.346C9.69537 4.14408 9.97915 3.79274 9.97915 3.34274H8.97815ZM8.84516 3.4793C8.72171 3.55062 8.53219 3.60319 8.30881 3.60319V4.60419C8.67377 4.60419 9.04312 4.52099 9.34594 4.34603L8.84516 3.4793ZM10.266 19.3158C10.2744 19.3205 10.2675 19.3216 10.2553 19.2954C10.2416 19.2662 10.2233 19.2056 10.2233 19.1024H9.22226C9.22226 19.5285 9.37639 19.9613 9.771 20.1858L10.266 19.3158ZM10.2233 19.1024C10.2233 18.8387 10.3457 18.4916 10.5625 18.1929L9.75241 17.6049C9.44506 18.0283 9.22226 18.5768 9.22226 19.1024H10.2233ZM10.5618 18.1939C10.6939 18.0128 10.8416 17.8766 10.9807 17.7968L10.4825 16.9286C10.1943 17.094 9.94725 17.3378 9.75308 17.604L10.5618 18.1939ZM10.9825 17.7957C11.1208 17.7156 11.1904 17.7242 11.197 17.7256L11.3933 16.744C11.079 16.6811 10.7602 16.7677 10.4807 16.9296L10.9825 17.7957ZM14.7504 19.7527C14.7504 19.9633 14.6727 20.2319 14.5227 20.4908C14.3727 20.7496 14.1776 20.9521 13.9925 21.0589L14.4928 21.926C14.865 21.7112 15.174 21.3635 15.3888 20.9927C15.6036 20.622 15.7514 20.1814 15.7514 19.7527H14.7504ZM13.9925 21.0589C13.804 21.1677 13.7503 21.1152 13.7768 21.1303C13.805 21.1464 13.7338 21.1302 13.7338 20.9167H12.7328C12.7328 21.3432 12.8876 21.7756 13.2811 21.9999C13.673 22.2233 14.124 22.1387 14.4928 21.926L13.9925 21.0589ZM13.7338 20.9167C13.7338 20.7061 13.8115 20.4376 13.9616 20.1787C14.1116 19.92 14.3069 19.7175 14.4924 19.6107L13.9929 18.7432C13.62 18.9579 13.3107 19.3057 13.0956 19.6766C12.8806 20.0474 12.7328 20.488 12.7328 20.9167H13.7338ZM14.4928 19.6105C14.6813 19.5017 14.7345 19.5545 14.7075 19.5391C14.6792 19.5229 14.7504 19.5391 14.7504 19.7527H15.7514C15.7514 19.3268 15.5972 18.8944 15.204 18.6699C14.8122 18.4461 14.3613 18.5307 13.9925 18.7434L14.4928 19.6105ZM9.77924 20.19L10.9017 20.7704L11.3615 19.8813L10.239 19.3008L9.77924 20.19ZM11.7681 21.2165L13.3436 22.0308L13.8032 21.1416L12.2277 20.3272L11.7681 21.2165ZM11.0743 17.6675L11.1328 17.698L11.5963 16.8108L11.5379 16.7803L11.0743 17.6675ZM11.1354 17.6994L11.6659 17.9725L12.1241 17.0826L11.5936 16.8094L11.1354 17.6994ZM11.6653 17.9722L14.6407 19.5094L15.1001 18.62L12.1247 17.0829L11.6653 17.9722ZM0.4995 19.7982C0.4995 20.2269 0.647332 20.6675 0.862307 21.0383C1.07738 21.4092 1.38674 21.7569 1.75957 21.9716L2.25911 21.1042C2.07359 20.9974 1.87828 20.7949 1.72827 20.5362C1.57816 20.2773 1.5005 20.0088 1.5005 19.7982H0.4995ZM1.75922 21.9714C2.12782 22.1841 2.5787 22.269 2.9706 22.0453C3.36395 21.8207 3.51813 21.3882 3.51813 20.9622H2.51713C2.51713 21.1762 2.44581 21.1922 2.47434 21.1759C2.50142 21.1605 2.44816 21.2133 2.25946 21.1044L1.75922 21.9714ZM3.51813 20.9622C3.51813 20.5335 3.3703 20.0929 3.15553 19.7222C2.94067 19.3514 2.63167 19.0037 2.25946 18.7889L1.75922 19.656C1.9443 19.7627 2.13945 19.9652 2.28941 20.224C2.43945 20.483 2.51713 20.7515 2.51713 20.9622H3.51813ZM2.25946 18.7889C1.89046 18.576 1.43952 18.4917 1.0477 18.7152C0.654361 18.9396 0.4995 19.3718 0.4995 19.7982H1.5005C1.5005 19.5851 1.57166 19.5687 1.54366 19.5847C1.5172 19.5998 1.57092 19.5473 1.75922 19.656L2.25946 18.7889ZM6.01244 19.3462L2.44923 21.187L2.90867 22.0764L6.47188 20.2355L6.01244 19.3462ZM6.47961 20.2318C6.8756 20.0076 7.02929 19.5731 7.02929 19.1479H6.02829C6.02829 19.2512 6.00991 19.3119 5.99624 19.3411C5.98392 19.3675 5.97723 19.3659 5.98648 19.3607L6.47961 20.2318ZM7.02929 19.1479C7.02929 18.7192 6.88148 18.2785 6.66661 17.9077C6.45166 17.5368 6.14241 17.1889 5.76962 16.9744L5.27034 17.8419C5.45537 17.9484 5.65052 18.1507 5.80052 18.4096C5.9506 18.6686 6.02829 18.9372 6.02829 19.1479H7.02929ZM5.77088 16.9751C5.49046 16.8126 5.17178 16.7273 4.85821 16.79L5.05452 17.7716C5.06197 17.7701 5.13166 17.7616 5.26908 17.8412L5.77088 16.9751ZM4.74262 16.8282L4.36267 17.0077L4.79017 17.9128L5.17012 17.7334L4.74262 16.8282ZM4.34678 17.0155L1.15194 18.6653L1.61122 19.5547L4.80606 17.905L4.34678 17.0155ZM4.83238 13.3442L3.99459 12.9116L3.53535 13.8011L4.37313 14.2336L4.83238 13.3442ZM3.76497 13.3563C3.80799 12.8577 3.80784 12.8577 3.80768 12.8577C3.80763 12.8577 3.80747 12.8577 3.80737 12.8576C3.80715 12.8576 3.80693 12.8576 3.80671 12.8576C3.80627 12.8576 3.8058 12.8575 3.80532 12.8575C3.80435 12.8574 3.8033 12.8573 3.80217 12.8572C3.79991 12.8571 3.79734 12.8569 3.79447 12.8567C3.78873 12.8563 3.78176 12.8559 3.77364 12.8555C3.75744 12.8548 3.73655 12.8543 3.71165 12.8544C3.66213 12.8546 3.59525 12.8575 3.517 12.8676C3.36352 12.8873 3.14839 12.9371 2.93392 13.0643L3.44459 13.9252C3.50693 13.8882 3.57966 13.8688 3.64483 13.8604C3.67591 13.8564 3.70105 13.8554 3.71623 13.8554C3.72368 13.8553 3.7283 13.8555 3.72953 13.8556C3.73013 13.8556 3.72985 13.8556 3.72862 13.8555C3.72801 13.8555 3.72715 13.8554 3.72604 13.8553C3.72549 13.8553 3.72487 13.8552 3.72419 13.8552C3.72385 13.8552 3.72349 13.8551 3.72312 13.8551C3.72293 13.8551 3.72274 13.8551 3.72255 13.855C3.72245 13.855 3.7223 13.855 3.72225 13.855C3.7221 13.855 3.72195 13.855 3.76497 13.3563ZM2.93326 13.0647C2.56829 13.2819 2.26097 13.6266 2.04552 13.9961C1.83041 14.3651 1.68047 14.8043 1.68047 15.2345H2.68147C2.68147 15.0253 2.75939 14.7591 2.91029 14.5003C3.06084 14.242 3.25767 14.0365 3.44526 13.9248L2.93326 13.0647ZM1.68047 15.2345C1.68047 15.6605 1.83536 16.0928 2.22761 16.3173L2.72478 15.4485C2.73349 15.4534 2.72626 15.4543 2.71366 15.4273C2.69981 15.3977 2.68147 15.337 2.68147 15.2345H1.68047ZM2.71924 15.4453L2.70977 15.4401L2.22367 16.3151L2.23314 16.3204L2.71924 15.4453ZM2.23714 16.3223L4.34633 17.4111L4.8055 16.5217L2.6963 15.4329L2.23714 16.3223ZM15.8163 22.1918C15.8203 22.7031 16.1602 23.1104 16.6072 23.3697L17.1094 22.5038C16.8396 22.3473 16.8175 22.2137 16.8173 22.184L15.8163 22.1918ZM16.6078 23.3701C17.0612 23.6321 17.6239 23.7493 18.159 23.7502C18.694 23.7511 19.2562 23.6359 19.7082 23.3749L19.2077 22.508C18.945 22.6597 18.5671 22.7499 18.1607 22.7492C17.7545 22.7486 17.3747 22.6571 17.1087 22.5034L16.6078 23.3701ZM19.708 23.3751C20.1624 23.113 20.4985 22.6976 20.4925 22.1821L19.4916 22.1937C19.4919 22.2224 19.4744 22.3542 19.2079 22.5079L19.708 23.3751ZM20.4939 14.0016V5.48013H19.4929V14.0016H20.4939ZM20.4939 22.1883V19.235H19.4929V22.1883H20.4939ZM19.9923 22.6888H19.9934V21.6878H19.9923V22.6888ZM15.5449 4.88123C15.5505 5.43083 15.9158 5.87807 16.417 6.16776L16.9179 5.30112C16.596 5.11508 16.5466 4.94136 16.5459 4.87104L15.5449 4.88123ZM16.4171 6.16782C16.9237 6.4605 17.5558 6.59346 18.1607 6.59456C18.7654 6.59567 19.3973 6.46509 19.9027 6.17306L19.4019 5.30635C19.0858 5.48899 18.6384 5.59443 18.1626 5.59356C17.6869 5.5927 17.2374 5.48569 16.9178 5.30106L16.4171 6.16782ZM19.9034 6.17265C20.4073 5.88039 20.769 5.42742 20.7643 4.87193L19.7633 4.88034C19.7639 4.95108 19.7193 5.12223 19.4012 5.30676L19.9034 6.17265ZM20.7653 4.8761V4.44089H19.7643V4.8761H20.7653ZM20.2821 5.3763L20.283 5.37627L20.2465 4.37593L20.2456 4.37597L20.2821 5.3763ZM15.1237 3.63132C15.1306 4.24179 15.5356 4.75237 16.1203 5.08961L16.6204 4.22249C16.2179 3.99033 16.1261 3.75364 16.1246 3.62L15.1237 3.63132ZM16.12 5.08941C16.709 5.42977 17.4492 5.58651 18.1618 5.58781C18.8742 5.58911 19.6137 5.43515 20.2006 5.09636L19.7002 4.22942C19.3025 4.45898 18.7474 4.58788 18.1637 4.58681C17.5801 4.58574 17.0226 4.45488 16.6208 4.22269L16.12 5.08941ZM20.2013 5.09596C20.7877 4.75626 21.1932 4.23825 21.1844 3.61863L20.1835 3.63269C20.1854 3.76245 20.1014 3.99697 19.6995 4.22982L20.2013 5.09596ZM15.1236 2.87733V3.61881H16.1246V2.87733H15.1236ZM21.1865 3.62575V2.87743H20.1855V3.62575H21.1865ZM20.6622 4.12568L20.6642 4.12577L20.7079 3.12573L20.7058 3.12564L20.6622 4.12568ZM19.6996 3.48083C19.3019 3.7108 18.7469 3.84002 18.1633 3.83907C17.5799 3.83812 17.0226 3.70717 16.6209 3.47462L16.1194 4.34094C16.7086 4.68201 17.449 4.83891 18.1617 4.84007C18.8743 4.84122 19.6138 4.68679 20.2007 4.34737L19.6996 3.48083ZM16.6203 3.47432C16.2154 3.24057 16.125 3.00388 16.1243 2.87035C16.1236 2.73841 16.2097 2.50473 16.6096 2.27343L16.1085 1.40689C15.5239 1.745 15.12 2.25911 15.1233 2.87563C15.1265 3.49055 15.5339 4.00296 16.1199 4.34124L16.6203 3.47432ZM16.6091 2.27375C17.0074 2.04408 17.5626 1.91531 18.1464 1.91638C18.73 1.91744 19.288 2.04817 19.6909 2.28021L20.1904 1.41274C19.6009 1.07328 18.8609 0.916679 18.1482 0.915377C17.4358 0.914076 16.6964 1.06789 16.1091 1.40658L16.6091 2.27375ZM19.6897 2.27951C20.0937 2.51363 20.1843 2.75056 20.185 2.88453C20.1856 3.01656 20.0996 3.24995 19.7 3.48063L20.2004 4.34757C20.7854 4.0099 21.189 3.49602 21.186 2.8796C21.1829 2.26512 20.7765 1.75241 20.1917 1.41345L19.6897 2.27951ZM17.5021 16.218C17.1452 16.5819 17.0966 17.1104 17.2301 17.6101L18.1972 17.3518C18.117 17.0517 18.1958 16.9403 18.2167 16.9189L17.5021 16.218ZM17.2301 17.6102C17.3654 18.1162 17.68 18.5968 18.0577 18.9757C18.4353 19.3545 18.9143 19.6702 19.4186 19.8052L19.6776 18.8383C19.3841 18.7597 19.0532 18.5565 18.7667 18.2691C18.4803 17.9817 18.2766 17.6488 18.1971 17.3517L17.2301 17.6102ZM19.4181 19.8051C19.9233 19.941 20.4552 19.8866 20.8167 19.5161L20.1003 18.817C20.0798 18.838 19.9749 18.9183 19.6781 18.8385L19.4181 19.8051ZM17.3621 16.5645C17.3621 16.4797 17.3836 16.4123 17.4019 16.3691C17.411 16.3475 17.4203 16.3299 17.4276 16.317C17.435 16.3042 17.4416 16.2939 17.4461 16.2871C17.4506 16.2804 17.4543 16.2752 17.4561 16.2727C17.4576 16.2706 17.4593 16.2684 17.4585 16.2694C17.4583 16.2697 17.4566 16.272 17.4545 16.2749C17.4524 16.2779 17.4493 16.2823 17.4457 16.2876C17.4386 16.2984 17.429 16.3136 17.4191 16.3325C17.409 16.3516 17.3988 16.374 17.3898 16.3995C17.3808 16.4251 17.3734 16.4524 17.3684 16.4813C17.3635 16.5101 17.3611 16.5389 17.3611 16.5671H18.3621C18.3621 16.5949 18.3597 16.6233 18.3548 16.6518C18.3499 16.6803 18.3426 16.7074 18.3337 16.7327C18.3248 16.7579 18.3147 16.78 18.3048 16.7989C18.295 16.8176 18.2855 16.8325 18.2785 16.8431C18.275 16.8484 18.272 16.8526 18.2699 16.8556C18.2679 16.8584 18.2663 16.8606 18.2661 16.8608C18.2654 16.8618 18.2671 16.8595 18.2687 16.8573C18.2705 16.8547 18.2743 16.8494 18.2788 16.8426C18.2834 16.8358 18.2901 16.8254 18.2974 16.8125C18.3048 16.7995 18.3141 16.7819 18.3233 16.7602C18.3417 16.7169 18.3631 16.6494 18.3631 16.5645H17.3621ZM18.3263 16.753L18.3273 16.7504L17.398 16.3785L17.3969 16.3812L18.3263 16.753ZM17.6871 16.0985L17.6847 16.0994L18.034 17.0375L18.0364 17.0366L17.6871 16.0985ZM17.8594 17.069C17.9765 17.069 18.0612 17.027 18.0769 17.0195C18.0932 17.0117 18.1064 17.0043 18.1159 16.9988C18.1208 16.9958 18.1253 16.9931 18.1292 16.9906C18.1312 16.9894 18.133 16.9882 18.1348 16.987C18.1357 16.9865 18.1366 16.9859 18.1374 16.9853C18.1378 16.9851 18.1382 16.9848 18.1386 16.9845C18.1388 16.9844 18.139 16.9843 18.1392 16.9841C18.1393 16.9841 18.1394 16.984 18.1395 16.9839C18.1396 16.9839 18.1397 16.9838 18.1397 16.9838C18.1398 16.9838 18.1398 16.9837 17.8618 16.5676C17.5837 16.1514 17.5838 16.1514 17.5838 16.1513C17.5839 16.1513 17.5839 16.1513 17.584 16.1512C17.5841 16.1512 17.5842 16.1511 17.5843 16.151C17.5845 16.1509 17.5847 16.1508 17.5849 16.1506C17.5853 16.1504 17.5857 16.1501 17.5861 16.1498C17.587 16.1493 17.5878 16.1487 17.5887 16.1481C17.5904 16.147 17.5923 16.1458 17.5942 16.1446C17.598 16.1422 17.6024 16.1395 17.6072 16.1367C17.6164 16.1313 17.6292 16.1241 17.645 16.1165C17.6601 16.1093 17.6839 16.0988 17.7142 16.0896C17.7423 16.081 17.7936 16.068 17.8594 16.068V17.069ZM19.4441 14.2763L17.5085 16.2108L18.2162 16.9188L20.1517 14.9843L19.4441 14.2763ZM20.8129 19.5219L22.7516 17.5832L22.0438 16.8754L20.1051 18.8141L20.8129 19.5219ZM19.9585 19.1669V19.168H20.9595V19.1669H19.9585ZM19.6736 13.6626C19.2928 14.0545 19.2318 14.627 19.3817 15.1874L20.3487 14.9288C20.2534 14.5725 20.3407 14.4124 20.3915 14.3602L19.6736 13.6626ZM19.3818 15.1879C19.5334 15.7528 19.8865 16.2935 20.3133 16.7217C20.7399 17.1498 21.2786 17.5041 21.8417 17.655L22.1008 16.6881C21.7487 16.5937 21.3581 16.352 21.0223 16.0151C20.6867 15.6783 20.4443 15.2849 20.3486 14.9284L19.3818 15.1879ZM21.8419 17.655C22.4061 17.8059 22.9829 17.7419 23.3732 17.3451L22.6595 16.6432C22.6098 16.6937 22.4573 16.7834 22.1005 16.688L21.8419 17.655ZM20.0364 14.0075C19.6826 13.6534 19.6826 13.6535 19.6825 13.6535C19.6825 13.6535 19.6825 13.6536 19.6824 13.6536C19.6824 13.6537 19.6823 13.6537 19.6823 13.6538C19.6821 13.6539 19.682 13.654 19.6819 13.6541C19.6817 13.6544 19.6814 13.6546 19.6812 13.6549C19.6807 13.6553 19.6803 13.6558 19.6798 13.6563C19.6788 13.6573 19.6778 13.6583 19.6768 13.6594C19.6748 13.6614 19.6726 13.6637 19.6704 13.6661C19.666 13.6708 19.6611 13.6763 19.6558 13.6824C19.6457 13.6942 19.6321 13.7111 19.6178 13.7325L20.4507 14.2877C20.4375 14.3076 20.425 14.3231 20.4157 14.334C20.4108 14.3397 20.4062 14.3448 20.402 14.3493C20.3999 14.3515 20.3978 14.3537 20.3959 14.3557C20.3949 14.3567 20.3939 14.3577 20.393 14.3587C20.3925 14.3592 20.392 14.3597 20.3916 14.3601C20.3913 14.3604 20.3911 14.3606 20.3909 14.3608C20.3907 14.3609 20.3906 14.3611 20.3905 14.3612C20.3904 14.3612 20.3904 14.3613 20.3903 14.3614C20.3903 14.3614 20.3903 14.3614 20.3902 14.3614C20.3902 14.3615 20.3902 14.3615 20.0364 14.0075ZM20.4251 14.3228L20.4272 14.3202L19.6456 13.6948L19.6435 13.6974L20.4251 14.3228ZM19.7383 13.6065L19.7366 13.6078L20.3285 14.415L20.3302 14.4137L19.7383 13.6065ZM20.2564 14.4591C20.3138 14.4303 20.3636 14.3917 20.4042 14.3468C20.4227 14.3264 20.4358 14.3085 20.4432 14.298C20.4466 14.293 20.4492 14.2891 20.4497 14.2884C20.4511 14.2864 20.4487 14.29 20.4466 14.293C20.4387 14.3046 20.3888 14.3805 20.2923 14.4387C20.1913 14.4998 20.0937 14.5106 20.0343 14.5106V13.5096C19.9744 13.5096 19.8764 13.5206 19.7751 13.5817C19.6784 13.6401 19.6283 13.7163 19.6202 13.7281C19.6181 13.7312 19.6157 13.7349 19.617 13.7329C19.6174 13.7323 19.62 13.7284 19.6234 13.7236C19.6307 13.7132 19.6436 13.6954 19.662 13.6752C19.7024 13.6305 19.7518 13.5922 19.8087 13.5637L20.2564 14.4591ZM19.9977 13.3396L19.6831 13.6529L20.3896 14.3621L20.7041 14.0487L19.9977 13.3396ZM23.3706 17.3493L23.6779 17.0414L22.9695 16.3342L22.6622 16.6421L23.3706 17.3493ZM22.5159 16.9946V16.9957H23.5169V16.9946H22.5159ZM20.26 12.479C19.8336 12.9166 19.7608 13.5639 19.9343 14.2149L20.9016 13.9572C20.7814 13.5062 20.8834 13.2736 20.9769 13.1776L20.26 12.479ZM19.9346 14.2161C20.1113 14.8727 20.5238 15.5063 21.0267 16.0108C21.5295 16.5152 22.161 16.9289 22.8156 17.1048L23.0754 16.1381C22.6312 16.0188 22.1476 15.7174 21.7356 15.3041C21.3238 14.891 21.0219 14.4045 20.9012 13.956L19.9346 14.2161ZM22.8164 17.1051C23.4722 17.2801 24.1231 17.1998 24.5555 16.757L23.8393 16.0576C23.7476 16.1516 23.5228 16.2576 23.0746 16.1379L22.8164 17.1051ZM20.3995 12.3768C20.3687 12.3922 20.3402 12.4104 20.3141 12.4308C20.2884 12.451 20.2684 12.4707 20.2537 12.4867C20.2397 12.502 20.2297 12.5149 20.2254 12.5205C20.2232 12.5234 20.2214 12.5257 20.221 12.5262C20.22 12.5277 20.2213 12.5259 20.2217 12.5253C20.2263 12.5192 20.2394 12.5019 20.2585 12.4818C20.2777 12.4616 20.2983 12.4433 20.3198 12.4272L20.9204 13.228C20.943 13.2111 20.9644 13.1921 20.9842 13.1712C21.004 13.1505 21.0175 13.1326 21.0225 13.1259C21.0231 13.1252 21.0244 13.1233 21.0235 13.1247C21.0232 13.1251 21.0215 13.1273 21.0194 13.1301C21.0153 13.1354 21.0054 13.148 20.9916 13.1631C20.9771 13.179 20.9573 13.1985 20.9318 13.2185C20.9059 13.2388 20.8776 13.2569 20.8471 13.2721L20.3995 12.3768ZM20.974 13.1815L20.9772 13.1784L20.2694 12.4705L20.2662 12.4737L20.974 13.1815ZM20.4311 12.3642L20.4294 12.3649L20.8075 13.2917L20.8092 13.291L20.4311 12.3642ZM20.794 11.9463L20.2695 12.4704L20.9771 13.1785L21.5015 12.6544L20.794 11.9463ZM24.5519 16.7624L25.0813 16.2335L24.3738 15.5253L23.8444 16.0542L24.5519 16.7624ZM23.8601 16.7774L23.8612 16.7784L24.535 16.0381L24.5339 16.0371L23.8601 16.7774ZM23.6043 15.6088C23.1602 15.4897 22.6763 15.1884 22.2643 14.7752C21.8524 14.362 21.5507 13.8755 21.4305 13.4268L20.4636 13.6857C20.6397 14.3432 21.0523 14.9773 21.5554 15.4819C22.0584 15.9864 22.6902 16.4 23.3449 16.5756L23.6043 15.6088ZM21.4305 13.4269C21.3096 12.9747 21.4129 12.743 21.5068 12.6479C21.5993 12.5543 21.8248 12.4499 22.2711 12.5694L22.53 11.6024C21.8774 11.4277 21.2283 11.5056 20.7948 11.9444C20.3627 12.3816 20.2887 13.0321 20.4635 13.6856L21.4305 13.4269ZM22.271 12.5694C22.7156 12.6885 23.1993 12.9897 23.6113 13.403C24.0231 13.8161 24.3251 14.303 24.4458 14.7523L25.4125 14.4926C25.2359 13.8352 24.8234 13.2011 24.3203 12.6963C23.8172 12.1917 23.1854 11.778 22.5301 11.6025L22.271 12.5694ZM24.4455 14.7513C24.566 15.2036 24.4624 15.4353 24.3683 15.5303C24.2756 15.6241 24.0498 15.7282 23.6042 15.6088L23.345 16.5757C23.9971 16.7504 24.646 16.6727 25.0797 16.2345C25.5122 15.7977 25.587 15.1474 25.4128 14.4936L24.4455 14.7513ZM10.9025 20.7708L11.7688 21.2168L12.227 20.3269L11.3607 19.8809L10.9025 20.7708ZM15.8163 22.1836V22.1879H16.8173V22.1836H15.8163ZM15.8163 5.47929V22.1829H16.8173V5.47929H15.8163ZM15.5449 4.4268V4.87613H16.5459V4.4268H15.5449ZM15.1236 3.61923V3.62566H16.1246V3.61923H15.1236Z" fill="#006946"/>
</svg>
