<svg width="26" height="18" viewBox="0 0 26 18" fill="none" xmlns="http://www.w3.org/2000/svg">
<path d="M14.0658 6.25025L11.0476 4.81691L11.0658 2.82845L24.8939 9.39072L24.8801 11.3787L21.1863 9.62539M8.98071 8.64088L5.97269 7.21732L5.98069 5.24086L19.8088 11.8031L19.8039 13.7791L16.059 12.0116L16.059 10.0435M11.8567 5.21856L8.90956 6.62479M1.012 10.397L1 7.60982L14.8281 1L14.8401 3.78757L13.9965 4.18758M1.012 10.397L14.8401 17.0064L14.8446 14.2197L1.01604 7.60942L1.012 10.397ZM6.79255 7.63132L3.92808 9.00111M14.0189 11.0272L11.9096 10.0383M12.0087 10.0897L11.0714 9.62521M19.0399 8.60137L16.1528 7.23425M19.0788 6.64684L19.985 6.20328L19.9721 3.41259L6.14359 10.0304M14.0336 9.05905L16.9963 7.63104M9.05019 11.453L11.9098 10.0787M24.0964 9.01574L25 8.57663L24.988 5.79172L11.1599 12.41M19.0346 11.4282L22.012 10.0091M14.0564 13.8189L16.9498 12.438M11.071 7.65656V9.62546M21.1867 7.65656V9.62546M16.1528 5.24053V7.20943" stroke="#006946" stroke-width="1.001" stroke-miterlimit="10" stroke-linecap="round" stroke-linejoin="round"/>
</svg>
