<svg width="26" height="22" viewBox="0 0 26 22" fill="none" xmlns="http://www.w3.org/2000/svg">
<path d="M1.38607 12.7487L1.97128 13.0815L1.97171 14.9262L1.97128 14.8962C1.97171 16.1156 2.75836 17.5514 3.72864 18.1036C4.69935 18.6557 5.48599 18.1147 5.48599 16.8953V16.9253V15.081L6.07164 15.4137M6.45745 14.651V20.5302C6.45745 20.6787 6.35543 20.7415 6.22953 20.6701L1.22792 17.825C1.10245 17.754 1 17.5744 1 17.426V11.5468M18.6693 2.58678L22.1579 4.57133M17.0145 3.52803L20.5036 5.51258M15.3601 4.46928L18.8487 6.45382M13.7052 5.41049L17.1943 7.39504M12.0505 6.35152L15.5396 8.33607M10.3957 7.29299L13.8848 9.27753M8.74106 8.23402L12.2302 10.2186M7.08637 9.17526L10.5755 11.1598M5.43169 10.1165L8.92079 12.1011M3.77696 11.0578L7.26606 13.0423M6.44789 14.5899L1.056 11.5232L19.5564 1L24.9479 4.06664L6.44789 14.5899ZM6.4479 20.7143V14.64L25 4.08771L24.9996 10.162L6.4479 20.7143Z" stroke="#006946" stroke-width="1.001" stroke-miterlimit="10" stroke-linecap="round" stroke-linejoin="round"/>
</svg>
