<svg width="32" height="26" viewBox="0 0 32 26" fill="none" xmlns="http://www.w3.org/2000/svg">
<path d="M6.82641 22.2927L6.57458 22.7252L6.57502 22.7255L6.82641 22.2927ZM6.82582 20.4486L7.07808 20.0163L7.0779 20.0162L6.82582 20.4486ZM10.9877 24.8235L10.7355 25.2558C10.8978 25.3505 11.0993 25.3463 11.2575 25.2451C11.4157 25.1438 11.5039 24.9625 11.4859 24.7755L10.9877 24.8235ZM8.96242 20.2875C8.82487 20.0477 8.519 19.9649 8.27923 20.1024C8.03947 20.24 7.95661 20.5458 8.09416 20.7856L8.96242 20.2875ZM10.2391 22.217C10.4212 22.4249 10.7374 22.446 10.9454 22.2639C11.1533 22.0818 11.1743 21.7656 10.9923 21.5576L10.2391 22.217ZM9.47417 19.8235C9.2921 19.6155 8.9759 19.5945 8.76792 19.7765C8.55993 19.9586 8.53893 20.2748 8.721 20.4828L9.47417 19.8235ZM6.13832 19.3812C6.23505 19.1223 6.10355 18.834 5.84461 18.7372C5.58566 18.6405 5.29734 18.772 5.20061 19.0309L6.13832 19.3812ZM4.42921 21.096C4.33249 21.355 4.46399 21.6433 4.72293 21.74C4.98187 21.8367 5.2702 21.7052 5.36693 21.4463L4.42921 21.096ZM8.48643 20.4415C8.41682 20.174 8.14353 20.0136 7.87602 20.0832C7.60851 20.1528 7.44808 20.4261 7.51769 20.6936L8.48643 20.4415ZM8.28908 23.6581C8.35869 23.9256 8.63198 24.0861 8.89949 24.0164C9.167 23.9468 9.32743 23.6735 9.25783 23.406L8.28908 23.6581ZM3.6347 14.8968C3.59594 15.1705 3.78638 15.4238 4.06007 15.4626C4.33376 15.5013 4.58705 15.3109 4.62581 15.0372L3.6347 14.8968ZM5.74948 13.486L5.70763 13.9847C5.87099 13.9984 6.0307 13.9313 6.13518 13.8049C6.23965 13.6786 6.27564 13.5091 6.23151 13.3512L5.74948 13.486ZM7.90358 14.7432L7.44042 14.5536C7.36671 14.7335 7.40395 14.9399 7.53591 15.0828L7.90358 14.7432ZM6.82586 20.1792L6.57334 20.6113L6.57368 20.6115L6.82586 20.1792ZM5.82368 18.6101C5.65337 18.3924 5.33881 18.354 5.12109 18.5243C4.90337 18.6946 4.86495 19.0092 5.03526 19.2269L5.82368 18.6101ZM3.27679 19.8037C3.03645 19.6672 2.73093 19.7513 2.59439 19.9917C2.45785 20.232 2.54199 20.5375 2.78233 20.6741L3.27679 19.8037ZM6.82658 22.3961L7.07879 21.9637L7.07381 21.9609L6.82658 22.3961ZM9.43592 16.5341L8.96935 16.7153L8.9696 16.7159L9.43592 16.5341ZM7.98308 14.3087L7.48258 14.3015V14.3087H7.98308ZM4.21765 13.4894L4.62468 13.7807L4.62533 13.7798L4.21765 13.4894ZM2.99357 15.2393C2.92287 15.5066 3.08219 15.7805 3.34941 15.8512C3.61664 15.9219 3.89058 15.7626 3.96127 15.4954L2.99357 15.2393ZM5.82368 18.611C5.65337 18.3933 5.33881 18.3549 5.12109 18.5252C4.90337 18.6955 4.86495 19.0101 5.03526 19.2278L5.82368 18.611ZM6.82586 20.1801L6.57334 20.6122L6.57368 20.6124L6.82586 20.1801ZM8.27117 14.4044C8.08356 14.2014 7.76691 14.1889 7.5639 14.3765C7.36089 14.5641 7.3484 14.8808 7.536 15.0838L8.27117 14.4044ZM3.63517 14.8957C3.59625 15.1694 3.78655 15.4228 4.06022 15.4617C4.33388 15.5006 4.58728 15.3103 4.6262 15.0366L3.63517 14.8957ZM6.82677 12.2925L6.57441 12.7247L6.57468 12.7249L6.82677 12.2925ZM31 12.8506L31.257 13.2801C31.4227 13.1809 31.5166 12.9952 31.4982 12.8029L31 12.8506ZM29.4654 4.69664L28.999 4.87814L28.9991 4.87834L29.4654 4.69664ZM28.002 2.34581L28.3684 2.00487C28.2249 1.85058 28 1.80275 27.8061 1.88524C27.6122 1.96773 27.4907 2.16286 27.5023 2.37328L28.002 2.34581ZM26.7467 1.38159L26.4949 1.81411L26.495 1.8142L26.7467 1.38159ZM25.7084 1.0091L26.208 1.04C26.2246 0.770312 26.0242 0.536072 25.7552 0.510793L25.7084 1.0091ZM23.8392 1.36134C23.6788 1.58641 23.7311 1.89895 23.9562 2.05943C24.1813 2.2199 24.4938 2.16754 24.6543 1.94247L23.8392 1.36134ZM27.4341 5.54518C27.5342 5.8028 27.8243 5.93043 28.0819 5.83024C28.3396 5.73006 28.4672 5.43999 28.367 5.18237L27.4341 5.54518ZM26.4377 3.01294L26.8039 2.67182C26.6603 2.51764 26.4355 2.46991 26.2417 2.55242C26.0478 2.63494 25.9264 2.83004 25.9379 3.04042L26.4377 3.01294ZM25.1818 2.04814L25.4339 1.61573L25.4333 1.61542L25.1818 2.04814ZM24.1435 1.67564L24.6431 1.70473C24.6588 1.43569 24.4586 1.20255 24.1903 1.17733L24.1435 1.67564ZM22.2744 2.02839C22.1139 2.25343 22.1662 2.56598 22.3912 2.7265C22.6162 2.88702 22.9288 2.83473 23.0893 2.60969L22.2744 2.02839ZM24.3477 7.31266C24.4479 7.57029 24.738 7.69791 24.9956 7.59773C25.2532 7.49754 25.3808 7.20748 25.2807 6.94986L24.3477 7.31266ZM23.3514 4.78043L23.7176 4.43931C23.574 4.28513 23.3492 4.23739 23.1553 4.31991C22.9615 4.40243 22.84 4.59753 22.8516 4.80791L23.3514 4.78043ZM22.0955 3.81622L21.8436 4.24874L21.844 4.24893L22.0955 3.81622ZM21.0572 3.44313L21.5568 3.47221C21.5725 3.20317 21.3723 2.97003 21.104 2.94482L21.0572 3.44313ZM19.1883 3.79558C19.0276 4.02049 19.0796 4.33308 19.3046 4.49377C19.5295 4.65446 19.8421 4.6024 20.0027 4.37748L19.1883 3.79558ZM22.5936 8.42684C22.6939 8.68441 22.984 8.81188 23.2416 8.71156C23.4992 8.61123 23.6267 8.3211 23.5263 8.06353L22.5936 8.42684ZM21.5965 5.89436L21.9626 5.55305C21.8188 5.39876 21.5936 5.35123 21.3997 5.4342C21.2057 5.51718 21.0846 5.71285 21.0969 5.92344L21.5965 5.89436ZM20.3407 4.92955L20.5925 4.49703L20.5922 4.49683L20.3407 4.92955ZM19.3023 4.55705L19.802 4.58614C19.8177 4.3171 19.6175 4.08396 19.3492 4.05875L19.3023 4.55705ZM17.4334 4.9095C17.2728 5.13442 17.3248 5.44701 17.5497 5.6077C17.7746 5.76839 18.0872 5.71632 18.2479 5.49141L17.4334 4.9095ZM19.7193 10.0757C19.8195 10.3333 20.1096 10.461 20.3672 10.3608C20.6248 10.2606 20.7524 9.97054 20.6522 9.71291L19.7193 10.0757ZM18.7229 7.54349L19.0892 7.20237C18.9456 7.04819 18.7208 7.00045 18.5269 7.08297C18.3331 7.16549 18.2116 7.36058 18.2232 7.57097L18.7229 7.54349ZM17.4671 6.57927L17.2152 7.0118L17.2154 7.01188L17.4671 6.57927ZM16.4287 6.20618L16.9284 6.23527C16.9441 5.96623 16.7439 5.73309 16.4756 5.70788L16.4287 6.20618ZM14.5596 6.55894C14.3991 6.78397 14.4514 7.09652 14.6764 7.25705C14.9015 7.41757 15.214 7.36527 15.3745 7.14024L14.5596 6.55894ZM18.1081 11.129C18.2085 11.3865 18.4986 11.514 18.7562 11.4137C19.0137 11.3134 19.1412 11.0232 19.0409 10.7657L18.1081 11.129ZM17.1111 8.5965L17.4772 8.25519C17.3333 8.1009 17.1082 8.05337 16.9142 8.13634C16.7203 8.21932 16.5992 8.41499 16.6114 8.62558L17.1111 8.5965ZM15.8552 7.63169L16.1071 7.19917L16.1069 7.19908L15.8552 7.63169ZM14.8175 7.25919L15.3171 7.28828C15.3328 7.01922 15.1326 6.78607 14.8643 6.76088L14.8175 7.25919ZM12.948 7.61164C12.7873 7.83656 12.8394 8.14915 13.0643 8.30984C13.2892 8.47053 13.6018 8.41846 13.7625 8.19355L12.948 7.61164ZM15.199 12.8423C15.2992 13.0999 15.5892 13.2275 15.8468 13.1273C16.1045 13.0271 16.2321 12.7371 16.1319 12.4795L15.199 12.8423ZM14.2026 10.31L14.5689 9.96891C14.4253 9.81472 14.2005 9.76699 14.0066 9.84951C13.8127 9.93202 13.6913 10.1271 13.7029 10.3375L14.2026 10.31ZM12.9467 9.34581L12.6949 9.77833L12.6952 9.77853L12.9467 9.34581ZM11.9084 8.97272L12.4081 9.00181C12.4237 8.73277 12.2235 8.49963 11.9552 8.47442L11.9084 8.97272ZM10.0395 9.32517C9.87882 9.55009 9.93088 9.86268 10.1558 10.0234C10.3807 10.1841 10.6933 10.132 10.854 9.90708L10.0395 9.32517ZM13.4713 13.7125C13.5715 13.9701 13.8615 14.0978 14.1192 13.9976C14.3768 13.8974 14.5044 13.6073 14.4042 13.3497L13.4713 13.7125ZM12.4749 11.1803L12.8412 10.8392C12.6976 10.685 12.4728 10.6372 12.2789 10.7198C12.085 10.8023 11.9636 10.9974 11.9752 11.2078L12.4749 11.1803ZM11.219 10.2161L10.9672 10.6486L10.9673 10.6487L11.219 10.2161ZM10.1807 9.84298L10.6804 9.87206C10.696 9.60302 10.4959 9.36989 10.2275 9.34467L10.1807 9.84298ZM8.3116 10.1957C8.15108 10.4208 8.20338 10.7333 8.42841 10.8938C8.65344 11.0544 8.966 11.0021 9.12652 10.777L8.3116 10.1957ZM10.6716 15.4089C10.7719 15.6665 11.062 15.7939 11.3196 15.6936C11.5772 15.5933 11.7046 15.3032 11.6043 15.0456L10.6716 15.4089ZM9.67452 12.8758L10.0408 12.5347C9.89715 12.3805 9.67237 12.3328 9.4785 12.4153C9.28464 12.4978 9.16321 12.6929 9.17478 12.9033L9.67452 12.8758ZM8.41865 11.9116L8.16681 12.3441L8.16714 12.3443L8.41865 11.9116ZM7.38091 11.5391L7.88056 11.5682C7.89623 11.2991 7.69602 11.066 7.42769 11.0408L7.38091 11.5391ZM5.51142 11.8916C5.35074 12.1165 5.4028 12.4291 5.62771 12.5897C5.85263 12.7504 6.16522 12.6984 6.32591 12.4735L5.51142 11.8916ZM10.7612 24.3758C10.524 24.5177 10.4468 24.825 10.5887 25.0622C10.7306 25.2994 11.038 25.3767 11.2752 25.2348L10.7612 24.3758ZM11.3711 15.574C11.1338 15.7158 11.0566 16.0232 11.1984 16.2604C11.3403 16.4976 11.6476 16.5749 11.8849 16.433L11.3711 15.574ZM14.6741 14.7648C14.9114 14.6229 14.9886 14.3156 14.8468 14.0784C14.7049 13.8412 14.3976 13.7639 14.1603 13.9058L14.6741 14.7648ZM15.925 12.8501C15.6878 12.992 15.6105 13.2993 15.7524 13.5365C15.8943 13.7737 16.2016 13.851 16.4388 13.7091L15.925 12.8501ZM19.2269 12.0415C19.4641 11.8996 19.5414 11.5923 19.3995 11.3551C19.2576 11.1178 18.9503 11.0406 18.7131 11.1825L19.2269 12.0415ZM20.4791 10.1272C20.242 10.2692 20.1648 10.5765 20.3068 10.8137C20.4488 11.0508 20.7562 11.128 20.9933 10.986L20.4791 10.1272ZM23.7797 9.31778C24.0168 9.17579 24.094 8.86843 23.952 8.63127C23.81 8.3941 23.5026 8.31696 23.2655 8.45895L23.7797 9.31778ZM25.0345 7.40057C24.7973 7.54249 24.72 7.84983 24.862 8.08704C25.0039 8.32424 25.3112 8.40149 25.5484 8.25957L25.0345 7.40057ZM28.3347 6.59255C28.5719 6.45063 28.6492 6.14329 28.5073 5.90608C28.3654 5.66888 28.058 5.59163 27.8208 5.73355L28.3347 6.59255ZM9.80093 17.9463C9.56372 18.0882 9.48647 18.3956 9.62839 18.6328C9.77031 18.87 10.0776 18.9472 10.3149 18.8053L9.80093 17.9463ZM30.173 6.92463C30.4102 6.78272 30.4875 6.47538 30.3456 6.23817C30.2037 6.00096 29.8963 5.92372 29.6591 6.06563L30.173 6.92463ZM11.8708 18.0248C11.6336 18.1668 11.5565 18.4742 11.6986 18.7113C11.8406 18.9485 12.148 19.0255 12.3851 18.8835L11.8708 18.0248ZM14.7111 17.4904C14.9482 17.3483 15.0253 17.0409 14.8833 16.8038C14.7412 16.5667 14.4338 16.4896 14.1967 16.6316L14.7111 17.4904ZM12.198 19.3389C11.9609 19.4809 11.8838 19.7883 12.0258 20.0254C12.1679 20.2625 12.4753 20.3396 12.7124 20.1976L12.198 19.3389ZM15.0383 18.8044C15.2755 18.6624 15.3526 18.355 15.2105 18.1179C15.0685 17.8808 14.7611 17.8037 14.524 17.9457L15.0383 18.8044ZM12.36 20.6529C12.1228 20.795 12.0457 21.1023 12.1877 21.3395C12.3298 21.5766 12.6372 21.6537 12.8743 21.5117L12.36 20.6529ZM15.2014 20.1179C15.4386 19.9759 15.5157 19.6685 15.3736 19.4314C15.2316 19.1943 14.9242 19.1172 14.6871 19.2592L15.2014 20.1179ZM12.5239 21.9668C12.2867 22.1087 12.2093 22.416 12.3512 22.6532C12.4931 22.8905 12.8004 22.9678 13.0376 22.826L12.5239 21.9668ZM15.3665 21.4334C15.6038 21.2915 15.6811 20.9842 15.5392 20.747C15.3974 20.5097 15.09 20.4324 14.8528 20.5743L15.3665 21.4334ZM16.3566 15.2991C16.1195 15.4412 16.0424 15.7485 16.1844 15.9857C16.3265 16.2228 16.6339 16.2999 16.871 16.1579L16.3566 15.2991ZM19.1969 14.7647C19.4341 14.6227 19.5112 14.3153 19.3691 14.0782C19.2271 13.841 18.9197 13.7639 18.6826 13.906L19.1969 14.7647ZM16.6839 16.6132C16.4468 16.7552 16.3697 17.0626 16.5117 17.2998C16.6538 17.5369 16.9611 17.614 17.1983 17.472L16.6839 16.6132ZM19.5242 16.0788C19.7614 15.9368 19.8385 15.6294 19.6964 15.3923C19.5544 15.1551 19.247 15.078 19.0099 15.2201L19.5242 16.0788ZM16.8458 17.9273C16.6087 18.0694 16.5316 18.3768 16.6737 18.6139C16.8158 18.851 17.1231 18.9281 17.3603 18.786L16.8458 17.9273ZM19.6874 17.3917C19.9245 17.2496 20.0015 16.9422 19.8595 16.7051C19.7174 16.468 19.41 16.3909 19.1729 16.533L19.6874 17.3917ZM17.0094 19.2412C16.7722 19.383 16.6948 19.6903 16.8366 19.9276C16.9785 20.1648 17.2858 20.2422 17.523 20.1003L17.0094 19.2412ZM19.8525 18.7078C20.0898 18.566 20.1671 18.2586 20.0253 18.0214C19.8835 17.7841 19.5761 17.7068 19.3389 17.8486L19.8525 18.7078ZM21.0075 12.6318C20.7704 12.7737 20.6932 13.0811 20.8352 13.3183C20.9772 13.5554 21.2846 13.6326 21.5217 13.4906L21.0075 12.6318ZM23.8477 12.098C24.0848 11.956 24.162 11.6487 24.02 11.4115C23.878 11.1744 23.5706 11.0972 23.3335 11.2392L23.8477 12.098ZM21.3347 13.9459C21.0976 14.0879 21.0205 14.3953 21.1625 14.6324C21.3046 14.8696 21.612 14.9467 21.8491 14.8046L21.3347 13.9459ZM24.175 13.4115C24.4122 13.2694 24.4893 12.9621 24.3472 12.7249C24.2052 12.4878 23.8978 12.4107 23.6607 12.5527L24.175 13.4115ZM21.4967 15.26C21.2595 15.402 21.1824 15.7094 21.3244 15.9465C21.4665 16.1836 21.7738 16.2607 22.011 16.1187L21.4967 15.26ZM24.3381 14.725C24.5753 14.583 24.6524 14.2756 24.5103 14.0384C24.3683 13.8013 24.0609 13.7242 23.8238 13.8662L24.3381 14.725ZM21.6602 16.573C21.423 16.7148 21.3456 17.0221 21.4874 17.2594C21.6293 17.4966 21.9366 17.574 22.1738 17.4321L21.6602 16.573ZM24.5033 16.0396C24.7406 15.8978 24.8179 15.5904 24.6761 15.3532C24.5343 15.1159 24.227 15.0386 23.9897 15.1804L24.5033 16.0396ZM25.5839 9.7721C25.3467 9.91409 25.2695 10.2214 25.4115 10.4586C25.5535 10.6958 25.8609 10.7729 26.098 10.6309L25.5839 9.7721ZM28.424 9.23838C28.6612 9.09639 28.7383 8.78903 28.5963 8.55186C28.4543 8.3147 28.147 8.23755 27.9098 8.37954L28.424 9.23838ZM25.911 11.0862C25.6739 11.2283 25.5968 11.5356 25.7389 11.7728C25.8809 12.0099 26.1883 12.087 26.4254 11.945L25.911 11.0862ZM28.7514 10.5518C28.9885 10.4098 29.0656 10.1024 28.9235 9.86527C28.7815 9.62814 28.4741 9.55104 28.237 9.69308L28.7514 10.5518ZM26.0729 12.4012C25.8358 12.5433 25.7587 12.8507 25.9008 13.0878C26.0429 13.3249 26.3503 13.402 26.5874 13.2599L26.0729 12.4012ZM28.9145 11.8656C29.1516 11.7235 29.2287 11.4161 29.0866 11.179C28.9445 10.9419 28.6371 10.8648 28.4 11.0069L28.9145 11.8656ZM26.2365 13.7142C25.9993 13.856 25.9219 14.1633 26.0638 14.4006C26.2056 14.6378 26.5129 14.7152 26.7502 14.5734L26.2365 13.7142ZM29.0796 13.1808C29.3169 13.039 29.3943 12.7317 29.2524 12.4944C29.1106 12.2571 28.8033 12.1798 28.566 12.3216L29.0796 13.1808ZM15.9883 15.0477C15.9474 14.7743 15.6926 14.5859 15.4192 14.6268C15.1459 14.6677 14.9574 14.9225 14.9983 15.1959L15.9883 15.0477ZM15.9608 21.6263C16.0017 21.8997 16.2565 22.0881 16.5299 22.0472C16.8033 22.0063 16.9917 21.7515 16.9508 21.4782L15.9608 21.6263ZM11.437 17.7717C11.3963 17.4983 11.1416 17.3096 10.8682 17.3504C10.5948 17.3911 10.4062 17.6457 10.4469 17.9191L11.437 17.7717ZM11.4047 24.349C11.4454 24.6224 11.7001 24.811 11.9735 24.7703C12.2469 24.7296 12.4355 24.4749 12.3948 24.2015L11.4047 24.349ZM20.544 12.3238C20.5032 12.0504 20.2486 11.8618 19.9752 11.9026C19.7018 11.9433 19.5132 12.198 19.5539 12.4714L20.544 12.3238ZM20.5123 18.9013C20.553 19.1747 20.8077 19.3633 21.0811 19.3225C21.3545 19.2818 21.5431 19.0271 21.5024 18.7537L20.5123 18.9013ZM25.0979 9.59953C25.0571 9.32614 24.8024 9.13758 24.529 9.17837C24.2556 9.21916 24.0671 9.47386 24.1079 9.74725L25.0979 9.59953ZM25.0674 16.1783C25.1082 16.4517 25.3629 16.6403 25.6363 16.5995C25.9097 16.5587 26.0982 16.304 26.0574 16.0306L25.0674 16.1783ZM29.6531 6.87557C29.6122 6.60218 29.3575 6.41368 29.0841 6.45453C28.8107 6.49538 28.6222 6.75012 28.6631 7.0235L29.6531 6.87557ZM29.6238 13.4528C29.6647 13.7262 29.9194 13.9147 30.1928 13.8738C30.4662 13.833 30.6547 13.5782 30.6138 13.3048L29.6238 13.4528ZM5.74714 11.7845C5.50875 11.9244 5.42892 12.2311 5.56885 12.4695C5.70877 12.7079 6.01545 12.7877 6.25384 12.6478L5.74714 11.7845ZM25.223 1.51389C25.4614 1.37397 25.5412 1.06729 25.4013 0.828897C25.2614 0.590508 24.9547 0.510685 24.7163 0.650607L25.223 1.51389ZM2.43167 19.9671L2.68398 19.5348L2.68388 19.5348L2.43167 19.9671ZM2.43167 16.6461L2.68398 16.2139L2.6835 16.2136L2.43167 16.6461ZM7.37931 17.7875L7.13766 17.3491L7.12786 17.3548L7.37931 17.7875ZM7.45398 17.7382L7.15843 17.3343C7.15403 17.3375 7.14969 17.3408 7.1454 17.3441L7.45398 17.7382ZM6.37743 14.356L6.6295 13.9236L6.62908 13.9234L6.37743 14.356ZM5.48315 14.198L5.31963 13.725C5.28885 13.7356 5.25918 13.7492 5.23104 13.7656L5.48315 14.198ZM1.31761 16.0475C1.07882 16.1868 0.998122 16.4932 1.13736 16.732C1.2766 16.9708 1.58305 17.0515 1.82184 16.9123L1.31761 16.0475ZM3.25612 19.6044C3.01712 19.7432 2.93594 20.0496 3.07481 20.2886C3.21368 20.5276 3.52001 20.6088 3.75901 20.4699L3.25612 19.6044ZM18.3892 7.69161L18.6413 8.12399L18.6417 8.12372L18.3892 7.69161ZM15.1478 5.80121L14.8955 5.36895L14.8955 5.36897L15.1478 5.80121ZM18.378 5.80715L18.1256 6.23935L18.1259 6.2395L18.378 5.80715ZM18.3892 6.06314L18.6415 6.4954L18.6417 6.49525L18.3892 6.06314ZM15.1584 6.0572L15.4106 5.62492L15.4104 5.6248L15.1584 6.0572ZM15.1478 4.17274L14.8955 3.74048L14.8955 3.7405L15.1478 4.17274ZM18.378 4.17868L18.1256 4.61088L18.1259 4.61103L18.378 4.17868ZM14.9646 5.11841C14.9646 4.84199 14.7405 4.61791 14.4641 4.61791C14.1877 4.61791 13.9636 4.84199 13.9636 5.11841H14.9646ZM13.9636 7.02248C13.9636 7.2989 14.1877 7.52298 14.4641 7.52298C14.7405 7.52298 14.9646 7.2989 14.9646 7.02248H13.9636ZM19.553 5.11839C19.553 4.84197 19.3289 4.61789 19.0525 4.61789C18.7761 4.61789 18.552 4.84197 18.552 5.11839H19.553ZM18.552 6.81275C18.552 7.08916 18.7761 7.31325 19.0525 7.31325C19.3289 7.31325 19.553 7.08916 19.553 6.81275H18.552ZM7.12141 21.8346C7.12141 21.9051 7.10886 21.9384 7.10542 21.9458C7.10395 21.949 7.10504 21.9456 7.11101 21.9388C7.11718 21.9319 7.12659 21.9235 7.13913 21.9163C7.15166 21.9091 7.16361 21.9051 7.17282 21.9032C7.18173 21.9015 7.1853 21.9022 7.18188 21.9019C7.1739 21.9012 7.13888 21.8954 7.0778 21.8599L6.57502 22.7255C6.88552 22.9058 7.28474 22.9878 7.63903 22.7835C7.99309 22.5795 8.12241 22.1932 8.12241 21.8346H7.12141ZM7.07823 21.8601C6.95225 21.7868 6.8101 21.6408 6.69828 21.4457C6.5865 21.2507 6.53199 21.0535 6.53199 20.9067H5.53099C5.53099 21.269 5.65404 21.6368 5.82978 21.9434C6.00547 22.25 6.26077 22.5425 6.57458 22.7252L7.07823 21.8601ZM6.53199 20.9067C6.53199 20.8358 6.54457 20.8023 6.54807 20.7947C6.54958 20.7915 6.54851 20.7948 6.54253 20.8016C6.53634 20.8086 6.52686 20.817 6.5142 20.8244C6.50152 20.8317 6.4894 20.8357 6.47997 20.8376C6.47085 20.8395 6.46709 20.8387 6.47033 20.839C6.47797 20.8397 6.51277 20.8454 6.57374 20.881L7.0779 20.0162C6.7678 19.8354 6.36835 19.7527 6.01371 19.9575C5.65974 20.1618 5.53099 20.5484 5.53099 20.9067H6.53199ZM6.57355 20.8809C6.70013 20.9548 6.84273 21.1011 6.95479 21.2962C7.06685 21.4913 7.12141 21.6882 7.12141 21.8346H8.12241C8.12241 21.4719 7.99882 21.1041 7.82278 20.7976C7.64674 20.4912 7.3913 20.1991 7.07808 20.0163L6.57355 20.8809ZM11.4218 24.5745L8.96242 20.2875L8.09416 20.7856L10.5536 25.0726L11.4218 24.5745ZM10.9923 21.5576L9.47417 19.8235L8.721 20.4828L10.2391 22.217L10.9923 21.5576ZM5.20061 19.0309L4.42921 21.096L5.36693 21.4463L6.13832 19.3812L5.20061 19.0309ZM7.51769 20.6936L8.28908 23.6581L9.25783 23.406L8.48643 20.4415L7.51769 20.6936ZM4.62581 15.0372C4.68509 14.6186 4.83678 14.3493 5.00997 14.1932C5.17717 14.0425 5.40541 13.9593 5.70763 13.9847L5.79133 12.9872C5.24397 12.9413 4.73403 13.0943 4.33973 13.4497C3.95142 13.7998 3.71829 14.3066 3.6347 14.8968L4.62581 15.0372ZM7.53591 15.0828C8.43834 16.0599 9.05289 17.4566 9.05289 18.6084H10.0539C10.0539 17.1557 9.30791 15.5261 8.27126 14.4037L7.53591 15.0828ZM9.05289 18.6084C9.05289 19.3768 8.78783 19.781 8.50466 19.9442C8.22188 20.1071 7.74064 20.1334 7.07804 19.7469L6.57368 20.6115C7.41743 21.1037 8.29994 21.2173 9.00434 20.8115C9.70835 20.406 10.0539 19.5855 10.0539 18.6084H9.05289ZM7.07839 19.7471C6.63335 19.487 6.20117 19.0927 5.82368 18.6101L5.03526 19.2269C5.47386 19.7876 5.99769 20.2749 6.57334 20.6113L7.07839 19.7471ZM2.78233 20.6741L6.57934 22.8312L7.07381 21.9609L3.27679 19.8037L2.78233 20.6741ZM6.57438 22.8284L10.7355 25.2558L11.2399 24.3912L7.07877 21.9637L6.57438 22.8284ZM10.9877 24.8235C11.4859 24.7755 11.4859 24.7755 11.4859 24.7754C11.4859 24.7753 11.4859 24.7752 11.4859 24.7751C11.4858 24.7749 11.4858 24.7746 11.4858 24.7742C11.4857 24.7734 11.4856 24.7723 11.4854 24.7708C11.4852 24.7679 11.4847 24.7636 11.4842 24.758C11.4831 24.7467 11.4814 24.7301 11.4792 24.7085C11.4749 24.6652 11.4684 24.6017 11.4598 24.5201C11.4426 24.3569 11.4169 24.1214 11.383 23.831C11.3152 23.2504 11.2143 22.4491 11.0818 21.5665C10.8193 19.8179 10.4252 17.6937 9.90223 16.3523L8.9696 16.7159C9.44679 17.9399 9.82851 19.9604 10.0919 21.7151C10.2224 22.5842 10.3219 23.3743 10.3888 23.9471C10.4222 24.2334 10.4474 24.4652 10.4643 24.6251C10.4727 24.705 10.4791 24.767 10.4833 24.8088C10.4854 24.8297 10.487 24.8455 10.488 24.8561C10.4885 24.8614 10.4889 24.8653 10.4892 24.8679C10.4893 24.8692 10.4894 24.8701 10.4894 24.8708C10.4895 24.8711 10.4895 24.8713 10.4895 24.8714C10.4895 24.8715 10.4895 24.8715 10.4895 24.8715C10.4895 24.8716 10.4895 24.8715 10.9877 24.8235ZM9.90248 16.353C9.5055 15.3306 8.94409 14.4915 8.33933 13.8422L7.60684 14.5244C8.12979 15.0859 8.62081 15.8176 8.96935 16.7153L9.90248 16.353ZM7.47376 14.2176C7.47511 14.2372 7.47686 14.2548 7.47827 14.268C7.47897 14.2746 7.47969 14.2811 7.48024 14.2861C7.48084 14.2915 7.48128 14.2955 7.48168 14.2992C7.48345 14.316 7.48248 14.3122 7.48263 14.3015L8.48353 14.3158C8.48427 14.2641 8.47978 14.2191 8.47714 14.1941C8.47357 14.1603 8.47304 14.1582 8.47241 14.149L7.47376 14.2176ZM7.48258 14.3087C7.48258 14.4189 7.4634 14.4974 7.44042 14.5536L8.36675 14.9329C8.44255 14.7478 8.48358 14.5394 8.48358 14.3087H7.48258ZM6.23151 13.3512C6.19015 13.2032 6.16982 13.0715 6.16982 12.9583H5.16882C5.16882 13.1861 5.20887 13.411 5.26745 13.6207L6.23151 13.3512ZM6.16982 12.9583C6.16982 12.9672 6.16895 12.9713 6.17031 12.9597C6.17066 12.9567 6.17105 12.9535 6.17164 12.9487C6.17217 12.9444 6.17289 12.9385 6.17361 12.9324C6.17507 12.9199 6.17691 12.9031 6.17837 12.884L5.18025 12.808C5.18025 12.808 5.18021 12.8086 5.18008 12.8099C5.17995 12.8112 5.17974 12.8131 5.1794 12.816C5.17905 12.819 5.17865 12.8222 5.17807 12.827C5.17754 12.8313 5.17682 12.8372 5.17611 12.8433C5.17321 12.868 5.16882 12.909 5.16882 12.9583H6.16982ZM5.72614 12.3477C5.01702 12.2811 4.30334 12.5063 3.80998 13.1991L4.62533 13.7798C4.87749 13.4257 5.21626 13.3052 5.63248 13.3443L5.72614 12.3477ZM3.81063 13.1982C3.46832 13.6765 3.20264 14.4491 2.99357 15.2393L3.96127 15.4954C4.16965 14.7077 4.39903 14.096 4.62468 13.7807L3.81063 13.1982ZM5.03526 19.2278C5.47386 19.7885 5.99769 20.2758 6.57334 20.6122L7.07839 19.7479C6.63335 19.4879 6.20117 19.0936 5.82368 18.611L5.03526 19.2278ZM6.57368 20.6124C7.41743 21.1046 8.29994 21.2182 9.00434 20.8124C9.70835 20.4068 10.0539 19.5863 10.0539 18.6093H9.05289C9.05289 19.3777 8.78783 19.7819 8.50466 19.945C8.22188 20.1079 7.74064 20.1342 7.07804 19.7477L6.57368 20.6124ZM10.0539 18.6093C10.0539 17.1566 9.30796 15.5264 8.27117 14.4044L7.536 15.0838C8.43828 16.0602 9.05289 17.4574 9.05289 18.6093H10.0539ZM5.79168 12.9872C5.24426 12.9409 4.7344 13.0936 4.34015 13.4491C3.95199 13.799 3.71906 14.3058 3.63517 14.8957L4.6262 15.0366C4.68577 14.6178 4.83745 14.3485 5.01042 14.1925C5.1773 14.0421 5.40511 13.9591 5.70729 13.9847L5.79168 12.9872ZM8.47219 14.146C8.43852 13.6962 8.27162 13.2366 8.03478 12.8435C7.79855 12.4514 7.47022 12.0883 7.07885 11.8601L6.57468 12.7249C6.78656 12.8484 7.00464 13.0734 7.17738 13.3601C7.34951 13.6458 7.45415 13.9557 7.47398 14.2207L8.47219 14.146ZM7.07912 11.8603C6.69041 11.6333 6.2324 11.5423 5.82497 11.7428C5.41187 11.9462 5.21553 12.3674 5.18041 12.8061L6.17821 12.886C6.18666 12.7805 6.21092 12.7164 6.23041 12.6822C6.24841 12.6507 6.26259 12.6431 6.26704 12.6409C6.26915 12.6399 6.35871 12.5988 6.57441 12.7247L7.07912 11.8603ZM31 12.8506C31.4982 12.8029 31.4982 12.8028 31.4982 12.8027C31.4982 12.8027 31.4982 12.8026 31.4982 12.8025C31.4982 12.8023 31.4981 12.802 31.4981 12.8016C31.498 12.8008 31.4979 12.7997 31.4978 12.7983C31.4975 12.7954 31.4971 12.7912 31.4966 12.7857C31.4955 12.7747 31.4939 12.7585 31.4918 12.7373C31.4875 12.695 31.4812 12.6329 31.4728 12.5531C31.4561 12.3936 31.431 12.1634 31.3979 11.8793C31.3317 11.3113 31.2328 10.5268 31.1025 9.66106C30.8441 7.94545 30.4542 5.85575 29.9318 4.51493L28.9991 4.87834C29.4762 6.10282 29.8536 8.09009 30.1126 9.81012C30.2409 10.6622 30.3383 11.4352 30.4037 11.9952C30.4363 12.2752 30.4609 12.5016 30.4773 12.6577C30.4855 12.7358 30.4917 12.7963 30.4957 12.8371C30.4978 12.8575 30.4993 12.8729 30.5003 12.8832C30.5008 12.8884 30.5012 12.8922 30.5014 12.8947C30.5016 12.896 30.5016 12.8969 30.5017 12.8975C30.5017 12.8978 30.5018 12.898 30.5018 12.8981C30.5018 12.8982 30.5018 12.8982 30.5018 12.8983C30.5018 12.8983 30.5018 12.8983 31 12.8506ZM29.9319 4.51514C29.5343 3.4935 28.973 2.65462 28.3684 2.00487L27.6356 2.68675C28.1587 3.24894 28.6498 3.98085 28.999 4.87814L29.9319 4.51514ZM27.5023 2.37328C27.4984 2.30339 27.5064 2.15737 27.6193 2.02339C27.737 1.88362 27.8888 1.85105 27.9736 1.84624C28.1081 1.83861 28.2079 1.88983 28.2104 1.89101C28.2554 1.91168 28.2874 1.93509 28.2884 1.93579C28.2974 1.94215 28.304 1.94726 28.3063 1.94908C28.3092 1.95139 28.3112 1.95303 28.3119 1.95356C28.313 1.95445 28.3103 1.95224 28.3004 1.9436C28.2812 1.92691 28.2556 1.90433 28.2167 1.87018C28.1422 1.80494 28.0352 1.71202 27.9091 1.60752C27.6619 1.40271 27.3222 1.13738 26.9984 0.94899L26.495 1.8142C26.7451 1.95968 27.0333 2.18181 27.2705 2.37831C27.3865 2.47447 27.4858 2.56067 27.557 2.62305C27.5908 2.6527 27.623 2.68106 27.6432 2.69868C27.653 2.7072 27.6655 2.71799 27.6768 2.72726C27.6803 2.73019 27.6944 2.74178 27.7118 2.75407C27.7141 2.75569 27.747 2.7797 27.7927 2.80066C27.7956 2.80199 27.8955 2.85328 28.0303 2.84564C28.1151 2.84082 28.2669 2.80823 28.3847 2.66841C28.4977 2.53439 28.5056 2.38831 28.5018 2.31833L27.5023 2.37328ZM26.9986 0.949072C26.6659 0.755358 26.3633 0.649218 26.141 0.589902C26.0296 0.560186 25.939 0.542379 25.8764 0.531362C25.8505 0.526799 25.8171 0.521361 25.8133 0.520707C25.8052 0.519341 25.8137 0.520604 25.8266 0.523572C25.8295 0.524244 25.8573 0.530382 25.8916 0.543773C25.9052 0.549099 25.9526 0.567706 26.0048 0.606042C26.0317 0.62574 26.2248 0.768192 26.208 1.04L25.2089 0.978199C25.192 1.2503 25.3853 1.39306 25.4126 1.41307C25.4653 1.45173 25.5133 1.47066 25.5278 1.47633C25.5639 1.49041 25.5944 1.49729 25.6008 1.49877C25.6206 1.50337 25.6396 1.50654 25.6453 1.50752C25.669 1.51155 25.6763 1.51251 25.7028 1.51719C25.7451 1.52464 25.8064 1.53665 25.8829 1.55706C26.0363 1.598 26.2531 1.67335 26.4949 1.81411L26.9986 0.949072ZM25.7552 0.510793C25.0462 0.444165 24.3326 0.66936 23.8392 1.36134L24.6543 1.94247C24.9064 1.58885 25.2453 1.46828 25.6616 1.5074L25.7552 0.510793ZM28.367 5.18237C27.9695 4.16028 27.4088 3.32126 26.8039 2.67182L26.0714 3.35406C26.5943 3.91539 27.0848 4.64715 27.4341 5.54518L28.367 5.18237ZM25.9379 3.04042C25.9341 2.97042 25.9421 2.82433 26.0551 2.69035C26.1729 2.55066 26.3246 2.51817 26.4093 2.51338C26.5437 2.50576 26.6434 2.55689 26.646 2.55808C26.691 2.57872 26.7229 2.6021 26.7239 2.60281C26.7329 2.60917 26.7395 2.61427 26.7418 2.61609C26.7448 2.6184 26.7468 2.62004 26.7474 2.62057C26.7485 2.62146 26.7458 2.61925 26.7359 2.61061C26.7167 2.59396 26.6911 2.57133 26.6521 2.5372C26.5776 2.47197 26.4706 2.37905 26.3445 2.27455C26.0972 2.06969 25.7574 1.80433 25.4339 1.61573L24.9298 2.48055C25.18 2.62642 25.4686 2.84881 25.7059 3.04541C25.822 3.14163 25.9214 3.22787 25.9927 3.29028C26.0266 3.31997 26.0587 3.34828 26.079 3.36594C26.0888 3.37446 26.1013 3.38526 26.1126 3.39452C26.1161 3.39745 26.1302 3.40903 26.1477 3.42132C26.15 3.42294 26.1828 3.44692 26.2285 3.46786C26.2314 3.4692 26.3313 3.5204 26.4659 3.51277C26.5506 3.50797 26.7024 3.47546 26.8203 3.33573C26.9333 3.20171 26.9413 3.05555 26.9374 2.98547L25.9379 3.04042ZM25.4333 1.61542C25.1007 1.42206 24.7981 1.31615 24.5761 1.25689C24.4648 1.2272 24.3744 1.20939 24.3122 1.19836C24.2969 1.19564 24.2835 1.19337 24.2728 1.19157C24.2607 1.18955 24.2552 1.18863 24.2503 1.18778C24.2425 1.18642 24.2519 1.18786 24.2659 1.19123C24.2693 1.19204 24.2986 1.19879 24.3346 1.21354C24.3493 1.21958 24.3977 1.23969 24.4505 1.28059C24.4844 1.30691 24.6581 1.44769 24.6431 1.70473L23.6438 1.64655C23.6289 1.90391 23.8027 2.045 23.8371 2.07167C23.8903 2.1129 23.9394 2.13336 23.955 2.13976C23.9927 2.15523 24.0247 2.16275 24.0316 2.16441C24.0526 2.16947 24.0725 2.17288 24.0785 2.17392C24.1089 2.17922 24.1045 2.17813 24.1372 2.18394C24.1799 2.19153 24.2414 2.20361 24.318 2.22405C24.4716 2.26504 24.6885 2.34033 24.9303 2.48085L25.4333 1.61542ZM24.1903 1.17733C23.4809 1.11067 22.7682 1.33615 22.2744 2.02839L23.0893 2.60969C23.3422 2.25515 23.6807 2.13486 24.0967 2.17394L24.1903 1.17733ZM25.2807 6.94986C24.8832 5.92777 24.3225 5.08875 23.7176 4.43931L22.9851 5.12155C23.5079 5.68288 23.9985 6.41464 24.3477 7.31266L25.2807 6.94986ZM22.8516 4.80791C22.8478 4.73801 22.8557 4.59199 22.9686 4.45802C23.0864 4.31824 23.2382 4.28567 23.3229 4.28087C23.4575 4.27323 23.5572 4.32445 23.5598 4.32563C23.6048 4.3463 23.6367 4.36971 23.6377 4.37041C23.6467 4.37677 23.6533 4.38188 23.6556 4.3837C23.6586 4.38601 23.6606 4.38765 23.6612 4.38818C23.6623 4.38906 23.6596 4.38685 23.6497 4.37821C23.6305 4.36151 23.605 4.33895 23.566 4.30478C23.4915 4.23953 23.3845 4.1466 23.2583 4.0421C23.011 3.83726 22.6712 3.57191 22.347 3.3835L21.844 4.24893C22.0943 4.3944 22.3826 4.61651 22.6198 4.81298C22.7359 4.90913 22.8351 4.99532 22.9063 5.05769C22.9402 5.08733 22.9723 5.1157 22.9926 5.13332C23.0023 5.14183 23.0148 5.15262 23.0261 5.16189C23.0297 5.16481 23.0437 5.1764 23.0612 5.18869C23.0635 5.19031 23.0964 5.21432 23.142 5.23528C23.1449 5.23661 23.2449 5.2879 23.3796 5.28026C23.4644 5.27545 23.6163 5.24286 23.7341 5.10304C23.847 4.96902 23.855 4.82293 23.8511 4.75295L22.8516 4.80791ZM22.3473 3.3837C22.0146 3.18998 21.7121 3.08386 21.4899 3.0245C21.3786 2.99476 21.2881 2.97692 21.226 2.96587C21.2106 2.96315 21.1973 2.96088 21.1865 2.95907C21.1745 2.95704 21.1689 2.95613 21.164 2.95527C21.1562 2.95391 21.1656 2.95535 21.1796 2.95872C21.183 2.95953 21.2123 2.96628 21.2483 2.98103C21.263 2.98707 21.3114 3.00718 21.3641 3.04808C21.3981 3.0744 21.5718 3.21517 21.5568 3.47221L20.5575 3.41404C20.5425 3.67139 20.7164 3.81249 20.7508 3.83915C20.804 3.88038 20.853 3.90084 20.8686 3.90724C20.9064 3.92271 20.9383 3.93023 20.9452 3.93189C20.9662 3.93695 20.9861 3.94037 20.9921 3.9414C21.0222 3.94665 21.0184 3.94567 21.0508 3.95142C21.0935 3.95901 21.1549 3.9711 21.2315 3.99156C21.385 4.0326 21.6019 4.10798 21.8436 4.24874L22.3473 3.3837ZM21.104 2.94482C20.3943 2.87814 19.6825 3.10381 19.1883 3.79558L20.0027 4.37748C20.2564 4.02245 20.5946 3.90237 21.0103 3.94143L21.104 2.94482ZM23.5263 8.06353C23.1284 7.04178 22.5683 6.20273 21.9626 5.55305L21.2305 6.23567C21.7536 6.79675 22.2437 7.52847 22.5936 8.42684L23.5263 8.06353ZM21.0969 5.92344C21.0926 5.84993 21.1015 5.69025 21.2319 5.55153C21.3628 5.41244 21.5222 5.39393 21.5968 5.39397C21.7219 5.39406 21.8133 5.44344 21.815 5.44428C21.8561 5.46426 21.8853 5.48601 21.8863 5.48672C21.8946 5.49267 21.9006 5.4974 21.9027 5.49906C21.9054 5.50117 21.9072 5.50264 21.9077 5.50306C21.9083 5.50358 21.9053 5.50106 21.8953 5.49236C21.8756 5.47515 21.8506 5.45305 21.8113 5.41854C21.7367 5.35318 21.6297 5.26023 21.5035 5.15573C21.2562 4.95086 20.9164 4.68564 20.5925 4.49703L20.0888 5.36207C20.3393 5.50793 20.6278 5.73017 20.865 5.92661C20.981 6.02276 21.0803 6.10893 21.1514 6.17126C21.1849 6.2006 21.2176 6.22949 21.2373 6.24668C21.247 6.25518 21.2592 6.26571 21.27 6.27466C21.2735 6.27756 21.2867 6.28849 21.3029 6.30013C21.3052 6.30177 21.3354 6.32414 21.3771 6.34444C21.3792 6.34543 21.4708 6.39489 21.5961 6.39497C21.6707 6.39502 21.8302 6.37649 21.9611 6.23736C22.0916 6.09861 22.1005 5.93886 22.0962 5.86527L21.0969 5.92344ZM20.5922 4.49683C20.2595 4.30348 19.957 4.19756 19.7349 4.1383C19.6237 4.10861 19.5332 4.09081 19.471 4.07977C19.4557 4.07705 19.4424 4.07478 19.4316 4.07298C19.4196 4.07096 19.414 4.07004 19.4091 4.06919C19.4013 4.06783 19.4108 4.06927 19.4248 4.07264C19.4282 4.07346 19.4575 4.0802 19.4935 4.09495C19.5082 4.10099 19.5566 4.12111 19.6093 4.162C19.6433 4.18833 19.817 4.3291 19.802 4.58614L18.8027 4.52796C18.7877 4.78532 18.9616 4.92642 18.996 4.95308C19.0492 4.99431 19.0982 5.01477 19.1138 5.02117C19.1516 5.03664 19.1835 5.04416 19.1904 5.04582C19.2114 5.05089 19.2314 5.0543 19.2373 5.05534C19.2678 5.06064 19.2633 5.05954 19.2961 5.06536C19.3388 5.07294 19.4002 5.08502 19.4768 5.10546C19.6305 5.14646 19.8474 5.22174 20.0892 5.36226L20.5922 4.49683ZM19.3492 4.05875C18.6395 3.99206 17.9277 4.21774 17.4334 4.9095L18.2479 5.49141C18.5016 5.13638 18.8398 5.01629 19.2555 5.05536L19.3492 4.05875ZM20.6522 9.71291C20.2548 8.69082 19.6941 7.8518 19.0892 7.20237L18.3567 7.88461C18.8795 8.44594 19.3701 9.1777 19.7193 10.0757L20.6522 9.71291ZM18.2232 7.57097C18.2193 7.50097 18.2273 7.35487 18.3403 7.22089C18.4582 7.0812 18.6099 7.04872 18.6945 7.04392C18.829 7.0363 18.9286 7.08743 18.9312 7.08862C18.9762 7.10927 19.0081 7.13265 19.0091 7.13336C19.0182 7.13971 19.0247 7.14481 19.027 7.14663C19.03 7.14894 19.032 7.15058 19.0326 7.15111C19.0337 7.15199 19.031 7.14978 19.0211 7.14115C19.0019 7.12448 18.9763 7.10187 18.9374 7.06773C18.8629 7.0025 18.7558 6.90959 18.6296 6.80511C18.3823 6.60031 18.0425 6.33503 17.7188 6.14667L17.2154 7.01188C17.4655 7.1574 17.7539 7.37957 17.9912 7.57608C18.1073 7.67226 18.2067 7.75846 18.278 7.82085C18.3118 7.85052 18.344 7.87885 18.3643 7.8965C18.3741 7.90502 18.3865 7.91581 18.3978 7.92507C18.4014 7.928 18.4155 7.93958 18.4329 7.95187C18.4352 7.95349 18.4681 7.97747 18.5137 7.99841C18.5166 7.99975 18.6165 8.05095 18.7512 8.04332C18.8359 8.03852 18.9876 8.00601 19.1055 7.86628C19.2185 7.73225 19.2265 7.58609 19.2227 7.51601L18.2232 7.57097ZM17.7189 6.14675C17.3862 5.95303 17.0836 5.84692 16.8615 5.78756C16.7502 5.75782 16.6597 5.73998 16.5975 5.72893C16.5822 5.7262 16.5688 5.72393 16.5581 5.72213C16.546 5.7201 16.5405 5.71918 16.5356 5.71833C16.5278 5.71697 16.5372 5.71841 16.5512 5.72178C16.5546 5.72259 16.5839 5.72934 16.6199 5.74409C16.6346 5.75013 16.683 5.77024 16.7357 5.81113C16.7697 5.83746 16.9434 5.97823 16.9284 6.23527L15.9291 6.1771C15.9141 6.43445 16.088 6.57555 16.1224 6.60221C16.1756 6.64344 16.2246 6.6639 16.2402 6.6703C16.278 6.68577 16.3099 6.69329 16.3168 6.69495C16.3378 6.70001 16.3577 6.70342 16.3637 6.70446C16.3938 6.70971 16.39 6.70872 16.4224 6.71448C16.4651 6.72207 16.5265 6.73416 16.6031 6.75462C16.7566 6.79566 16.9735 6.87104 17.2152 7.0118L17.7189 6.14675ZM16.4756 5.70788C15.7662 5.64122 15.0534 5.86669 14.5596 6.55894L15.3745 7.14024C15.6274 6.78569 15.9659 6.6654 16.3819 6.70449L16.4756 5.70788ZM19.0409 10.7657C18.6429 9.74392 18.0829 8.90487 17.4772 8.25519L16.745 8.93781C17.2682 9.49889 17.7582 10.2306 18.1081 11.129L19.0409 10.7657ZM16.6114 8.62558C16.6072 8.55207 16.616 8.39239 16.7465 8.25367C16.8773 8.11458 17.0368 8.09607 17.1113 8.09611C17.2365 8.0962 17.3278 8.14558 17.3295 8.14642C17.3706 8.1664 17.3999 8.18815 17.4009 8.18886C17.4092 8.19481 17.4152 8.19954 17.4173 8.2012C17.4199 8.20331 17.4217 8.20478 17.4222 8.2052C17.4229 8.20572 17.4198 8.2032 17.4099 8.1945C17.3901 8.17729 17.3652 8.15519 17.3258 8.12068C17.2512 8.05532 17.1442 7.96237 17.0181 7.85787C16.7707 7.653 16.431 7.38778 16.1071 7.19917L15.6034 8.06421C15.8539 8.21007 16.1424 8.43231 16.3795 8.62875C16.4956 8.7249 16.5949 8.81107 16.666 8.8734C16.6994 8.90274 16.7321 8.93163 16.7518 8.94881C16.7616 8.95732 16.7737 8.96785 16.7846 8.9768C16.7881 8.9797 16.8012 8.99063 16.8175 9.00227C16.8198 9.00391 16.85 9.02628 16.8917 9.04658C16.8937 9.04757 16.9853 9.09703 17.1106 9.09711C17.1853 9.09716 17.3448 9.07863 17.4756 8.9395C17.6061 8.80075 17.615 8.641 17.6107 8.56741L16.6114 8.62558ZM16.1069 7.19908C15.7745 7.00567 15.472 6.89972 15.25 6.84046C15.1388 6.81076 15.0483 6.79295 14.9862 6.78191C14.9709 6.77919 14.9575 6.77693 14.9468 6.77512C14.9347 6.7731 14.9292 6.77218 14.9243 6.77133C14.9165 6.76997 14.9259 6.77141 14.9399 6.77478C14.9433 6.7756 14.9726 6.78234 15.0086 6.79709C15.0233 6.80313 15.0717 6.82325 15.1245 6.86414C15.1584 6.89047 15.3321 7.03124 15.3171 7.28828L14.3178 7.2301C14.3028 7.48746 14.4767 7.62855 14.5111 7.65522C14.5643 7.69645 14.6133 7.71691 14.629 7.72331C14.6667 7.73878 14.6987 7.7463 14.7056 7.74796C14.7266 7.75302 14.7465 7.75644 14.7524 7.75747C14.7828 7.76277 14.7785 7.76169 14.8112 7.76749C14.8539 7.77508 14.9153 7.78716 14.9918 7.80759C15.1454 7.84857 15.3621 7.92383 15.6035 8.06429L16.1069 7.19908ZM14.8643 6.76088C14.1542 6.69422 13.4423 6.9198 12.948 7.61164L13.7625 8.19355C14.0161 7.83859 14.3543 7.71841 14.7707 7.7575L14.8643 6.76088ZM16.1319 12.4795C15.7344 11.4574 15.1737 10.6183 14.5689 9.96891L13.8364 10.6511C14.3592 11.2125 14.8497 11.9442 15.199 12.8423L16.1319 12.4795ZM13.7029 10.3375C13.699 10.2676 13.707 10.1216 13.8198 9.98761C13.9376 9.84784 14.0894 9.81527 14.1741 9.81046C14.3087 9.80283 14.4085 9.85405 14.411 9.85523C14.456 9.8759 14.488 9.8993 14.489 9.90001C14.498 9.90637 14.5045 9.91147 14.5069 9.91329C14.5098 9.91561 14.5118 9.91725 14.5125 9.91777C14.5135 9.91866 14.5109 9.91645 14.5009 9.90781C14.4817 9.89111 14.4562 9.86855 14.4172 9.83437C14.3428 9.76913 14.2357 9.6762 14.1096 9.5717C13.8623 9.36686 13.5224 9.10151 13.1982 8.9131L12.6952 9.77853C12.9455 9.924 13.2338 10.1461 13.471 10.3426C13.5871 10.4387 13.6864 10.5249 13.7576 10.5873C13.7914 10.6169 13.8236 10.6453 13.8438 10.6629C13.8536 10.6714 13.8661 10.6822 13.8774 10.6915C13.8809 10.6944 13.895 10.706 13.9124 10.7183C13.9147 10.7199 13.9476 10.7439 13.9932 10.7649C13.9961 10.7662 14.0961 10.8175 14.2308 10.8099C14.3157 10.805 14.4675 10.7725 14.5853 10.6326C14.6983 10.4986 14.7062 10.3525 14.7024 10.2825L13.7029 10.3375ZM13.1986 8.91329C12.8659 8.71957 12.5633 8.61346 12.3412 8.5541C12.2299 8.52435 12.1394 8.50652 12.0772 8.49547C12.0619 8.49274 12.0485 8.49047 12.0377 8.48866C12.0257 8.48664 12.0201 8.48572 12.0152 8.48487C12.0074 8.48351 12.0169 8.48494 12.0308 8.48831C12.0342 8.48913 12.0635 8.49587 12.0995 8.51063C12.1143 8.51666 12.1627 8.53678 12.2154 8.57767C12.2493 8.604 12.423 8.74477 12.4081 9.00181L11.4088 8.94363C11.3938 9.20099 11.5677 9.34209 11.602 9.36875C11.6552 9.40998 11.7043 9.43044 11.7199 9.43684C11.7576 9.45231 11.7896 9.45983 11.7965 9.46149C11.8175 9.46655 11.8374 9.46996 11.8433 9.471C11.8734 9.47624 11.8696 9.47526 11.902 9.48102C11.9447 9.48861 12.0062 9.5007 12.0827 9.52116C12.2363 9.5622 12.4532 9.63758 12.6949 9.77833L13.1986 8.91329ZM11.9552 8.47442C11.2456 8.40773 10.5337 8.63341 10.0395 9.32517L10.854 9.90708C11.1076 9.55205 11.4459 9.43196 11.8616 9.47103L11.9552 8.47442ZM14.4042 13.3497C14.0067 12.3276 13.446 11.4886 12.8412 10.8392L12.1087 11.5214C12.6315 12.0827 13.1221 12.8145 13.4713 13.7125L14.4042 13.3497ZM11.9752 11.2078C11.9713 11.1378 11.9793 10.9917 12.0923 10.8577C12.2101 10.718 12.3619 10.6855 12.4465 10.6807C12.5809 10.6731 12.6806 10.7242 12.6832 10.7254C12.7282 10.7461 12.7601 10.7694 12.7611 10.7701C12.7701 10.7765 12.7767 10.7816 12.779 10.7834C12.782 10.7857 12.784 10.7874 12.7846 10.7879C12.7857 10.7888 12.783 10.7866 12.7731 10.7779C12.7539 10.7613 12.7283 10.7387 12.6893 10.7045C12.6148 10.6393 12.5078 10.5464 12.3816 10.4419C12.1343 10.2371 11.7945 9.97182 11.4707 9.78346L10.9673 10.6487C11.2175 10.7942 11.5059 11.0164 11.7432 11.2129C11.8593 11.3091 11.9587 11.3953 12.0299 11.4576C12.0638 11.4873 12.0959 11.5156 12.1162 11.5333C12.126 11.5418 12.1385 11.5526 12.1498 11.5619C12.1534 11.5648 12.1674 11.5764 12.1849 11.5887C12.1872 11.5903 12.2201 11.6143 12.2657 11.6352C12.2686 11.6365 12.3685 11.6877 12.5031 11.6801C12.5878 11.6753 12.7396 11.6428 12.8575 11.5031C12.9705 11.369 12.9785 11.2229 12.9747 11.1528L11.9752 11.2078ZM11.4709 9.78355C11.1382 9.58983 10.8356 9.48371 10.6135 9.42435C10.5022 9.39461 10.4117 9.37677 10.3495 9.36572C10.3342 9.363 10.3208 9.36073 10.3101 9.35892C10.298 9.3569 10.2924 9.35598 10.2875 9.35512C10.2797 9.35376 10.2892 9.3552 10.3032 9.35857C10.3065 9.35938 10.3358 9.36613 10.3718 9.38088C10.3866 9.38692 10.435 9.40703 10.4877 9.44793C10.5217 9.47425 10.6953 9.61503 10.6804 9.87206L9.68106 9.81389C9.66608 10.0712 9.83996 10.2123 9.87435 10.239C9.92753 10.2802 9.97658 10.3007 9.99218 10.3071C10.0299 10.3226 10.0619 10.3301 10.0688 10.3317C10.0898 10.3368 10.1097 10.3402 10.1157 10.3413C10.1457 10.3465 10.142 10.3455 10.1743 10.3513C10.217 10.3589 10.2785 10.371 10.355 10.3914C10.5086 10.4325 10.7255 10.5078 10.9672 10.6486L11.4709 9.78355ZM10.2275 9.34467C9.51816 9.27801 8.8054 9.50348 8.3116 10.1957L9.12652 10.777C9.37943 10.4225 9.71792 10.3022 10.1339 10.3413L10.2275 9.34467ZM11.6043 15.0456C11.2063 14.0238 10.6463 13.1848 10.0408 12.5347L9.30828 13.2169C9.83157 13.7787 10.3217 14.5105 10.6716 15.4089L11.6043 15.0456ZM9.17478 12.9033C9.17093 12.8334 9.17887 12.6874 9.29176 12.5534C9.40954 12.4136 9.56131 12.3811 9.64606 12.3762C9.78064 12.3686 9.88037 12.4198 9.88294 12.421C9.92794 12.4417 9.95988 12.4651 9.96088 12.4658C9.96991 12.4722 9.97646 12.4773 9.97878 12.4791C9.98174 12.4814 9.98374 12.483 9.98438 12.4836C9.98546 12.4844 9.98278 12.4822 9.97285 12.4736C9.95366 12.4569 9.92814 12.4343 9.88914 12.4002C9.81467 12.3349 9.70765 12.242 9.58149 12.1375C9.33421 11.9326 8.99431 11.6673 8.67016 11.4789L8.16714 12.3443C8.41742 12.4898 8.70575 12.7119 8.94294 12.9084C9.05902 13.0045 9.15831 13.0907 9.2295 13.1531C9.26333 13.1827 9.29549 13.2111 9.31572 13.2287C9.32551 13.2372 9.33798 13.248 9.34927 13.2573C9.35283 13.2602 9.36688 13.2718 9.38432 13.2841C9.38662 13.2857 9.41952 13.3097 9.46516 13.3307C9.46806 13.332 9.56803 13.3833 9.70276 13.3756C9.78758 13.3708 9.93942 13.3382 10.0572 13.1984C10.1702 13.0644 10.1781 12.9183 10.1743 12.8483L9.17478 12.9033ZM8.67049 11.4791C8.33774 11.2853 8.03522 11.1793 7.8131 11.1201C7.70183 11.0904 7.61138 11.0727 7.54919 11.0617C7.53387 11.059 7.5205 11.0567 7.50974 11.0549C7.4977 11.0529 7.49214 11.052 7.48725 11.0511C7.47943 11.0498 7.48889 11.0512 7.50291 11.0546C7.5063 11.0554 7.53567 11.0621 7.57173 11.0769C7.58649 11.0829 7.63498 11.103 7.68782 11.144C7.72204 11.1705 7.89552 11.3113 7.88056 11.5682L6.88126 11.51C6.86628 11.7672 7.03997 11.9083 7.07462 11.9352C7.12789 11.9765 7.17704 11.9969 7.19268 12.0033C7.2305 12.0188 7.26251 12.0263 7.26941 12.028C7.29044 12.033 7.31036 12.0364 7.31629 12.0374C7.34605 12.0426 7.34283 12.0417 7.37487 12.0474C7.41745 12.0549 7.47876 12.0669 7.55519 12.0873C7.70849 12.1282 7.92513 12.2034 8.16681 12.3441L8.67049 11.4791ZM7.42769 11.0408C6.7176 10.9741 6.00571 11.1997 5.51142 11.8916L6.32591 12.4735C6.5795 12.1185 6.9177 11.9983 7.33413 12.0374L7.42769 11.0408ZM30.743 12.4211L10.7612 24.3758L11.2752 25.2348L31.257 13.2801L30.743 12.4211ZM11.8849 16.433L14.6741 14.7648L14.1603 13.9058L11.3711 15.574L11.8849 16.433ZM16.4388 13.7091L19.2269 12.0415L18.7131 11.1825L15.925 12.8501L16.4388 13.7091ZM20.9933 10.986L23.7797 9.31778L23.2655 8.45895L20.4791 10.1272L20.9933 10.986ZM25.5484 8.25957L28.3347 6.59255L27.8208 5.73355L25.0345 7.40057L25.5484 8.25957ZM10.3149 18.8053L30.173 6.92463L29.6591 6.06563L9.80093 17.9463L10.3149 18.8053ZM12.3851 18.8835L14.7111 17.4904L14.1967 16.6316L11.8708 18.0248L12.3851 18.8835ZM12.7124 20.1976L15.0383 18.8044L14.524 17.9457L12.198 19.3389L12.7124 20.1976ZM12.8743 21.5117L15.2014 20.1179L14.6871 19.2592L12.36 20.6529L12.8743 21.5117ZM13.0376 22.826L15.3665 21.4334L14.8528 20.5743L12.5239 21.9668L13.0376 22.826ZM16.871 16.1579L19.1969 14.7647L18.6826 13.906L16.3566 15.2991L16.871 16.1579ZM17.1983 17.472L19.5242 16.0788L19.0099 15.2201L16.6839 16.6132L17.1983 17.472ZM17.3603 18.786L19.6874 17.3917L19.1729 16.533L16.8458 17.9273L17.3603 18.786ZM17.523 20.1003L19.8525 18.7078L19.3389 17.8486L17.0094 19.2412L17.523 20.1003ZM21.5217 13.4906L23.8477 12.098L23.3335 11.2392L21.0075 12.6318L21.5217 13.4906ZM21.8491 14.8046L24.175 13.4115L23.6607 12.5527L21.3347 13.9459L21.8491 14.8046ZM22.011 16.1187L24.3381 14.725L23.8238 13.8662L21.4967 15.26L22.011 16.1187ZM22.1738 17.4321L24.5033 16.0396L23.9897 15.1804L21.6602 16.573L22.1738 17.4321ZM26.098 10.6309L28.424 9.23838L27.9098 8.37954L25.5839 9.7721L26.098 10.6309ZM26.4254 11.945L28.7514 10.5518L28.237 9.69308L25.911 11.0862L26.4254 11.945ZM26.5874 13.2599L28.9145 11.8656L28.4 11.0069L26.0729 12.4012L26.5874 13.2599ZM26.7502 14.5734L29.0796 13.1808L28.566 12.3216L26.2365 13.7142L26.7502 14.5734ZM14.9983 15.1959L15.9608 21.6263L16.9508 21.4782L15.9883 15.0477L14.9983 15.1959ZM10.4469 17.9191L11.4047 24.349L12.3948 24.2015L11.437 17.7717L10.4469 17.9191ZM19.5539 12.4714L20.5123 18.9013L21.5024 18.7537L20.544 12.3238L19.5539 12.4714ZM24.1079 9.74725L25.0674 16.1783L26.0574 16.0306L25.0979 9.59953L24.1079 9.74725ZM28.6631 7.0235L29.6238 13.4528L30.6138 13.3048L29.6531 6.87557L28.6631 7.0235ZM6.25384 12.6478L25.223 1.51389L24.7163 0.650607L5.74714 11.7845L6.25384 12.6478ZM0.4995 17.4719C0.4995 18.038 0.694361 18.632 0.985385 19.1392C1.27639 19.6464 1.69072 20.1143 2.17946 20.3994L2.68388 19.5348C2.38241 19.3589 2.08091 19.0372 1.85363 18.6411C1.62637 18.245 1.5005 17.8218 1.5005 17.4719H0.4995ZM2.17936 20.3993C2.66533 20.683 3.22404 20.7761 3.69411 20.5054C4.16381 20.2349 4.36443 19.7052 4.36443 19.1425H3.36343C3.36343 19.4965 3.24332 19.6099 3.19459 19.6379C3.14623 19.6658 2.98881 19.7128 2.68398 19.5348L2.17936 20.3993ZM4.36443 19.1425C4.36443 18.5758 4.16961 17.9817 3.87846 17.4743C3.58732 16.967 3.17285 16.4992 2.68398 16.2139L2.17936 17.0784C2.48129 17.2546 2.78294 17.5764 3.01024 17.9725C3.23752 18.3686 3.36343 18.7919 3.36343 19.1425H4.36443ZM2.6835 16.2136C2.19766 15.9307 1.63914 15.8379 1.16933 16.1087C0.699814 16.3794 0.4995 16.9091 0.4995 17.4719H1.5005C1.5005 17.1174 1.62062 17.004 1.66924 16.976C1.71756 16.9481 1.87489 16.9011 2.17984 17.0786L2.6835 16.2136ZM7.62089 18.2258C7.66975 18.1989 7.71749 18.1675 7.76256 18.1323L7.1454 17.3441C7.14343 17.3457 7.14061 17.3476 7.13772 17.3492L7.62089 18.2258ZM7.74952 18.1421C8.14366 17.8537 8.31078 17.3677 8.31078 16.8524H7.30978C7.30978 17.1748 7.20761 17.2983 7.15843 17.3343L7.74952 18.1421ZM8.31078 16.8524C8.31078 16.2857 8.11577 15.6914 7.82447 15.1839C7.5332 14.6765 7.11853 14.2087 6.6295 13.9236L6.12536 14.7884C6.42713 14.9643 6.72889 15.2861 6.95634 15.6823C7.18376 16.0785 7.30978 16.5019 7.30978 16.8524H8.31078ZM6.62908 13.9234C6.21362 13.6817 5.7485 13.5767 5.31963 13.725L5.64667 14.671C5.70933 14.6494 5.86509 14.637 6.12578 14.7887L6.62908 13.9234ZM18.1371 7.25923C17.7872 7.46324 17.296 7.57938 16.7767 7.57846C16.2575 7.57754 15.7642 7.45971 15.4106 7.25339L14.9061 8.11795C15.4474 8.43384 16.1248 8.5783 16.7749 8.57946C17.4248 8.58062 18.1016 8.43863 18.6413 8.12399L18.1371 7.25923ZM15.4106 7.25339C15.0545 7.04558 14.9854 6.84214 14.9849 6.7394C14.9843 6.63834 15.0493 6.43826 15.4001 6.23344L14.8955 5.36897C14.3579 5.68279 13.9807 6.16384 13.9839 6.7448C13.987 7.32408 14.3674 7.80356 14.9061 8.11795L15.4106 7.25339ZM15.4001 6.23346C15.7499 6.02928 16.2409 5.91314 16.7602 5.91413C17.2792 5.91512 17.7724 6.03307 18.1256 6.23935L18.6304 5.37494C18.0894 5.05901 17.4122 4.91437 16.7621 4.91313C16.1122 4.9119 15.4353 5.05389 14.8955 5.36895L15.4001 6.23346ZM18.1259 6.2395C18.4824 6.44744 18.5515 6.6508 18.5521 6.7533C18.5526 6.85419 18.4877 7.0543 18.1366 7.2595L18.6417 8.12372C19.179 7.80968 19.5563 7.32867 19.553 6.74769C19.5498 6.16832 19.169 5.68906 18.6302 5.3748L18.1259 6.2395ZM18.1369 5.63089C17.7871 5.83506 17.296 5.9512 16.7767 5.95021C16.2576 5.94922 15.7643 5.83128 15.4106 5.62492L14.9061 6.48948C15.4474 6.80533 16.1246 6.94997 16.7748 6.95121C17.4248 6.95245 18.1017 6.81046 18.6415 6.4954L18.1369 5.63089ZM15.4104 5.6248C15.0545 5.41735 14.9854 5.21398 14.9849 5.11116C14.9843 5.00993 15.0494 4.80973 15.4001 4.60497L14.8955 3.7405C14.3578 4.05438 13.9807 4.53561 13.9839 5.11655C13.987 5.6959 14.3674 6.17544 14.9063 6.4896L15.4104 5.6248ZM15.4001 4.60499C15.7499 4.40081 16.2409 4.28467 16.7602 4.28566C17.2792 4.28665 17.7724 4.4046 18.1256 4.61088L18.6304 3.74647C18.0894 3.43054 17.4122 3.2859 16.7621 3.28466C16.1122 3.28343 15.4353 3.42542 14.8955 3.74048L15.4001 4.60499ZM18.1259 4.61103C18.4824 4.81897 18.5515 5.02233 18.5521 5.12483C18.5526 5.22572 18.4877 5.42583 18.1366 5.63103L18.6417 6.49525C19.179 6.18121 19.5563 5.7002 19.553 5.11922C19.5498 4.53985 19.169 4.0606 18.6302 3.74633L18.1259 4.61103ZM13.9636 5.11841V7.02248H14.9646V5.11841H13.9636ZM18.552 5.11839V6.81275H19.553V5.11839H18.552ZM3.75901 20.4699L7.63075 18.2203L7.12786 17.3548L3.25612 19.6044L3.75901 20.4699ZM5.23104 13.7656L1.31761 16.0475L1.82184 16.9123L5.73526 14.6304L5.23104 13.7656Z" fill="#006946"/>
</svg>
