<svg width="26" height="21" viewBox="0 0 26 21" fill="none" xmlns="http://www.w3.org/2000/svg">
<path d="M4.00768 14.4998C2.17239 14.8718 1 15.2543 1 15.2543M1 15.2543V16.4194H4.00768M1 15.2543L4.00768 12.4035M20.1051 15.2543C20.1051 15.2543 14.9329 13.807 10.5521 13.807C9.59487 13.807 8.66104 13.8583 7.77502 13.94M20.1051 15.2543V16.4194M20.1051 15.2543L24.9998 10.6209M7.77502 16.4194H20.1051M20.1051 16.4194L25 11.7856M24.9998 10.6209C24.9998 10.6209 19.6598 8.72633 15.2785 8.72633C11.332 8.72633 8.74919 9.03562 7.77502 9.17657M24.9998 10.6209L24.9998 11.7853M7.77502 10.0781C7.77502 10.0781 10.3982 9.69062 11.7648 9.69062L8.94012 12.6746M7.77502 12.8285C8.11767 12.7374 8.57886 12.6751 8.93994 12.6751M16.3178 8.76871L11.2612 13.8149M14.7785 8.76871L9.72184 13.8149M7.77613 18.7624C8.63525 18.9208 9.19655 19.1832 9.19655 19.4801C9.19655 19.9632 7.71736 20.3546 5.89203 20.3546C4.0667 20.3546 2.58751 19.9632 2.58751 19.4801C2.58751 19.1832 3.14931 18.9208 4.00793 18.7624M7.77611 1.49778V19.2311M7.77611 1.49778C7.77611 1.7727 6.93247 1.99609 5.89205 1.99609C4.85114 1.99609 4.00796 1.77296 4.00796 1.49804C4.00796 1.22312 4.85114 1 5.89205 1C6.93247 1 7.77611 1.22286 7.77611 1.49778ZM7.77615 4.15774C7.77615 4.43365 6.93247 4.65677 5.89205 4.65677C4.85114 4.65677 4.00796 4.43365 4.00796 4.15774M7.77615 4.90115C7.77615 5.17657 6.93247 5.40019 5.89205 5.40019C4.85114 5.40019 4.00796 5.17657 4.00796 4.90115M7.77615 7.16911C7.77615 7.44453 6.93247 7.66765 5.89205 7.66765C4.85114 7.66765 4.00796 7.44453 4.00796 7.16911M7.77615 7.90719C7.77615 8.18211 6.93247 8.40523 5.89205 8.40523C4.85114 8.40523 4.00796 8.18211 4.00796 7.90719M7.77615 10.1807C7.77615 10.4561 6.93247 10.6793 5.89205 10.6793C4.85114 10.6793 4.00796 10.4561 4.00796 10.1807M7.77615 10.9329C7.77615 11.2083 6.93247 11.4314 5.89205 11.4314C4.85114 11.4314 4.00796 11.2083 4.00796 10.9329M7.77615 19.2316C7.77615 19.5065 6.93247 19.7301 5.89205 19.7301C4.85114 19.7301 4.00796 19.5065 4.00796 19.2316M4.00759 1.49778V19.2311M16.6057 13.3111C16.2416 13.2369 15.8825 13.1965 15.4796 13.1423C15.2749 13.1149 15.011 13.1094 14.7809 13.0671H14.7784L18.1496 9.92789C18.7607 9.92789 19.5003 10.0922 20.0387 10.2118C21.1912 10.4688 21.8924 10.7676 21.8924 10.7676L21.8944 10.7925L18.701 13.8156C18.701 13.8156 17.7901 13.5546 16.6057 13.3111Z" stroke="#006946" stroke-width="1.001" stroke-miterlimit="10" stroke-linecap="round" stroke-linejoin="round"/>
</svg>
