<svg width="19" height="22" viewBox="0 0 19 22" fill="none" xmlns="http://www.w3.org/2000/svg">
<path d="M15.6818 8.44926V6.37037C15.6818 3.40926 12.9085 1 9.5 1C6.0915 1 3.31818 3.40926 3.31818 6.37037V8.44926C2.00416 8.6663 1 9.76407 1 11.0852V18.323C1 19.7989 2.25298 21 3.79302 21H15.207C16.747 21 18 19.7989 18 18.3226V11.0848C18 9.76407 16.9958 8.6663 15.6818 8.44926ZM4.09091 6.37037C4.09091 3.81741 6.51727 1.74074 9.5 1.74074C12.4827 1.74074 14.9091 3.81741 14.9091 6.37037V8.40741H4.09091V6.37037ZM17.2273 18.3226C17.2273 19.3904 16.3209 20.2593 15.207 20.2593H3.79302C2.67914 20.2593 1.77273 19.3904 1.77273 18.3226V11.0848C1.77273 10.017 2.67914 9.14815 3.79302 9.14815H15.207C16.3209 9.14815 17.2273 10.017 17.2273 11.0848V18.3226Z" fill="#8B8D8D"/>
<path d="M9.55506 12.4286C8.70274 12.4286 8.00961 13.093 8.00961 13.9101V16.1323C8.00961 16.9493 8.70274 17.6138 9.55506 17.6138C10.4074 17.6138 11.1005 16.9493 11.1005 16.1323V13.9101C11.1005 13.093 10.4074 12.4286 9.55506 12.4286ZM10.3278 16.1323C10.3278 16.5408 9.98122 16.873 9.55506 16.873C9.1289 16.873 8.78233 16.5408 8.78233 16.1323V13.9101C8.78233 13.5015 9.1289 13.1693 9.55506 13.1693C9.98122 13.1693 10.3278 13.5015 10.3278 13.9101V16.1323Z" fill="#8B8D8D"/>
<path d="M15.6818 8.44926V6.37037C15.6818 3.40926 12.9085 1 9.5 1C6.0915 1 3.31818 3.40926 3.31818 6.37037V8.44926C2.00416 8.6663 1 9.76407 1 11.0852V18.323C1 19.7989 2.25298 21 3.79302 21H15.207C16.747 21 18 19.7989 18 18.3226V11.0848C18 9.76407 16.9958 8.6663 15.6818 8.44926ZM4.09091 6.37037C4.09091 3.81741 6.51727 1.74074 9.5 1.74074C12.4827 1.74074 14.9091 3.81741 14.9091 6.37037V8.40741H4.09091V6.37037ZM17.2273 18.3226C17.2273 19.3904 16.3209 20.2593 15.207 20.2593H3.79302C2.67914 20.2593 1.77273 19.3904 1.77273 18.3226V11.0848C1.77273 10.017 2.67914 9.14815 3.79302 9.14815H15.207C16.3209 9.14815 17.2273 10.017 17.2273 11.0848V18.3226Z" stroke="#8B8D8D" stroke-width="0.6"/>
<path d="M9.55506 12.4286C8.70274 12.4286 8.00961 13.093 8.00961 13.9101V16.1323C8.00961 16.9493 8.70274 17.6138 9.55506 17.6138C10.4074 17.6138 11.1005 16.9493 11.1005 16.1323V13.9101C11.1005 13.093 10.4074 12.4286 9.55506 12.4286ZM10.3278 16.1323C10.3278 16.5408 9.98122 16.873 9.55506 16.873C9.1289 16.873 8.78233 16.5408 8.78233 16.1323V13.9101C8.78233 13.5015 9.1289 13.1693 9.55506 13.1693C9.98122 13.1693 10.3278 13.5015 10.3278 13.9101V16.1323Z" stroke="#8B8D8D" stroke-width="0.6"/>
</svg>
