<svg width="14" height="16" viewBox="0 0 14 16" fill="none" xmlns="http://www.w3.org/2000/svg">
<path d="M11.1482 6.21448V4.75926C11.1482 2.68648 9.28728 1 7.00009 1C4.71291 1 2.85194 2.68648 2.85194 4.75926V6.21448C1.9702 6.36641 1.29639 7.13485 1.29639 8.05963V13.1261C1.29639 14.1592 2.13716 15 3.17057 15H10.8296C11.863 15 12.7038 14.1592 12.7038 13.1258V8.05937C12.7038 7.13485 12.03 6.36641 11.1482 6.21448ZM3.37046 4.75926C3.37046 2.97219 4.99861 1.51852 7.00009 1.51852C9.00157 1.51852 10.6297 2.97219 10.6297 4.75926V6.18518H3.37046V4.75926ZM12.1853 13.1258C12.1853 13.8733 11.5771 14.4815 10.8296 14.4815H3.17057C2.42313 14.4815 1.81491 13.8733 1.81491 13.1258V8.05937C1.81491 7.31193 2.42313 6.7037 3.17057 6.7037H10.8296C11.5771 6.7037 12.1853 7.31193 12.1853 8.05937V13.1258Z" fill="#F7901E" stroke="#F7901E"/>
</svg>
