<svg width="9" height="5" viewBox="0 0 9 5" fill="none" xmlns="http://www.w3.org/2000/svg">
<path d="M4.85118 4.01175L8.85622 0.88812C8.94893 0.815874 9 0.719432 9 0.616599C9 0.513766 8.94893 0.417325 8.85622 0.345079L8.56135 0.115045C8.3692 -0.0346391 8.05691 -0.0346391 7.86506 0.115045L4.50187 2.73803L1.13494 0.112135C1.04224 0.0398889 0.918651 -3.3894e-07 0.786871 -3.44467e-07C0.654945 -3.5e-07 0.531361 0.0398889 0.438581 0.112135L0.143779 0.342168C0.0510721 0.414471 -2.3378e-08 0.510856 -2.80839e-08 0.613689C-3.27898e-08 0.716522 0.0510721 0.812963 0.143779 0.885209L4.15248 4.01175C4.24548 4.08416 4.36965 4.12394 4.50165 4.12371C4.63416 4.12394 4.75825 4.08416 4.85118 4.01175Z" fill="#006843"/>
</svg>
