<svg width="106" height="68" viewBox="0 0 106 68" fill="none" xmlns="http://www.w3.org/2000/svg">
<path d="M70.6473 37.8819L61.7024 33.9064C61.0705 33.6256 60.6625 32.9973 60.6625 32.3061V29.8497C63.6672 27.4556 65.5986 23.7688 65.5986 19.6372V16.1795C66.5885 15.6325 67.2438 14.5755 67.2438 13.3917V13.0561C67.2438 5.85702 61.3868 0 54.1877 0H50.8972C43.6981 0 37.8411 5.85702 37.8411 13.0561V16.1009C37.8411 17.1415 38.2889 18.0842 39.0695 18.6874C39.2019 18.7896 39.3412 18.8795 39.4863 18.9573V19.637C39.4863 23.7686 41.4174 27.4554 44.422 29.8493V32.3059C44.422 32.9971 44.0138 33.6254 43.382 33.9062L34.4371 37.8817C31.5077 39.1836 29.6147 42.0964 29.6147 45.3021V65.704C29.6147 66.5542 30.304 67.2434 31.1541 67.2434C32.0042 67.2434 32.6934 66.5542 32.6934 65.704V45.3023C32.6934 45.1239 32.7061 44.9476 32.7246 44.7727L36.8463 48.8944C37.4877 49.536 37.8411 50.3888 37.8411 51.2962V65.7042C37.8411 66.5544 38.5303 67.2436 39.3804 67.2436C40.2305 67.2436 40.9197 66.5544 40.9197 65.7042V51.2962C40.9197 49.5666 40.2463 47.9407 39.0233 46.7176L34.1096 41.8037C34.5523 41.3444 35.0834 40.9636 35.6877 40.695L44.4817 36.7865L51.0033 43.3081V65.704C51.0033 66.5542 51.6925 67.2434 52.5426 67.2434C53.3928 67.2434 54.082 66.5542 54.082 65.704V43.3083L60.6036 36.7867L69.3974 40.695C70.0016 40.9636 70.5328 41.3444 70.9755 41.8039L66.0618 46.7176C64.8388 47.9407 64.1654 49.5666 64.1654 51.2962V65.7042C64.1654 66.5544 64.8546 67.2436 65.7047 67.2436C66.5548 67.2436 67.244 66.5544 67.244 65.7042V51.2962C67.244 50.389 67.5972 49.536 68.2388 48.8944L72.3603 44.7729C72.3788 44.9478 72.3915 45.1237 72.3915 45.3021V65.704C72.3915 66.5542 73.0807 67.2434 73.9308 67.2434C74.7809 67.2434 75.4701 66.5542 75.4701 65.704V45.3023C75.4695 42.0966 73.5768 39.1838 70.6473 37.8819ZM52.542 40.4938L46.8197 34.7713C47.2548 34.0392 47.5004 33.1921 47.5004 32.3061V31.6797C49.0527 32.3319 50.756 32.6934 52.5422 32.6934C54.3285 32.6934 56.0316 32.3321 57.5836 31.6799V32.3061C57.5836 33.1923 57.8293 34.0392 58.2646 34.7715L52.542 40.4938ZM52.5422 29.6145C47.0407 29.6147 42.5648 25.1388 42.5648 19.6372V18.945C43.5253 18.5642 44.4628 17.9584 45.3604 17.1302C45.9849 16.5537 46.0241 15.5798 45.4474 14.955C44.8709 14.3305 43.8972 14.2913 43.2722 14.8678C42.5024 15.5786 41.7331 16.0377 40.9864 16.2327C40.9684 16.2374 40.955 16.2394 40.9456 16.2403C40.9345 16.2187 40.9195 16.1736 40.9195 16.1011V13.0563C40.9195 7.55479 45.3955 3.07885 50.897 3.07885H54.1875C59.6892 3.07885 64.1649 7.55479 64.1649 13.0563V13.3919C64.1649 13.4418 64.135 13.4851 64.0956 13.4929C54.8779 15.3134 50.2546 11.8823 48.6948 10.3225C48.0936 9.72134 47.1189 9.72134 46.5179 10.3225C45.9168 10.9236 45.9168 11.8983 46.5179 12.4993C51.2981 17.2794 58.2732 17.3656 62.5197 16.8554V19.637C62.5197 25.1386 58.0438 29.6145 52.5422 29.6145Z" fill="#F7901E"/>
<path d="M27.7575 29.5092V26.2181C27.7575 22.2023 25.6706 18.6672 22.526 16.6329C22.7202 16.01 22.8216 15.3575 22.8216 14.7013C22.8216 11.1309 19.917 8.22632 16.3466 8.22632C12.7762 8.22632 9.87157 11.1311 9.87157 14.7013C9.87157 15.3657 9.97214 16.0118 10.1667 16.6333C7.02239 18.6674 4.93568 22.2025 4.93568 26.2181V29.5086C4.93568 33.3973 6.89227 36.836 9.87137 38.897V42.2821C9.87137 42.9497 9.50049 43.5499 8.90344 43.8485L3.57923 46.5105C1.37143 47.6147 0 49.8338 0 52.3023V65.7044C0 66.5545 0.689206 67.2438 1.53932 67.2438C2.38944 67.2438 3.07865 66.5545 3.07865 65.7044V52.9681L5.58631 55.4757C6.22769 56.1173 6.58112 56.9701 6.58112 57.8775V65.7044C6.58112 66.5545 7.27032 67.2438 8.12044 67.2438C8.97056 67.2438 9.65976 66.5545 9.65976 65.7044V57.8775C9.65976 56.1479 8.98616 54.522 7.76332 53.2989L4.27316 49.8088C4.25633 49.7919 4.23827 49.7774 4.22103 49.7616C4.44002 49.5682 4.6857 49.3999 4.95621 49.2645L10.2804 46.6025C10.5532 46.466 10.8071 46.3049 11.0437 46.1259L14.8073 49.8896V65.7046C14.8073 66.5547 15.4965 67.2439 16.3466 67.2439C17.1967 67.2439 17.8859 66.5547 17.8859 65.7046V49.8894L21.6497 46.1257C21.8865 46.3049 22.1402 46.466 22.413 46.6023L23.8811 47.3364C24.1021 47.447 24.3369 47.4994 24.5684 47.4994C25.133 47.4994 25.6767 47.1874 25.9464 46.6482C26.3267 45.8878 26.0185 44.9632 25.258 44.5831L23.7899 43.8489C23.1927 43.5503 22.8218 42.9502 22.8218 42.2827V38.8976C25.8009 36.8366 27.7575 33.3977 27.7575 29.5092ZM16.3466 11.305C18.2194 11.305 19.7429 12.8287 19.7429 14.7013C19.7429 14.9076 19.7245 15.1098 19.6892 15.3078C18.6313 14.9831 17.5093 14.8072 16.3466 14.8072C15.1855 14.8072 14.0649 14.9825 13.0087 15.3064C12.9732 15.1083 12.9502 14.9072 12.9502 14.7013C12.9502 12.8285 14.4737 11.305 16.3466 11.305ZM16.3466 17.8861C20.9409 17.8861 24.6788 21.624 24.6788 26.2183V26.7762C18.2701 28.7383 14.4508 23.8632 14.2876 23.6495C14.0197 23.2926 13.6103 23.0693 13.1653 23.0377C12.7203 23.0065 12.2832 23.1692 11.9677 23.4847C10.4984 24.954 9.05922 25.6627 8.01987 26.0049C8.13378 21.5088 11.8238 17.8861 16.3466 17.8861ZM16.3466 47.0747L12.7895 43.5177C12.8934 43.1207 12.9502 42.7069 12.9502 42.2823V40.4033C14.0234 40.7387 15.1644 40.9195 16.3466 40.9195C17.5288 40.9195 18.6697 40.7387 19.7429 40.4033V42.2823C19.7429 42.7069 19.7998 43.1209 19.9036 43.5177L16.3466 47.0747ZM16.3466 37.8408C11.7522 37.8408 8.01433 34.1029 8.01433 29.5086V29.1896C9.24189 28.9076 11.062 28.2523 12.9607 26.7253C13.6324 27.3591 14.5926 28.1365 15.8152 28.8034C17.2614 29.5921 19.2586 30.3218 21.6981 30.3218C22.6252 30.3218 23.6171 30.214 24.6657 29.9665C24.427 34.3488 20.7872 37.8408 16.3466 37.8408Z" fill="#C2C6C6"/>
<path d="M101.505 43.2204L92.8907 38.9129C92.2936 38.6143 91.9227 38.0142 91.9227 37.3467V35.1652C93.9392 33.3749 95.2132 30.7658 95.2132 27.8637V26.1115C95.2487 26.1115 95.2836 26.1125 95.3191 26.1125C96.1692 26.1125 96.8584 25.4233 96.8584 24.5732V21.2828C96.8584 15.898 92.4775 11.5171 87.0927 11.5171H83.8023C78.4175 11.5171 74.0366 15.898 74.0366 21.2828V24.5732C74.0366 25.4233 74.7258 26.1125 75.5759 26.1125C75.5887 26.1125 75.6256 26.1121 75.6818 26.1099V27.8637C75.6818 30.766 76.956 33.3751 78.9725 35.1654V37.3469C78.9725 38.0146 78.6016 38.6147 78.0044 38.9131C77.244 39.2932 76.9357 40.2179 77.316 40.9783C77.5857 41.5177 78.1294 41.8296 78.694 41.8296C78.9253 41.8296 79.1601 41.7773 79.3811 41.6669C79.6539 41.5304 79.9078 41.3693 80.1444 41.1903L83.9082 44.9541V65.7048C83.9082 66.5549 84.5974 67.2441 85.4475 67.2441C86.2976 67.2441 86.9868 66.5549 86.9868 65.7048V44.9536L90.7504 41.1899C90.9872 41.3691 91.2409 41.5302 91.5137 41.6665L99.8496 45.8346L97.3212 48.3629C96.0984 49.586 95.4248 51.2119 95.4248 52.9415V65.7043C95.4248 66.5545 96.114 67.2437 96.9641 67.2437C97.8142 67.2437 98.5034 66.5545 98.5034 65.7043V52.9415C98.5034 52.0343 98.8567 51.1813 99.4982 50.5398L101.893 48.1448C101.966 48.4233 102.006 48.7137 102.006 49.0117V65.7043C102.006 66.5545 102.695 67.2437 103.545 67.2437C104.395 67.2437 105.084 66.5545 105.084 65.7043V49.0117C105.085 46.5435 103.713 44.3244 101.505 43.2204ZM77.1151 22.7172V21.2826H77.1153C77.1153 17.5954 80.1151 14.5955 83.8023 14.5955H87.0927C90.7799 14.5955 93.7798 17.5954 93.7798 21.2826V22.9924C87.0882 22.6314 83.0501 20.0275 83.0109 20.0018C82.7504 19.8282 82.4532 19.7432 82.1575 19.7432C81.7601 19.7432 81.3661 19.8968 81.0684 20.1941C79.5956 21.667 78.1526 22.3759 77.1151 22.7172ZM85.4475 42.1392L81.8904 38.5821C81.9943 38.1851 82.0512 37.7714 82.0512 37.3467V37.0189C83.1094 37.4128 84.2536 37.6291 85.4475 37.6291C86.6414 37.6291 87.7856 37.4128 88.8439 37.0189V37.3467C88.8439 37.7714 88.9005 38.1851 89.0046 38.5821L85.4475 42.1392ZM85.4475 34.5507C81.7603 34.5507 78.7605 31.5511 78.7605 27.8637V25.3821C79.8386 24.9513 81.0947 24.2664 82.373 23.1774C83.9895 24.0184 87.3715 25.4722 92.1345 25.9524V27.8637C92.1345 31.5509 89.1347 34.5507 85.4475 34.5507Z" fill="#C2C6C6"/>
</svg>
