<svg width="26" height="25" viewBox="0 0 26 25" fill="none" xmlns="http://www.w3.org/2000/svg">
<path d="M2.71931 13.5135L1.00181 12.522V7.92467M1.00181 7.92467L5.00734 10.2379V12.2244M1.00181 7.92467L3.88962 12.9069M3.16687 13.2915C3.11356 13.2663 3.05829 13.2387 3.00449 13.2066C2.12452 12.6993 1.41136 11.4699 1.41136 10.4606C1.41136 9.45132 2.12452 9.04514 3.00449 9.55299C3.88299 10.0603 4.59614 11.2897 4.59614 12.2995C4.59614 12.3706 4.59318 12.4397 4.58578 12.5053M5.00698 10.2375L1.00145 12.4189M5.00698 10.2375L5.00696 12.2242M5.00698 10.2375L9.01299 12.551M5.00698 10.2375L5.88644 11.7538M3.00439 9.0803V13.3588M1.00145 10.2229L4.7686 12.398M9.01299 12.551V17.1477M9.01299 12.551L8.12542 13.0334M6.01874 11.6903C6.29117 11.5985 6.63566 11.6493 7.01025 11.8655C7.88924 12.3733 8.60239 13.6027 8.60239 14.612C8.60239 15.1164 8.42423 15.4703 8.136 15.6346L9.01328 17.147M9.01328 17.147L13.0192 19.4605M9.01328 17.147L9.01321 12.5505M9.01328 17.147L7.19912 16.1002M9.01328 17.147L9.01335 21.7443M9.01328 17.147L5.00733 19.3289M9.01328 17.147L9.01321 21.7438L13.0192 24.057M9.01328 17.147L13.0192 24.057M7.01063 11.3933V11.8651M8.60293 14.6119L9.01306 14.8488M13.0192 19.4605V14.8627M13.0192 19.4605L9.01321 12.5505M13.0192 19.4605V24.057M9.01321 12.5505L13.0192 14.8627M13.0192 14.8627L9.01284 17.0451M11.0169 13.7072V22.901M9.01321 14.8495L13.0192 17.1622M5.00698 19.4308V17.3595L8.09812 15.5824C8.12626 15.5671 8.15439 15.5488 8.18104 15.5295C8.42386 15.3529 8.57143 15.0217 8.57143 14.5657C8.57143 13.5687 7.86666 12.3531 6.99754 11.8517C6.6264 11.6375 6.28488 11.5877 6.01491 11.6805L1.71572 14.161M5.00698 19.4308L1.00145 17.1181V12.5213L2.74856 13.5301M5.00698 19.4308L4.05628 17.7898M1.00145 12.5217L1.93324 14.1287M1.52213 16.7329L1.00145 17.0162M9.01335 21.7443L5.00733 19.4311M9.01335 21.7443L6.10549 16.729M6.79628 16.3546C6.86636 16.3847 6.93792 16.4192 7.01047 16.4617C7.88946 16.9695 8.60262 18.1994 8.60262 19.2082C8.60262 20.217 7.88946 20.6236 7.01047 20.1158C6.13099 19.6079 5.41832 18.379 5.41832 17.3703C5.41832 17.2799 5.42375 17.1941 5.43461 17.1136M7.01063 16.2086V20.5883M5.20325 17.2463L13.0192 21.7587M13.0194 19.4609L9.01284 21.6423M16.9875 17.1473L12.9815 19.4605M16.9875 17.1473L16.988 12.551M16.9875 17.1473V21.7452L12.9815 24.0585V19.4605M16.9875 17.1473L12.9815 23.9558M12.9815 19.4605V14.8647L16.988 12.551M12.9815 19.4605L16.9872 21.745M16.988 12.551L12.9819 19.3585M12.9811 14.8644L20.9939 19.4325M14.9848 13.7082V18.3045M12.9811 17.1629L25 10.2241M20.9939 14.835L16.9874 17.1477M20.9939 14.835V10.2387M20.9939 14.835L25 12.5218M20.9939 14.835V19.4325M20.9939 14.835L24.9995 17.1196M16.9874 17.1477L16.9879 12.5515L20.9939 10.2387M16.9874 17.1477V21.7457L20.9939 19.4325M20.9939 10.2387L25 7.92503M16.9877 12.5507L20.9938 14.8343M20.9938 14.8343L16.9874 21.6423M20.9938 14.8343L20.9939 19.4325M20.9938 14.8343L25 12.5218M16.9881 17.0451L20.9941 10.2382L25 12.5218M18.9903 11.3947V15.991M25 12.5218V7.92503M25 12.5218L24.9995 17.1191L20.9939 19.4325M25 12.5218L20.994 19.3296M25 7.92503L20.994 14.7324M22.9973 9.082V18.2756M14.9849 18.304L14.9844 22.9017M12.9811 21.7595L20.9939 17.1333M18.9903 15.9905V20.5883M20.994 17.134L25 14.8208M12.9686 5.6116L8.9626 3.29839M12.9686 5.6116L16.9495 3.3132L12.943 1M12.9686 5.6116L12.943 1M12.9686 5.6116L5.07022 5.54645M12.9686 5.6116L8.98769 7.90986M12.9686 5.6116L16.9748 7.92491L12.9939 10.2233M8.9626 3.29839L12.943 1M8.9626 3.29839L4.98166 5.59666L8.98769 7.90986M8.9626 3.29839L12.9688 5.61112M8.9626 3.29839L8.98769 7.90986M16.9497 3.31261L9.05116 3.24697M16.9497 3.31261L12.9688 5.61112M16.9497 3.31261L20.9557 5.62593M16.9497 3.31261L16.9749 7.92432M14.9474 2.15648L3.00439 9.05213M10.9532 2.1489L18.9654 6.77555M16.9749 7.92432L12.9688 5.61112M16.9749 7.92432L20.9557 5.62593M16.9749 7.92432L20.9806 10.2378M16.9749 7.92432L9.07683 7.85819M16.9749 7.92432L12.994 10.2226M16.9749 7.92432L20.9802 10.2376L16.9998 12.536M16.9749 7.92432L16.9998 12.536M12.9688 5.61112L8.98769 7.90986M12.9688 5.61112L12.994 10.2226M20.9557 5.62593L13.0578 5.55992M20.9557 5.62593L24.9625 7.93888M18.953 4.46943L10.9916 9.06659M20.9806 10.2378L24.9625 7.93888M20.9806 10.2378L20.956 5.62617M20.9806 10.2378L13.0823 10.1721M24.9625 7.93888L17.0644 7.87265M22.9589 6.78242L11.0161 13.6783M18.9654 6.77507L22.9719 9.08827M8.98769 7.90986L12.9939 10.2233M8.98769 7.90986L1.08928 7.84373M8.98769 7.90986L9.01222 12.5209M6.97231 4.44766L18.9905 11.3873M12.9939 10.2233L8.98738 7.91046M12.9939 10.2233L9.01227 12.5216M12.9939 10.2233L5.0948 10.1572M12.9939 10.2233L16.9998 12.536M12.994 10.2226L16.9998 12.536M12.994 10.2226L13.0194 14.8343M16.9998 12.536L13.0195 14.835L9.01227 12.5216M16.9998 12.536L9.10141 12.4699M5.00603 10.2089L1 7.89565L4.98135 5.59725M5.00603 10.2089L8.98738 7.91046M5.00603 10.2089L4.98135 5.59725M5.00603 10.2089L9.01227 12.5216M4.98135 5.59725L8.98738 7.91046M2.99065 6.74616L15.0088 13.6855M10.9913 9.06695L7.0099 11.3649M3.84446 18.0283L5.00673 17.3601M12.6089 16.9253C12.6089 17.9335 11.8962 18.3397 11.0167 17.8319C10.1372 17.3245 9.42457 16.0946 9.42457 15.0858C9.42457 14.0771 10.1372 13.6709 11.0162 14.1792C11.8962 14.6861 12.6089 15.915 12.6089 16.9253ZM12.6089 21.5225C12.6089 22.5308 11.8962 22.9365 11.0162 22.4297C10.1372 21.9218 9.42457 20.6914 9.42457 19.6831C9.42457 18.6744 10.1372 18.2677 11.0167 18.7755C11.8957 19.2824 12.6089 20.5123 12.6089 21.5225ZM16.5763 15.0864C16.5763 16.0951 15.8641 17.3245 14.9841 17.8324C14.1056 18.3407 13.3925 17.9341 13.3925 16.9258C13.3925 15.9165 14.1052 14.6861 14.9841 14.1792C15.8641 13.6714 16.5763 14.0781 16.5763 15.0864ZM20.583 12.7733C20.583 13.7821 19.8709 15.012 18.9904 15.5194C18.1114 16.0272 17.3987 15.62 17.3987 14.6117C17.3987 13.6035 18.1114 12.3731 18.9904 11.8657C19.8709 11.3574 20.583 11.7645 20.583 12.7733ZM24.589 10.4602C24.589 11.4695 23.8764 12.6989 22.9969 13.2062C22.1179 13.7146 21.4042 13.3079 21.4042 12.2991C21.4042 11.2903 22.1179 10.0599 22.9964 9.55258C23.8764 9.04473 24.589 9.4514 24.589 10.4602ZM16.5763 19.6839C16.5763 20.6927 15.8641 21.9216 14.9841 22.4295C14.1052 22.9378 13.3925 22.5321 13.3925 21.5228C13.3925 20.5136 14.1056 19.2832 14.9841 18.7763C15.8641 18.2685 16.5763 18.6741 16.5763 19.6839ZM20.583 17.3706C20.583 18.3799 19.8709 19.6088 18.9904 20.1166C18.1114 20.624 17.3987 20.2183 17.3987 19.2095C17.3987 18.1997 18.1114 16.9699 18.9904 16.4625C19.8709 15.9546 20.583 16.3613 20.583 17.3706ZM24.589 15.0576C24.589 16.0678 23.8764 17.2957 22.9964 17.8036C22.1179 18.3114 21.4042 17.9058 21.4042 16.897C21.4042 15.8877 22.1179 14.6573 22.9969 14.1504C23.8764 13.6426 24.589 14.0483 24.589 15.0576ZM14.5481 4.225C13.6745 4.72939 12.2531 4.72692 11.3741 4.21907C10.4946 3.71122 10.4897 2.89146 11.3643 2.38608C12.2378 1.88169 13.6592 1.88416 14.5382 2.3925C15.4187 2.89936 15.4221 3.7206 14.5481 4.225ZM18.5544 6.5379C17.6809 7.0423 16.26 7.03934 15.38 6.53198C14.5005 6.02364 14.4966 5.20338 15.3701 4.69899C16.2442 4.1946 17.6651 4.19707 18.545 4.70491C19.4245 5.21227 19.4285 6.03302 18.5544 6.5379ZM22.5609 8.85135C21.6869 9.35575 20.266 9.35278 19.386 8.84543C18.507 8.33709 18.5026 7.51683 19.3766 7.01244C20.2502 6.50805 21.6716 6.51051 22.551 7.01836C23.43 7.52572 23.435 8.34696 22.5609 8.85135ZM10.5671 6.52308C9.69307 7.02796 8.27267 7.025 7.39319 6.51715C6.51371 6.00931 6.50877 5.18905 7.38332 4.68466C8.25638 4.17977 9.67777 4.18273 10.5572 4.69008C11.4367 5.19744 11.4412 6.01868 10.5671 6.52308ZM14.5738 8.83689C13.6997 9.34129 12.2789 9.33833 11.3989 8.83097C10.5204 8.32263 10.515 7.50237 11.389 6.99798C12.2631 6.49359 13.6839 6.49605 14.5634 7.0039C15.4429 7.51126 15.4478 8.33201 14.5738 8.83689ZM18.5798 11.1492C17.7057 11.6541 16.2853 11.6511 15.4049 11.1438C14.5259 10.6354 14.521 9.81565 15.3955 9.31077C16.2686 8.80637 17.6904 8.80884 18.5694 9.3162C19.4489 9.82404 19.4533 10.6453 18.5798 11.1492ZM6.58606 8.82243C5.7125 9.32683 4.29112 9.32387 3.41115 8.81651C2.53216 8.30866 2.52821 7.48791 3.40128 6.98352C4.27533 6.47913 5.69622 6.4816 6.57619 6.98944C7.45567 7.4968 7.46011 8.31755 6.58606 8.82243ZM10.5924 11.1352C9.71831 11.6396 8.29743 11.6366 7.41795 11.1292C6.53847 10.6209 6.53402 9.80064 7.40807 9.29625C8.28213 8.79185 9.70351 8.79432 10.5825 9.30168C11.462 9.80952 11.4664 10.6303 10.5924 11.1352ZM14.5981 13.4485C13.7241 13.9529 12.3032 13.9504 11.4232 13.4421C10.5442 12.9342 10.5393 12.1145 11.4138 11.6096C12.2874 11.1052 13.7088 11.1076 14.5878 11.6155C15.4682 12.1228 15.4722 12.9441 14.5981 13.4485ZM1.08928 15.2398C1.08928 16.2363 1.79356 17.4519 2.66218 17.9533C3.5308 18.4547 4.23557 18.0535 4.23557 17.056C4.23557 16.0591 3.5308 14.844 2.66218 14.3426C1.79307 13.8412 1.08928 14.2424 1.08928 15.2398Z" stroke="#006946" stroke-width="1.001" stroke-miterlimit="10" stroke-linecap="round" stroke-linejoin="round"/>
</svg>
