<svg width="26" height="26" viewBox="0 0 26 26" fill="none" xmlns="http://www.w3.org/2000/svg">
<path d="M21.6897 19.2396C21.9313 18.8955 22.1634 18.5414 22.3706 18.1638C22.5877 17.7719 22.7715 17.3709 22.9388 16.9665M18.3173 22.2804C18.6804 22.0668 19.039 21.8407 19.3831 21.5847C19.7427 21.3172 20.0769 21.0274 20.3972 20.73M13.9895 23.6506C14.4069 23.6067 14.8263 23.5485 15.2456 23.4588C15.6849 23.3642 16.1082 23.2392 16.5231 23.1007M9.48082 23.1014C9.87976 23.2359 10.2857 23.3574 10.7055 23.4496C11.1428 23.5442 11.5801 23.6064 12.0154 23.6528M5.60574 20.7354C5.91353 21.0217 6.23328 21.3001 6.57594 21.5586C6.93603 21.8261 7.30708 22.0637 7.6846 22.2863M3.06102 16.9753C3.22139 17.3638 3.39621 17.7497 3.6014 18.1273C3.81805 18.5192 4.05712 18.8888 4.30863 19.2484M21.6897 6.76165C21.9313 7.1048 22.1634 7.45991 22.3706 7.83644C22.5877 8.2284 22.7715 8.62933 22.9388 9.03375M18.3173 3.72145C18.6804 3.93412 19.039 4.16024 19.3831 4.41673C19.7427 4.68369 20.0769 4.97355 20.3972 5.27138M13.9895 2.35145C14.4069 2.39528 14.8263 2.45255 15.2456 2.5422C15.6849 2.63683 16.1082 2.76234 16.5231 2.9003M9.48082 2.89957C9.87976 2.76609 10.2857 2.64457 10.7055 2.55143C11.1428 2.4568 11.5801 2.39455 12.0154 2.34823M5.60574 5.26555C5.91353 4.97917 6.23328 4.70026 6.57594 4.44227C6.93603 4.17432 7.30708 3.93725 7.6846 3.71412M3.06102 9.02572C3.22139 8.63724 3.39621 8.25126 3.6014 7.87423C3.81805 7.48177 4.05712 7.11222 4.30863 6.75263M10.7069 10.7068H15.2929V14.4223H14.2599V12.8933C14.2599 12.2085 13.6932 11.6501 13.0004 11.6501C12.3056 11.6501 11.7408 12.2085 11.7408 12.8933V14.4223H10.7069V10.7068ZM10.7069 14.6499H15.2929V15.2949H10.7069V14.6499ZM9.42246 6.11746C9.42246 6.24397 9.50214 6.34457 9.59827 6.34457H10.2657C10.3643 6.34457 10.443 6.24397 10.443 6.11746V5.55168C10.443 5.42567 10.3643 5.32457 10.2657 5.32457H9.59827C9.50214 5.32457 9.42246 5.42567 9.42246 5.55168V6.11746ZM11.4667 6.11819C11.4667 6.2437 11.5464 6.3453 11.644 6.3453H12.3119C12.409 6.3453 12.4872 6.2437 12.4872 6.11819V5.55241C12.4872 5.4264 12.409 5.3243 12.3119 5.3243H11.644C11.5464 5.3243 11.4667 5.4264 11.4667 5.55241V6.11819ZM13.5113 6.12015C13.5113 6.24516 13.59 6.34676 13.6876 6.34676H14.356C14.4536 6.34676 14.5323 6.24516 14.5323 6.12015V5.55337C14.5323 5.42886 14.4536 5.32576 14.356 5.32576H13.6876C13.59 5.32576 13.5113 5.42886 13.5113 5.55337V6.12015ZM15.5574 6.12065C15.5574 6.24566 15.6351 6.34676 15.7342 6.34676H16.4016C16.4992 6.34676 16.5779 6.24566 16.5779 6.12065V5.55287C16.5779 5.42886 16.4992 5.32626 16.4016 5.32626H15.7342C15.6351 5.32626 15.5574 5.42886 15.5574 5.55287V6.12065ZM7.37712 8.16562C7.37712 8.29113 7.45581 8.39173 7.55343 8.39173H8.22082C8.31943 8.39173 8.39713 8.29113 8.39713 8.16562V7.59884C8.39713 7.47383 8.31943 7.37173 8.22082 7.37173H7.55343C7.45581 7.37173 7.37712 7.47383 7.37712 7.59884V8.16562ZM9.42246 8.16635C9.42246 8.29136 9.50214 8.39246 9.59827 8.39246H10.2657C10.3643 8.39246 10.443 8.29136 10.443 8.16635V7.59857C10.443 7.47456 10.3643 7.37196 10.2657 7.37196H9.59827C9.50214 7.37196 9.42246 7.47456 9.42246 7.59857V8.16635ZM11.4667 8.16658C11.4667 8.29159 11.5464 8.39319 11.644 8.39319H12.3119C12.409 8.39319 12.4872 8.29159 12.4872 8.16658V7.5983C12.4872 7.47529 12.409 7.37169 12.3119 7.37169H11.644C11.5464 7.37169 11.4667 7.47529 11.4667 7.5983V8.16658ZM13.5113 8.16754C13.5113 8.29205 13.59 8.39465 13.6876 8.39465H14.356C14.4536 8.39465 14.5323 8.29205 14.5323 8.16754V7.59926C14.5323 7.47575 14.4536 7.37365 14.356 7.37365H13.6876C13.59 7.37365 13.5113 7.47575 13.5113 7.59926V8.16754ZM15.5574 8.168C15.5574 8.29251 15.6351 8.39611 15.7342 8.39611H16.4016C16.4992 8.39611 16.5779 8.29251 16.5779 8.168V7.60023C16.5779 7.47621 16.4992 7.37511 16.4016 7.37511H15.7342C15.6351 7.37511 15.5574 7.47621 15.5574 7.60023V8.168ZM17.6016 8.16827C17.6016 8.29328 17.6813 8.39538 17.7784 8.39538H18.4458C18.5434 8.39538 18.6221 8.29328 18.6221 8.16827V7.60199C18.6221 7.47598 18.5434 7.37438 18.4458 7.37438H17.7784C17.6813 7.37438 17.6016 7.47598 17.6016 7.60199V8.16827ZM5.33252 10.214C5.33252 10.3375 5.41171 10.4396 5.50883 10.4396H6.17671C6.27533 10.4396 6.35302 10.3375 6.35302 10.214V9.64573C6.35302 9.52072 6.27533 9.41862 6.17671 9.41862H5.50883C5.41171 9.41862 5.33252 9.52072 5.33252 9.64573V10.214ZM7.37712 10.2137C7.37712 10.3373 7.45581 10.4403 7.55343 10.4403H8.22082C8.31943 10.4403 8.39713 10.3373 8.39713 10.2137V9.64546C8.39713 9.52145 8.31943 9.41935 8.22082 9.41935H7.55343C7.45581 9.41935 7.37712 9.52145 7.37712 9.64546V10.2137ZM17.6016 10.2174C17.6016 10.3419 17.6813 10.444 17.7784 10.444H18.4458C18.5434 10.444 18.6221 10.3419 18.6221 10.2174V9.65011C18.6221 9.5241 18.5434 9.42299 18.4458 9.42299H17.7784C17.6813 9.42299 17.6016 9.5241 17.6016 9.65011V10.2174ZM19.648 10.214C19.648 10.3375 19.7252 10.4396 19.8228 10.4396H20.4912C20.5888 10.4396 20.6675 10.3375 20.6675 10.214V9.64573C20.6675 9.52072 20.5888 9.41862 20.4912 9.41862H19.8228C19.7252 9.41862 19.648 9.52072 19.648 9.64573V10.214ZM5.33252 12.2597C5.33252 12.3842 5.41171 12.4868 5.50883 12.4868H6.17671C6.27533 12.4868 6.35302 12.3842 6.35302 12.2597V11.6929C6.35302 11.5679 6.27533 11.4668 6.17671 11.4668H5.50883C5.41171 11.4668 5.33252 11.5679 5.33252 11.6929V12.2597ZM7.37712 12.2611C7.37712 12.3856 7.45581 12.4882 7.55343 12.4882H8.22082C8.31943 12.4882 8.39713 12.3856 8.39713 12.2611V11.6943C8.39713 11.5683 8.31943 11.4672 8.22082 11.4672H7.55343C7.45581 11.4672 7.37712 11.5683 7.37712 11.6943V12.2611ZM17.6016 12.2653C17.6016 12.3893 17.6813 12.4919 17.7784 12.4919H18.4458C18.5434 12.4919 18.6221 12.3893 18.6221 12.2653V11.6975C18.6221 11.5725 18.5434 11.4704 18.4458 11.4704H17.7784C17.6813 11.4704 17.6016 11.5725 17.6016 11.6975V12.2653ZM19.648 12.2597C19.648 12.3842 19.7252 12.4868 19.8228 12.4868H20.4912C20.5888 12.4868 20.6675 12.3842 20.6675 12.2597V11.6929C20.6675 11.5679 20.5888 11.4668 20.4912 11.4668H19.8228C19.7252 11.4668 19.648 11.5679 19.648 11.6929V12.2597ZM5.33252 14.3085C5.33252 14.433 5.41171 14.5361 5.50883 14.5361H6.17671C6.27533 14.5361 6.35302 14.433 6.35302 14.3085V13.7412C6.35302 13.6162 6.27533 13.5141 6.17671 13.5141H5.50883C5.41171 13.5141 5.33252 13.6162 5.33252 13.7412V14.3085ZM7.37712 14.3085C7.37712 14.4335 7.45581 14.5361 7.55343 14.5361H8.22082C8.31943 14.5361 8.39713 14.4335 8.39713 14.3085V13.7422C8.39713 13.6172 8.31943 13.5146 8.22082 13.5146H7.55343C7.45581 13.5146 7.37712 13.6172 7.37712 13.7422V14.3085ZM17.6016 14.3122C17.6016 14.4377 17.6813 14.5383 17.7784 14.5383H18.4458C18.5434 14.5383 18.6221 14.4377 18.6221 14.3122V13.7464C18.6221 13.6194 18.5434 13.5193 18.4458 13.5193H17.7784C17.6813 13.5193 17.6016 13.6194 17.6016 13.7464V14.3122ZM19.648 14.3085C19.648 14.433 19.7252 14.5361 19.8228 14.5361H20.4912C20.5888 14.5361 20.6675 14.433 20.6675 14.3085V13.7412C20.6675 13.6162 20.5888 13.5141 20.4912 13.5141H19.8228C19.7252 13.5141 19.648 13.6162 19.648 13.7412V14.3085ZM5.33252 16.3554C5.33252 16.48 5.41171 16.5826 5.50883 16.5826H6.17671C6.27533 16.5826 6.35302 16.48 6.35302 16.3554V15.7877C6.35302 15.6637 6.27533 15.5625 6.17671 15.5625H5.50883C5.41171 15.5625 5.33252 15.6637 5.33252 15.7877V16.3554ZM7.37712 16.3559C7.37712 16.4809 7.45581 16.5826 7.55343 16.5826H8.22082C8.31943 16.5826 8.39713 16.4809 8.39713 16.3559V15.7887C8.39713 15.6641 8.31943 15.562 8.22082 15.562H7.55343C7.45581 15.562 7.37712 15.6641 7.37712 15.7887V16.3559ZM17.6016 16.3598C17.6016 16.4843 17.6813 16.5869 17.7784 16.5869H18.4458C18.5434 16.5869 18.6221 16.4843 18.6221 16.3598V15.793C18.6221 15.6675 18.5434 15.5659 18.4458 15.5659H17.7784C17.6813 15.5659 17.6016 15.6675 17.6016 15.793V16.3598ZM19.648 16.3554C19.648 16.48 19.7252 16.5826 19.8228 16.5826H20.4912C20.5888 16.5826 20.6675 16.48 20.6675 16.3554V15.7877C20.6675 15.6637 20.5888 15.5625 20.4912 15.5625H19.8228C19.7252 15.5625 19.648 15.6637 19.648 15.7877V16.3554ZM7.37712 18.4038C7.37712 18.5298 7.45581 18.6304 7.55343 18.6304H8.22082C8.31943 18.6304 8.39713 18.5298 8.39713 18.4038V17.837C8.39713 17.7115 8.31943 17.6094 8.22082 17.6094H7.55343C7.45581 17.6094 7.37712 17.7115 7.37712 17.837V18.4038ZM9.42246 18.4046C9.42246 18.5296 9.50214 18.6312 9.59827 18.6312H10.2657C10.3643 18.6312 10.443 18.5296 10.443 18.4046V17.8368C10.443 17.7123 10.3643 17.6107 10.2657 17.6107H9.59827C9.50214 17.6107 9.42246 17.7123 9.42246 17.8368V18.4046ZM11.4667 18.4057C11.4667 18.5303 11.5464 18.6334 11.644 18.6334H12.3119C12.409 18.6334 12.4872 18.5303 12.4872 18.4057V17.8385C12.4872 17.7135 12.409 17.6114 12.3119 17.6114H11.644C11.5464 17.6114 11.4667 17.7135 11.4667 17.8385V18.4057ZM13.5113 18.4072C13.5113 18.5313 13.59 18.6334 13.6876 18.6334H14.356C14.4536 18.6334 14.5323 18.5313 14.5323 18.4072V17.839C14.5323 17.7135 14.4536 17.6124 14.356 17.6124H13.6876C13.59 17.6124 13.5113 17.7135 13.5113 17.839V18.4072ZM15.5574 18.4072C15.5574 18.5313 15.6351 18.6334 15.7342 18.6334H16.4016C16.4992 18.6334 16.5779 18.5313 16.5779 18.4072V17.8395C16.5779 17.7145 16.4992 17.6134 16.4016 17.6134H15.7342C15.6351 17.6134 15.5574 17.7145 15.5574 17.8395V18.4072ZM17.6016 18.4077C17.6016 18.5322 17.6813 18.6348 17.7784 18.6348H18.4458C18.5434 18.6348 18.6221 18.5322 18.6221 18.4077V17.8409C18.6221 17.7159 18.5434 17.6153 18.4458 17.6153H17.7784C17.6813 17.6153 17.6016 17.7159 17.6016 17.8409V18.4077ZM9.42246 20.4476C9.42246 20.5731 9.50214 20.6747 9.59827 20.6747H10.2657C10.3643 20.6747 10.443 20.5731 10.443 20.4476V19.8808C10.443 19.7568 10.3643 19.6547 10.2657 19.6547H9.59827C9.50214 19.6547 9.42246 19.7568 9.42246 19.8808V20.4476ZM11.4667 20.4486C11.4667 20.5746 11.5464 20.6747 11.644 20.6747H12.3119C12.409 20.6747 12.4872 20.5746 12.4872 20.4486V19.8818C12.4872 19.7568 12.409 19.6547 12.3119 19.6547H11.644C11.5464 19.6547 11.4667 19.7568 11.4667 19.8818V20.4486ZM13.5113 20.4503C13.5113 20.5753 13.59 20.6769 13.6876 20.6769H14.356C14.4536 20.6769 14.5323 20.5753 14.5323 20.4503V19.882C14.5323 19.758 14.4536 19.6559 14.356 19.6559H13.6876C13.59 19.6559 13.5113 19.758 13.5113 19.882V20.4503ZM15.5574 20.451C15.5574 20.5755 15.6351 20.6776 15.7342 20.6776H16.4016C16.4992 20.6776 16.5779 20.5755 16.5779 20.451V19.8827C16.5779 19.7587 16.4992 19.6566 16.4016 19.6566H15.7342C15.6351 19.6566 15.5574 19.7587 15.5574 19.8827V20.451ZM25 13.0005C25 19.6285 19.6275 25.001 13 25.001C6.37246 25.001 1 19.6285 1 13.0005C1 6.37246 6.37246 1 13 1C19.6275 1 25 6.37246 25 13.0005ZM24.0249 10.6228H22.1024C21.0486 6.57965 17.3735 3.59484 13.0001 3.59484C8.62672 3.59484 4.95162 6.57965 3.89775 10.6228H1.97528C1.49914 10.6228 1.11016 11.0123 1.11016 11.4874V14.5136C1.11016 14.9892 1.49914 15.3787 1.97528 15.3787H3.89775C4.95162 19.4219 8.62672 22.4067 13.0001 22.4067C17.3735 22.4067 21.0486 19.4219 22.1024 15.3787H24.0249C24.5001 15.3787 24.8895 14.9892 24.8895 14.5136V11.4874C24.8895 11.0123 24.5001 10.6228 24.0249 10.6228Z" stroke="#006946" stroke-width="1.001" stroke-miterlimit="10" stroke-linecap="round" stroke-linejoin="round"/>
</svg>
