<svg width="26" height="25" viewBox="0 0 26 25" fill="none" xmlns="http://www.w3.org/2000/svg">
<path d="M4.41909 24.1511V17.5338C6.34075 18.0153 14.8309 17.0469 17.6269 15.8683C18.065 15.6838 18.3632 15.4888 18.56 15.2866M4.64733 14.7762C6.5696 15.2576 14.1848 14.4761 16.9796 13.295C20.7294 11.7156 14.2941 9.37595 20.3237 8.40748C20.5314 8.37632 22.6896 7.97671 24.6406 7.6156M18.56 19.7904C19.6568 19.0725 22.4143 18.0441 24.7973 17.6378M1.68695 24.1511L4.07316 24.151C6.89241 24.8586 15.7094 23.8308 18.5599 21.9794L18.56 15.4375M18.3934 15.4378C18.9812 14.8433 19.2794 14.3789 19.2568 13.4832C19.2293 12.3564 18.8113 11.9373 18.2082 11.6208M18.5336 11.8209C18.8843 11.4873 19.6102 11.1977 20.9722 10.9808C21.1665 10.949 22.9439 10.5885 24.6389 10.2451M7.2564 9.87499V14.856M20.5524 6.55713C20.5524 6.55713 20.5304 4.82855 21.6773 3.72504C22.5907 2.84029 24.9371 2.45779 24.9371 2.45779M20.5524 6.5577C20.5524 6.5577 22.7032 6.65608 23.8079 5.50919C24.6896 4.5951 25 2.45836 25 2.45836M15.6225 11.488C15.5046 11.7813 14.8721 11.7397 14.6644 11.953C14.4493 12.1754 14.5031 12.8041 14.2232 12.9233C13.944 13.043 13.5273 12.5719 13.2181 12.5762C12.9193 12.5805 12.5154 13.0675 12.2209 12.9501C11.9252 12.8347 11.9686 12.2016 11.7547 11.9939C11.5329 11.7776 10.9054 11.832 10.7844 11.5527C10.6647 11.2723 11.137 10.8562 11.1327 10.5464C11.1284 10.2476 10.6408 9.84371 10.7575 9.54858C10.8742 9.25468 11.5066 9.29562 11.7156 9.08421C11.9307 8.86302 11.8757 8.23367 12.1555 8.11268C12.4348 7.99354 12.8527 8.46463 13.1619 8.45974C13.4607 8.45791 13.8646 7.96909 14.1585 8.08641C14.4524 8.20495 14.412 8.83674 14.6253 9.04388C14.8459 9.26018 15.474 9.20397 15.5944 9.48382C15.7141 9.76366 15.2424 10.181 15.2473 10.4902C15.251 10.7877 15.7392 11.1922 15.6225 11.488ZM13.9295 10.8123C13.767 11.2205 13.302 11.4197 12.8951 11.2584C12.4869 11.094 12.2871 10.6327 12.4497 10.2251C12.6128 9.81573 13.0759 9.61654 13.4841 9.77785C13.8917 9.94161 14.0927 10.4048 13.9295 10.8123ZM11.4228 7.29959C11.226 7.79513 10.1641 7.72486 9.81455 8.08231C9.45283 8.45564 9.54448 9.51026 9.0746 9.71312C8.60595 9.91415 7.90389 9.12043 7.38452 9.12837C6.88348 9.13632 6.20464 9.95447 5.71032 9.75773C5.21662 9.56098 5.28688 8.49963 4.92699 8.15013C4.5561 7.78779 3.49965 7.87884 3.29679 7.41018C3.09637 6.94031 3.88948 6.23763 3.88215 5.7201C3.87481 5.21906 3.05666 4.53777 3.25402 4.04468C3.44893 3.55097 4.51028 3.62185 4.861 3.26257C5.22334 2.89168 5.12985 1.83339 5.60034 1.63237C6.07082 1.43073 6.77289 2.22384 7.29103 2.21589C7.79268 2.21039 8.47091 1.3904 8.96584 1.58715C9.46016 1.78268 9.38989 2.84524 9.74795 3.19719C10.1207 3.55769 11.1753 3.46482 11.3775 3.93408C11.5798 4.40579 10.7867 5.10724 10.7946 5.62539C10.8007 6.12765 11.6195 6.80588 11.4228 7.29959ZM8.58091 6.16705C8.30717 6.85261 7.52873 7.18806 6.84255 6.91494C6.15699 6.63998 5.82215 5.86215 6.0965 5.17658C6.36901 4.48979 7.14623 4.1574 7.83424 4.43053C8.51858 4.70365 8.85281 5.48026 8.58091 6.16705ZM19.2039 5.33704C19.0542 5.70977 18.2526 5.65661 17.9886 5.9279C17.7143 6.20836 17.7851 7.00574 17.4307 7.1585C17.0764 7.31125 16.5466 6.71184 16.1543 6.71673C15.7755 6.72284 15.2628 7.3418 14.8907 7.19271C14.5168 7.04301 14.5706 6.24197 14.2987 5.97862C14.0188 5.70427 13.2214 5.77576 13.0693 5.42136C12.9165 5.06636 13.5147 4.53599 13.5104 4.14372C13.5037 3.76489 12.8866 3.25224 13.0345 2.88013C13.1829 2.50557 13.9846 2.55995 14.2492 2.28744C14.5229 2.00698 14.4514 1.21082 14.807 1.05806C15.162 0.90653 15.6918 1.50411 16.0834 1.50044C16.4617 1.49494 16.9749 0.875368 17.3464 1.02262C17.7204 1.17294 17.6672 1.97521 17.9391 2.23733C18.219 2.51229 19.0157 2.4408 19.1679 2.79642C19.3194 3.1502 18.7231 3.67995 18.7279 4.07345C18.7334 4.45167 19.3518 4.96493 19.2039 5.33704ZM17.0564 4.48268C16.8517 5.00022 16.2621 5.25196 15.7452 5.04604C15.227 4.84013 14.9747 4.25355 15.1812 3.73418C15.3871 3.21787 15.9743 2.96491 16.4925 3.17143C17.0106 3.37612 17.263 3.96331 17.0564 4.48268ZM5.37983 15.2438C4.87635 14.6645 3.99953 14.604 3.42089 15.1057C2.84226 15.6079 2.77993 16.4829 3.28219 17.0616C3.78506 17.6402 4.66004 17.7031 5.23929 17.2021C5.81732 16.7004 5.88087 15.823 5.37983 15.2438ZM5.44518 13.4177C5.44518 13.4177 5.4684 11.6922 4.32273 10.5856C3.40803 9.7039 1 9.31957 1 9.31957C1 9.31957 1.30857 11.4571 2.19027 12.3718C3.295 13.5169 5.44518 13.4177 5.44518 13.4177Z" stroke="#006946" stroke-width="1.001" stroke-miterlimit="10" stroke-linecap="round" stroke-linejoin="round"/>
</svg>
