<svg width="26" height="22" viewBox="0 0 26 22" fill="none" xmlns="http://www.w3.org/2000/svg">
<path d="M1.30452 10.4047L1.76558 10.671V12.148V12.1235C1.76558 13.1 2.38511 14.2491 3.14962 14.6911C3.91413 15.1332 4.53366 14.7003 4.53366 13.7238V13.7478V12.2718L4.99515 12.5381M5.29884 11.928V16.6342C5.29884 16.7532 5.21829 16.8034 5.11946 16.7463L1.17981 14.469C1.08098 14.4119 1 14.268 1 14.1495V9.4428M14.9173 2.27029L17.6653 3.8588M13.614 3.02336L16.3621 4.6123M12.3108 3.77686L15.0588 5.3658M11.0075 4.5308L13.7556 6.11931M9.7043 5.28386L12.4524 6.87281M8.40075 6.0378L11.1488 7.62631M7.09751 6.79087L9.84556 8.37981M5.79427 7.54417L8.54232 9.13267M4.49071 8.29767L7.23876 9.88617M3.18748 9.05117L5.93553 10.6397M12.2966 12.7316L5.29109 16.7814L5.29152 11.9191L19.9038 3.47172V7.50097M19.083 10.6978L21.3905 12.0317M19.0419 11.3822L20.7786 12.3861M19.0588 12.0995L20.1655 12.7399M19.031 12.7916L19.5539 13.0937M20.2271 10.6966L21.9638 11.701M21.4688 10.7062L22.576 11.3466M22.6653 10.6907L23.1877 10.9928M18.2168 10.1972L15.909 8.86279M17.0333 10.2208L15.297 9.21728M15.7919 10.2112L14.6848 9.57127M14.5954 10.2265L14.0726 9.92487M18.2189 9.5356L16.4826 8.53167M18.2021 8.81786L17.0945 8.17793M18.2292 8.1263L17.7068 7.82421M18.2139 10.7217L15.8921 12.0643M17.0309 10.7024L15.2833 11.7125M15.7895 10.7163L14.6749 11.3606M14.5924 10.7051L14.0665 11.0094M18.2087 11.3833L16.4616 12.3938M18.1845 12.1009L17.07 12.7456M18.2043 12.793L17.6784 13.0969M19.0849 10.2182L21.4072 8.87558M19.0518 9.53369L20.7993 8.52365M19.0763 8.81659L20.1909 8.17229M19.0566 8.12439L19.5825 7.82055M20.23 10.215L21.9776 9.205M21.4714 10.201L22.5859 9.55669M22.6681 10.2125L23.194 9.90864M15.4616 19.5686L17.9806 21.0246L18.6485 20.6384M18.6485 20.6384V14.113L12.2964 10.4417V16.9879M18.6485 20.6384L25 16.9673V10.4416L18.6488 14.1133L18.6485 20.6384ZM13.9641 11.4534V12.3348C13.9641 13.2921 14.6394 14.4591 15.4727 14.9408C16.3056 15.422 16.9812 15.0362 16.9812 14.0789C16.9812 13.1221 16.9812 13.1975 16.9812 13.1975M14.4523 11.8335V12.4891C14.4523 13.2079 14.8368 14.0131 15.4624 14.3745C16.088 14.7363 16.4929 14.388 16.4929 13.6691V13.0135M20.3158 13.1974C20.3158 13.1974 20.3158 13.1224 20.3158 14.0789C20.3158 15.0366 20.991 15.4219 21.8243 14.9407C22.6576 14.459 23.3329 13.292 23.3329 12.3347V11.4533M12.7514 21.1287L16.4224 19.0153C16.4472 19.0014 16.4712 18.9865 16.4938 18.9695C16.7036 18.8161 16.8303 18.5301 16.8303 18.1361C16.8303 17.2747 16.2226 16.2245 15.4724 15.7912C15.152 15.6064 14.8572 15.5632 14.6248 15.6426L10.9141 17.786M5.29123 11.8785L1.04464 9.4238L15.6165 1L19.863 3.45512L5.29123 11.8785ZM18.6325 14.1211L24.9936 10.4437L18.6716 6.7893L12.3105 10.4668L18.6325 14.1211ZM10.3733 18.7183C10.3733 19.5797 10.9811 20.6298 11.7312 21.0631C12.4809 21.4969 13.0887 21.1499 13.0891 20.2881C13.0891 19.4267 12.4809 18.3765 11.7312 17.9432C10.9811 17.5099 10.3733 17.8565 10.3733 18.7183ZM20.3155 18.1363C20.3155 17.2749 20.9232 16.2248 21.673 15.7915C22.4231 15.3577 23.0304 15.7051 23.0309 16.5665C23.0309 17.4284 22.4231 18.4781 21.673 18.9114C20.9232 19.3447 20.3155 18.9981 20.3155 18.1363ZM20.9465 17.7716C20.9465 17.3108 21.2722 16.7485 21.6727 16.517C22.0741 16.2851 22.3998 16.4708 22.3998 16.9311C22.3998 17.3923 22.0741 17.9547 21.6727 18.1866C21.2722 18.4185 20.9465 18.2328 20.9465 17.7716Z" stroke="#006946" stroke-width="1.001" stroke-miterlimit="10" stroke-linecap="round" stroke-linejoin="round"/>
</svg>
