<svg width="27" height="27" viewBox="0 0 27 27" fill="none" xmlns="http://www.w3.org/2000/svg">
<path d="M3.72778 23.8795L3.47761 24.313C3.63245 24.4023 3.8232 24.4023 3.97802 24.3129L3.72778 23.8795ZM2 22.8824L1.74982 22.4489C1.59492 22.5383 1.4995 22.7035 1.4995 22.8824C1.4995 23.0612 1.59493 23.2264 1.74983 23.3158L2 22.8824ZM3.71686 21.8915L3.96708 21.458C3.81226 21.3686 3.62151 21.3686 3.46667 21.458L3.71686 21.8915ZM5.44412 22.8886L5.69436 23.322C5.84922 23.2326 5.94462 23.0674 5.94462 22.8886C5.94462 22.7098 5.84921 22.5445 5.69435 22.4551L5.44412 22.8886ZM5.45432 24.8675L5.70455 25.3009C5.85942 25.2115 5.95482 25.0463 5.95482 24.8675H5.45432ZM3.72706 25.8646L3.47677 26.298C3.63162 26.3874 3.82242 26.3874 3.97729 26.298L3.72706 25.8646ZM5.45432 22.8852H5.95482C5.95482 22.7064 5.85943 22.5412 5.70458 22.4517C5.54973 22.3623 5.35895 22.3623 5.20409 22.4517L5.45432 22.8852ZM2.00038 24.8675H1.49988C1.49988 25.0463 1.59526 25.2115 1.75009 25.3009L2.00038 24.8675ZM2.00038 22.8852L2.25067 22.4518C2.09582 22.3623 1.90502 22.3623 1.75015 22.4517C1.59529 22.5411 1.49988 22.7064 1.49988 22.8852H2.00038ZM4.44107 22.894L4.69129 23.3275L4.94157 23.183V22.894H4.44107ZM3.72706 23.3062L3.47681 23.7396L3.72704 23.8841L3.97728 23.7397L3.72706 23.3062ZM3.72706 14.4773L3.47684 14.0439L3.22656 14.1883V14.4773H3.72706ZM4.44107 14.0652H4.94157V13.1983L4.19085 13.6317L4.44107 14.0652ZM3.01314 22.894H2.51264V23.183L2.76289 23.3275L3.01314 22.894ZM3.01314 14.0657L3.26349 13.6323L2.51264 13.1985V14.0657H3.01314ZM3.72663 14.4778L4.22713 14.4778L4.22711 14.189L3.97699 14.0445L3.72663 14.4778ZM15.542 17.2198L15.2918 17.6532C15.4467 17.7426 15.6374 17.7426 15.7922 17.6532L15.542 17.2198ZM13.8142 16.2226L13.564 15.7892C13.4091 15.8786 13.3137 16.0438 13.3137 16.2226C13.3137 16.4015 13.4091 16.5667 13.564 16.6561L13.8142 16.2226ZM15.5311 15.2318L15.7813 14.7983C15.6265 14.7089 15.4357 14.7089 15.2809 14.7983L15.5311 15.2318ZM17.2583 16.2289L17.5086 16.6623C17.6634 16.5729 17.7588 16.4077 17.7588 16.2289C17.7588 16.0501 17.6634 15.8848 17.5086 15.7954L17.2583 16.2289ZM17.2685 18.2077L17.5188 18.6412C17.6736 18.5518 17.769 18.3866 17.769 18.2077H17.2685ZM15.5413 19.2049L15.291 19.6383C15.4459 19.7277 15.6366 19.7277 15.7915 19.6383L15.5413 19.2049ZM17.2685 16.2255H17.769C17.769 16.0467 17.6736 15.8814 17.5188 15.792C17.3639 15.7026 17.1732 15.7026 17.0183 15.792L17.2685 16.2255ZM13.8142 18.2077H13.3137C13.3137 18.3866 13.4091 18.5518 13.564 18.6412L13.8142 18.2077ZM13.8142 16.2255L14.0645 15.792C13.9096 15.7026 13.7188 15.7026 13.564 15.792C13.4091 15.8814 13.3137 16.0467 13.3137 16.2255H13.8142ZM16.7557 7.40571C16.7557 7.12929 16.5316 6.90521 16.2552 6.90521C15.9788 6.90521 15.7547 7.12929 15.7547 7.40571H16.7557ZM16.2552 16.2341L16.5055 16.6674C16.6603 16.578 16.7557 16.4128 16.7557 16.2341H16.2552ZM15.5413 16.6465H15.0408C15.0408 16.8253 15.1362 16.9906 15.2911 17.08C15.446 17.1694 15.6368 17.1693 15.7916 17.0799L15.5413 16.6465ZM16.0418 7.81761C16.0418 7.54119 15.8177 7.31711 15.5413 7.31711C15.2648 7.31711 15.0408 7.54119 15.0408 7.81761H16.0418ZM14.8277 16.2341H14.3272C14.3272 16.4129 14.4227 16.5782 14.5776 16.6676L14.8277 16.2341ZM15.3282 8.21756C15.3282 7.94114 15.1041 7.71706 14.8277 7.71706C14.5513 7.71706 14.3272 7.94114 14.3272 8.21756H15.3282ZM15.2911 17.0792C15.5305 17.2174 15.8366 17.1353 15.9747 16.8958C16.1129 16.6564 16.0308 16.3503 15.7913 16.2122L15.2911 17.0792ZM4.19073 15.3455C3.95134 15.4837 3.86933 15.7898 4.00754 16.0292C4.14575 16.2686 4.45185 16.3506 4.69123 16.2124L4.19073 15.3455ZM15.0777 10.2156C15.3171 10.0774 15.3991 9.77132 15.2609 9.53193C15.1227 9.29255 14.8166 9.21053 14.5772 9.34874L15.0777 10.2156ZM16.0049 8.54324C15.7656 8.68145 15.6835 8.98755 15.8217 9.22694C15.96 9.46632 16.2661 9.54834 16.5054 9.41013L16.0049 8.54324ZM26.2503 3.7839C26.4896 3.64569 26.5717 3.33959 26.4334 3.1002C26.2952 2.86082 25.9891 2.7788 25.7497 2.91701L26.2503 3.7839ZM4.19108 20.1711C3.9517 20.3093 3.86971 20.6154 4.00794 20.8548C4.14616 21.0942 4.45227 21.1762 4.69165 21.0379L4.19108 20.1711ZM15.1125 15.0203C15.3519 14.8821 15.4338 14.576 15.2956 14.3366C15.1574 14.0973 14.8513 14.0153 14.6119 14.1535L15.1125 15.0203ZM16.0049 13.3513C15.7655 13.4895 15.6835 13.7956 15.8218 14.035C15.96 14.2743 16.2661 14.3564 16.5055 14.2181L16.0049 13.3513ZM26.2492 8.5919C26.4886 8.45368 26.5706 8.14758 26.4324 7.9082C26.2942 7.66882 25.9881 7.58682 25.7487 7.72504L26.2492 8.5919ZM6.25536 15.0874C6.25533 14.811 6.03122 14.5869 5.7548 14.587C5.47838 14.587 5.25433 14.8111 5.25436 15.0875L6.25536 15.0874ZM5.25488 19.7629C5.25491 20.0394 5.47901 20.2634 5.75543 20.2634C6.03185 20.2634 6.25591 20.0393 6.25588 19.7628L5.25488 19.7629ZM7.78764 14.2034C7.78764 13.927 7.56356 13.7029 7.28714 13.7029C7.01072 13.7029 6.78664 13.927 6.78664 14.2034H7.78764ZM6.78664 18.8778C6.78664 19.1542 7.01072 19.3783 7.28714 19.3783C7.56356 19.3783 7.78764 19.1542 7.78764 18.8778H6.78664ZM9.31992 13.3186C9.31989 13.0421 9.09579 12.8181 8.81937 12.8181C8.54295 12.8181 8.31889 13.0423 8.31892 13.3187L9.31992 13.3186ZM8.31944 17.9936C8.31947 18.27 8.54358 18.4941 8.82 18.494C9.09642 18.494 9.32047 18.2699 9.32044 17.9935L8.31944 17.9936ZM10.8526 12.4333C10.8526 12.1569 10.6285 11.9328 10.3521 11.9328C10.0757 11.9328 9.85159 12.1569 9.85159 12.4333H10.8526ZM9.85159 17.1077C9.85159 17.3841 10.0757 17.6082 10.3521 17.6082C10.6285 17.6082 10.8526 17.3841 10.8526 17.1077H9.85159ZM12.3849 11.5484C12.3848 11.272 12.1607 11.048 11.8843 11.048C11.6079 11.048 11.3838 11.2721 11.3839 11.5485L12.3849 11.5484ZM11.3844 16.2234C11.3844 16.4999 11.6085 16.7239 11.8849 16.7239C12.1614 16.7239 12.3854 16.4998 12.3854 16.2233L11.3844 16.2234ZM13.9168 10.6644C13.9168 10.388 13.6927 10.1639 13.4163 10.1639C13.1399 10.1639 12.9158 10.388 12.9158 10.6644H13.9168ZM12.9158 15.3399C12.9158 15.6163 13.1399 15.8404 13.4163 15.8404C13.6927 15.8404 13.9168 15.6163 13.9168 15.3399H12.9158ZM17.6064 8.53423C17.6064 8.25781 17.3824 8.03373 17.1059 8.03373C16.8295 8.03373 16.6054 8.25781 16.6054 8.53423H17.6064ZM16.6054 13.2091C16.6054 13.4856 16.8295 13.7096 17.1059 13.7096C17.3824 13.7096 17.6064 13.4856 17.6064 13.2091H16.6054ZM19.138 7.64993C19.138 7.37351 18.9139 7.14943 18.6375 7.14943C18.361 7.14943 18.137 7.37351 18.137 7.64993H19.138ZM18.137 12.3248C18.137 12.6013 18.361 12.8253 18.6375 12.8253C18.9139 12.8253 19.138 12.6013 19.138 12.3248H18.137ZM20.671 6.76487C20.671 6.48845 20.4469 6.26437 20.1705 6.26437C19.8941 6.26437 19.67 6.48845 19.67 6.76487H20.671ZM19.67 11.4398C19.67 11.7162 19.8941 11.9403 20.1705 11.9403C20.4469 11.9403 20.671 11.7162 20.671 11.4398H19.67ZM22.2037 5.8798C22.2037 5.60338 21.9796 5.3793 21.7032 5.3793C21.4268 5.3793 21.2027 5.60338 21.2027 5.8798H22.2037ZM21.2027 10.5547C21.2027 10.8311 21.4268 11.0552 21.7032 11.0552C21.9796 11.0552 22.2037 10.8311 22.2037 10.5547H21.2027ZM23.7356 4.99539C23.7355 4.71897 23.5114 4.49494 23.235 4.495C22.9586 4.49506 22.7345 4.71919 22.7346 4.99561L23.7356 4.99539ZM22.7356 9.67052C22.7357 9.94694 22.9598 10.171 23.2362 10.1709C23.5127 10.1708 23.7367 9.94671 23.7366 9.67029L22.7356 9.67052ZM25.2682 4.11043C25.2682 3.83401 25.0442 3.60993 24.7677 3.60993C24.4913 3.60993 24.2672 3.83401 24.2672 4.11043H25.2682ZM24.2672 8.78534C24.2672 9.06176 24.4913 9.28584 24.7677 9.28584C25.0442 9.28584 25.2682 9.06176 25.2682 8.78534H24.2672ZM3.42698 14.7551L3.17686 15.1887L3.42707 15.333L3.67723 15.1886L3.42698 14.7551ZM25.8252 1.82382L26.0755 2.25727L26.8258 1.82405L26.0757 1.39049L25.8252 1.82382ZM24.3998 1L24.6502 0.566666L24.3999 0.422001L24.1496 0.566549L24.3998 1ZM2 13.9318L1.74976 13.4984L0.99872 13.932L1.74988 14.3654L2 13.9318ZM3.97796 23.446L2.25017 22.4489L1.74983 23.3158L3.47761 24.313L3.97796 23.446ZM2.25018 23.3158L3.96704 22.325L3.46667 21.458L1.74982 22.4489L2.25018 23.3158ZM3.46663 22.3249L5.19389 23.3221L5.69435 22.4551L3.96708 21.458L3.46663 22.3249ZM5.19388 22.4551L3.47755 23.446L3.97802 24.3129L5.69436 23.322L5.19388 22.4551ZM5.2041 24.434L3.47683 25.4311L3.97729 26.298L5.70455 25.3009L5.2041 24.434ZM4.22756 25.8646V23.8823H3.22656V25.8646H4.22756ZM3.97729 24.3158L5.70455 23.3186L5.20409 22.4517L3.47683 23.4489L3.97729 24.3158ZM4.95382 22.8852V24.8675H5.95482V22.8852H4.95382ZM3.97735 25.4312L2.25067 24.434L1.75009 25.3009L3.47677 26.298L3.97735 25.4312ZM2.50088 24.8675V22.8852H1.49988V24.8675H2.50088ZM1.75009 23.3186L3.47677 24.3157L3.97735 23.4489L2.25067 22.4518L1.75009 23.3186ZM4.19085 22.4606L3.47684 22.8727L3.97728 23.7397L4.69129 23.3275L4.19085 22.4606ZM4.22756 23.3062V14.4773H3.22656V23.3062H4.22756ZM3.97728 14.9108L4.69129 14.4986L4.19085 13.6317L3.47684 14.0439L3.97728 14.9108ZM3.94057 14.0652V22.894H4.94157V14.0652H3.94057ZM3.9773 22.8727L3.26338 22.4606L2.76289 23.3275L3.47681 23.7396L3.9773 22.8727ZM3.51364 22.894V14.0657H2.51264V22.894H3.51364ZM2.76278 14.4991L3.47627 14.9112L3.97699 14.0445L3.26349 13.6323L2.76278 14.4991ZM3.22613 14.4779L3.22656 23.3062L4.22756 23.3062L4.22713 14.4778L3.22613 14.4779ZM15.7922 16.7863L14.0644 15.7891L13.564 16.6561L15.2918 17.6532L15.7922 16.7863ZM14.0644 16.6561L15.7812 15.6652L15.2809 14.7983L13.564 15.7892L14.0644 16.6561ZM15.2808 15.6652L17.0081 16.6623L17.5086 15.7954L15.7813 14.7983L15.2808 15.6652ZM17.0081 15.7954L15.2918 16.7863L15.7922 17.6532L17.5086 16.6623L17.0081 15.7954ZM17.0183 17.7743L15.291 18.7714L15.7915 19.6383L17.5188 18.6412L17.0183 17.7743ZM16.0418 19.2049V17.2226H15.0408V19.2049H16.0418ZM15.7915 17.6561L17.5188 16.6589L17.0183 15.792L15.291 16.7891L15.7915 17.6561ZM16.768 16.2255V18.2077H17.769V16.2255H16.768ZM15.7915 18.7714L14.0645 17.7743L13.564 18.6412L15.291 19.6383L15.7915 18.7714ZM14.3147 18.2077V16.2255H13.3137V18.2077H14.3147ZM13.564 16.6589L15.291 17.656L15.7915 16.7892L14.0645 15.792L13.564 16.6589ZM15.7547 7.40571V16.2341H16.7557V7.40571H15.7547ZM16.0418 16.6465V7.81761H15.0408V16.6465H16.0418ZM16.0048 15.8007L15.2909 16.2131L15.7916 17.0799L16.5055 16.6674L16.0048 15.8007ZM15.3282 16.2341V8.21756H14.3272V16.2341H15.3282ZM15.7913 16.2122L15.0778 15.8005L14.5776 16.6676L15.2911 17.0792L15.7913 16.2122ZM4.69123 16.2124L15.0777 10.2156L14.5772 9.34874L4.19073 15.3455L4.69123 16.2124ZM16.5054 9.41013L26.2503 3.7839L25.7497 2.91701L16.0049 8.54324L16.5054 9.41013ZM4.69165 21.0379L15.1125 15.0203L14.6119 14.1535L4.19108 20.1711L4.69165 21.0379ZM16.5055 14.2181L26.2492 8.5919L25.7487 7.72504L16.0049 13.3513L16.5055 14.2181ZM5.25436 15.0875L5.25488 19.7629L6.25588 19.7628L6.25536 15.0874L5.25436 15.0875ZM6.78664 14.2034V18.8778H7.78764V14.2034H6.78664ZM8.31892 13.3187L8.31944 17.9936L9.32044 17.9935L9.31992 13.3186L8.31892 13.3187ZM9.85159 12.4333V17.1077H10.8526V12.4333H9.85159ZM11.3839 11.5485L11.3844 16.2234L12.3854 16.2233L12.3849 11.5484L11.3839 11.5485ZM12.9158 10.6644V15.3399H13.9168V10.6644H12.9158ZM16.6054 8.53423V13.2091H17.6064V8.53423H16.6054ZM18.137 7.64993V12.3248H19.138V7.64993H18.137ZM19.67 6.76487V11.4398H20.671V6.76487H19.67ZM21.2027 5.8798V10.5547H22.2037V5.8798H21.2027ZM22.7346 4.99561L22.7356 9.67052L23.7366 9.67029L23.7356 4.99539L22.7346 4.99561ZM24.2672 4.11043V8.78534H25.2682V4.11043H24.2672ZM3.67723 15.1886L26.0755 2.25727L25.575 1.39037L3.17674 14.3217L3.67723 15.1886ZM26.0757 1.39049L24.6502 0.566666L24.1494 1.43333L25.5748 2.25715L26.0757 1.39049ZM24.1496 0.566549L1.74976 13.4984L2.25024 14.3653L24.65 1.43345L24.1496 0.566549ZM1.74988 14.3654L3.17686 15.1887L3.6771 14.3216L2.25012 13.4983L1.74988 14.3654Z" fill="#006946"/>
</svg>
