<svg width="32" height="14" viewBox="0 0 32 14" fill="none" xmlns="http://www.w3.org/2000/svg">
<path d="M22.295 10.0155H23.5729M15.7546 11.0481H17.0326M19.9494 11.5199H21.2284M24.6394 11.5199H25.9179M30.202 8.439C30.202 8.439 31 9.48366 31 9.92787C31 10.3721 30.6423 10.7326 30.202 10.7326C29.7602 10.7326 29.4035 10.3721 29.4035 9.92787C29.4035 9.72683 29.5675 9.40207 29.7475 9.10611M2.61309 8.5538C3.88257 8.5538 3.88257 9.47101 5.15311 9.47101C6.42312 9.47101 6.42312 8.5538 7.69418 8.5538C8.96525 8.5538 8.96525 9.47101 10.2358 9.47101C11.5079 9.47101 11.5079 8.5538 12.7795 8.5538C14.0506 8.5538 14.0506 9.47101 15.3216 9.47101C16.5932 9.47101 16.5932 8.5538 17.8643 8.5538C19.1359 8.5538 19.1359 9.47101 20.4059 9.47101C21.678 9.47101 21.678 8.5538 22.9502 8.5538C24.2233 8.5538 24.2233 9.47101 25.496 9.47101C26.7687 9.47101 26.7687 8.5538 28.0418 8.5538M25.7653 5.3578H22.3585V1.57379C22.3585 1.25863 22.1019 1 21.7892 1H20.5181C20.2048 1 19.9492 1.25863 19.9492 1.57379V5.3578H18.2384V1.57379C18.2384 1.25863 17.9823 1 17.6701 1H16.399C16.0858 1 15.8296 1.25863 15.8296 1.57379V5.3578H8.14556V1.57379C8.14556 1.25863 7.88997 1 7.57671 1H6.30564C5.99343 1 5.73678 1.25863 5.73678 1.57379V5.3578H4.88905C3.63703 5.3578 2.61309 6.39019 2.61309 7.65189V10.3726C2.61309 11.6343 3.63703 12.6667 4.88905 12.6667H25.7653C27.0174 12.6667 28.0418 11.6343 28.0418 10.3726V7.65189C28.0418 6.39019 27.0174 5.3578 25.7653 5.3578ZM29.655 8.60707H28.0416V7.24672H29.655V8.60707ZM2.61343 8.60707H1V7.24672H2.61343V8.60707Z" stroke="#006946" stroke-width="1.001" stroke-miterlimit="10" stroke-linecap="round" stroke-linejoin="round"/>
</svg>
