<svg width="26" height="23" viewBox="0 0 26 23" fill="none" xmlns="http://www.w3.org/2000/svg">
<path d="M3.19864 9.96092L2.51473 10.4199C2.70243 10.983 2.9219 11.4809 3.38467 11.7196L3.5268 11.7727C3.87963 11.8513 4.25252 11.8216 4.34825 11.4353C4.49457 10.848 4.04308 9.86728 3.46828 9.32508C2.90309 8.79333 2.30111 8.80462 2.03859 8.98981C1.78024 9.15327 1.68325 9.46596 1.6126 9.93291C1.45166 10.9977 2.60837 12.5344 3.04397 12.8182M13.4244 1.10627L1.80036 7.81705M13.4251 1.10701C13.8227 0.920562 14.3519 0.97198 14.9326 1.30683C16.1671 2.02 17.1678 3.74609 17.1678 5.16366C17.1678 5.82667 16.8898 6.3279 16.5295 6.5758L4.98648 13.2407M3.73818 13.2327L8.45491 15.9553L20.5296 8.99458L16.434 6.63056M11.0712 18.39C9.78657 19.132 10.858 19.7507 9.57337 20.4923V22.3907M11.0712 18.39C12.3567 17.6476 13.4285 18.2667 14.7136 17.5247C15.9995 16.7827 14.9276 16.1635 16.2135 15.4211M11.0712 18.39C9.78657 19.132 8.71485 18.5132 7.4298 19.2548M11.0712 18.39C12.3567 17.6476 11.2854 17.0295 12.5704 16.2871M16.2135 15.4211C17.4986 14.6795 18.5704 15.2982 19.8555 14.5566C21.1418 13.8133 20.0695 13.1946 21.3558 12.4522M16.2135 15.4211C14.9276 16.1631 13.8559 15.5451 12.5704 16.2871M16.2135 15.4211C17.4986 14.6795 16.4268 14.0602 17.7123 13.3186M21.3558 12.4522C22.6421 11.7098 23.7135 12.3285 24.9999 11.586M21.3558 12.4522C20.0695 13.1946 18.9982 12.5757 17.7123 13.3186M21.3558 12.4522C22.6421 11.7098 21.5704 11.0909 22.8563 10.3484C21.5704 11.0909 20.499 10.4722 19.2131 11.215C17.9263 11.957 18.9982 12.5757 17.7123 13.3186M9.57337 22.4709C10.858 21.7293 9.78657 21.1106 11.0712 20.3686C12.3567 19.6261 13.4285 20.2452 14.7136 19.5032C15.9995 18.7612 14.9276 18.1421 16.2135 17.3996C17.4986 16.658 18.5704 17.2767 19.8555 16.5351C21.1418 15.7919 20.0695 15.1732 21.3558 14.4311C22.6421 13.6883 23.7135 14.307 24.9999 13.5646M7.4298 19.2548C8.71485 18.5132 7.64384 17.894 8.92805 17.1529C10.2135 16.4104 11.2854 17.0295 12.5704 16.2871M7.4298 19.2548V21.1531C8.18938 20.715 8.87454 20.7518 9.57351 20.702M12.5704 16.2871C13.8559 15.5451 12.7845 14.9264 14.0704 14.1839C15.3554 13.4419 16.4268 14.0602 17.7123 13.3186M5.28653 18.0178C6.57159 17.2758 7.64386 17.8945 8.92807 17.1533C10.2135 16.4108 9.14211 15.7921 10.4272 15.0497C11.7126 14.3077 12.7845 14.9264 14.0704 14.1844C15.3554 13.4423 14.2832 12.8236 15.5686 12.0812C16.8549 11.3388 17.9264 11.9575 19.2127 11.2154C20.499 10.4726 19.4271 9.85389 20.713 9.11104M5.28653 18.0178C6.57159 17.2758 5.49973 16.6566 6.78479 15.9155C7.12591 15.7181 7.4524 15.6174 7.77178 15.561M5.28653 18.0178V19.9161C6.04611 19.4776 6.73128 19.5144 7.43024 19.4646M3.14327 16.7796C4.42832 16.038 5.49975 16.6563 6.78481 15.9151C7.12593 15.7178 7.30067 15.5292 7.39807 15.3449M3.14327 16.7796C4.42832 16.038 3.35689 15.4193 4.64152 14.6777C4.98264 14.4804 5.30955 14.3792 5.62851 14.3232M3.14327 16.7796V18.6779C3.90243 18.2394 4.58759 18.2762 5.28655 18.2264M1 15.5426C2.28463 14.801 1.2132 14.1819 2.49825 13.4407C2.81847 13.2559 3.12489 13.1552 3.42505 13.0971M1 15.5426C2.28463 14.801 3.35691 15.4197 4.64154 14.6781C4.98266 14.4808 5.15782 14.2927 5.25522 14.1083M1 15.5426V17.4409M1 17.4213C1.75916 16.9832 2.44433 17.02 3.14329 16.9703M20.7132 9.04382V10.7595M22.8564 10.3487V12.0313M25 11.5457V13.444M1.18401 9.215C1.18401 10.6322 2.18522 12.3587 3.42011 13.0723C4.65499 13.785 5.65536 13.214 5.65536 11.7968C5.65578 10.3801 4.65499 8.65316 3.42011 7.94082C2.18522 7.22765 1.18443 7.79827 1.18401 9.215Z" stroke="#006946" stroke-width="1.001" stroke-miterlimit="10" stroke-linecap="round" stroke-linejoin="round"/>
</svg>
