<svg width="16" height="16" viewBox="0 0 16 16" fill="none" xmlns="http://www.w3.org/2000/svg">
<circle cx="8" cy="8" r="7.5" fill="#F7901E" stroke="#F7901E"/>
<path d="M11.8555 5.84642L11.1536 5.1445C11.0573 5.04818 10.9403 5 10.8027 5C10.665 5 10.5479 5.04818 10.4517 5.1445L7.06581 8.53547L5.54838 7.01287C5.45202 6.91651 5.33504 6.86839 5.19745 6.86839C5.05977 6.86839 4.94279 6.91651 4.84644 7.01287L4.14451 7.71481C4.04816 7.81114 4 7.92816 4 8.06582C4 8.20338 4.04816 8.3205 4.14451 8.41682L6.01287 10.2851L6.71484 10.9871C6.81114 11.0835 6.92816 11.1316 7.06581 11.1316C7.20339 11.1316 7.32041 11.0833 7.41677 10.9871L8.11873 10.2851L11.8555 6.5484C11.9518 6.45204 12 6.33504 12 6.19738C12.0001 6.05979 11.9518 5.94277 11.8555 5.84642Z" fill="white"/>
</svg>
