<svg width="220" height="60" viewBox="0 0 220 60" fill="none" xmlns="http://www.w3.org/2000/svg">
<path fill-rule="evenodd" clip-rule="evenodd" d="M0 38.2461H43.4625V44.3596H0V38.2461ZM0 0.807386H43.4625V36.0677H33.6638V21.5598C33.6638 15.0595 28.2943 9.74254 21.731 9.74254C15.1687 9.74254 9.79817 15.0595 9.79817 21.5598V36.0677H0V0.807386Z" fill="#006946"/>
<path fill-rule="evenodd" clip-rule="evenodd" d="M215.002 21.7012V17.9752H216.956C217.406 17.9752 217.724 18.0812 217.907 18.2943C218.09 18.5061 218.183 18.7532 218.183 19.0352C218.183 19.2795 218.133 19.4704 218.033 19.6095C217.934 19.7486 217.821 19.8481 217.701 19.9086C217.679 19.9222 217.657 19.9324 217.634 19.9413C217.612 19.949 217.592 19.9571 217.573 19.963V19.9783C217.769 20.0325 217.902 20.1238 217.97 20.2527C218.039 20.3816 218.078 20.5181 218.094 20.6615C218.097 20.6989 218.099 20.7356 218.1 20.7721C218.101 20.8096 218.103 20.8456 218.103 20.8831C218.106 21.1072 218.114 21.2698 218.126 21.3719C218.137 21.474 218.166 21.5638 218.213 21.6412C218.216 21.6506 218.221 21.6616 218.228 21.6705C218.236 21.6807 218.24 21.6914 218.248 21.7012H218.198H217.307C217.254 21.6246 217.216 21.534 217.199 21.4306C217.181 21.3259 217.168 21.1516 217.162 20.9079C217.162 20.8907 217.16 20.8729 217.159 20.8525C217.158 20.8321 217.156 20.8142 217.156 20.7976C217.147 20.6807 217.106 20.5717 217.033 20.473C216.961 20.3747 216.801 20.3254 216.555 20.3254H215.927V21.7012H215.878H215.002ZM215.927 18.6984V19.6478H216.679C216.684 19.6478 216.687 19.6478 216.688 19.6478C216.689 19.6478 216.691 19.6478 216.695 19.6478C216.833 19.6445 216.959 19.6108 217.072 19.547C217.19 19.4831 217.246 19.3612 217.246 19.1807C217.246 18.9862 217.188 18.8571 217.072 18.7933C216.959 18.7302 216.817 18.6984 216.65 18.6984H215.927ZM216.551 16.3814H216.555C217.504 16.3834 218.365 16.7731 218.991 17.3984C219.611 18.0212 219.997 18.8813 220.001 19.8283V19.8379V19.8423C219.999 20.793 219.611 21.6578 218.985 22.2823C218.364 22.9041 217.505 23.2917 216.56 23.295H216.551H216.547C215.599 23.2933 214.735 22.9041 214.111 22.2785C213.492 21.6552 213.104 20.7943 213.103 19.8481V19.8379V19.8341C213.103 18.8839 213.492 18.0194 214.116 17.3941C214.737 16.7718 215.598 16.3839 216.54 16.3814H216.551ZM216.555 17.0564H216.54C215.784 17.0585 215.089 17.3719 214.592 17.8714C214.088 18.3742 213.777 19.0702 213.775 19.8341V19.8379V19.8481C213.778 20.6074 214.088 21.3017 214.588 21.802C215.089 22.3048 215.784 22.6187 216.547 22.6192H216.551H216.56C217.319 22.6182 218.013 22.3048 218.511 21.805C219.013 21.303 219.325 20.6067 219.326 19.8423V19.8379V19.8283C219.324 19.0684 219.013 18.3754 218.514 17.8739C218.014 17.3719 217.318 17.0572 216.555 17.0564Z" fill="#006946"/>
<path fill-rule="evenodd" clip-rule="evenodd" d="M50.499 36.6339H55.7659V40.529C55.7659 40.9179 55.8309 41.1778 55.9608 41.308C56.0909 41.5024 56.2857 41.5675 56.5458 41.5675C56.8711 41.5675 57.0665 41.5024 57.1961 41.373C57.3262 41.2433 57.3912 40.9838 57.3912 40.529V36.8286C57.3912 36.3748 57.3262 35.9856 57.0665 35.7899C56.8064 35.5964 56.4159 35.336 55.7659 35.076L53.2952 34.1671C52.2547 33.7135 51.5395 33.3243 51.0844 32.8037C50.6939 32.3506 50.499 31.5058 50.499 30.3381V27.6109C50.499 25.7937 50.8895 24.6253 51.6697 24.0415C52.4498 23.4571 54.205 23.1972 56.8711 23.1972C59.2765 23.1972 60.8372 23.4571 61.6179 23.9764C62.3326 24.5601 62.6576 25.8587 62.6576 27.9356V30.4019H57.3912V27.1566C57.3912 26.7674 57.3262 26.5076 57.1961 26.3782C57.0665 26.1834 56.8711 26.1178 56.5458 26.1178C56.2857 26.1178 56.0907 26.1834 55.9608 26.3131C55.8309 26.5076 55.7659 26.7674 55.7659 27.1566V29.9488C55.7659 30.7273 56.351 31.3105 57.4564 31.7656C57.5863 31.8312 57.716 31.8955 57.8461 31.8955L60.4474 32.9989C61.2923 33.3243 61.8776 33.7135 62.2029 34.1671C62.5282 34.6222 62.6576 35.4011 62.6576 36.4386V39.7505C62.6576 41.8265 62.3326 43.1902 61.5521 43.7092C60.8372 44.2283 59.1466 44.4894 56.4811 44.4894C54.0102 44.4894 52.3846 44.2283 51.6045 43.7092C50.8895 43.1257 50.499 41.8265 50.499 39.7505V36.6339ZM65.5187 16.3813H70.7207V23.3274H72.8008V26.248H70.7207V40.529C70.7207 40.9179 70.8505 41.1778 71.0455 41.308C71.2398 41.4381 71.6304 41.5024 72.1507 41.5024H72.8008V44.4235H70.6549C68.6394 44.4235 67.274 44.164 66.5587 43.6451C65.8434 43.1902 65.5187 41.9567 65.5187 40.1398V26.248H64.088V23.3274H65.5187V16.3813ZM81.3179 34.6867L80.4083 35.076C80.1482 35.1408 79.9532 35.336 79.8228 35.4662C79.693 35.6602 79.6278 35.8555 79.6278 36.1152V36.3748V40.4639C79.6278 40.8541 79.6924 41.1778 79.8228 41.308C79.9532 41.5024 80.2127 41.5675 80.5381 41.5675C80.7983 41.5675 80.9932 41.5024 81.123 41.373C81.2527 41.1778 81.3179 40.9179 81.3179 40.4639V34.6867ZM86.5846 27.2868V44.3592H81.3179V43.5149C80.8628 43.8391 80.3431 44.0984 79.8228 44.2283C79.2379 44.4235 78.6523 44.4894 78.0674 44.4894C76.702 44.4894 75.7918 44.164 75.2062 43.5149C74.6213 42.8666 74.3612 41.6326 74.3612 39.7505V36.1791C74.3612 35.336 74.5561 34.6867 74.9467 34.2329C75.3366 33.7779 75.9867 33.3886 76.897 32.9338L81.3179 31.1165V27.2217C81.3179 26.7674 81.2527 26.5076 81.123 26.3782C80.9932 26.248 80.733 26.1178 80.4735 26.1178C80.1482 26.1178 79.9532 26.248 79.8228 26.3782C79.693 26.5721 79.6278 26.8325 79.6278 27.2217V30.4019H74.3612V27.2868C74.3612 25.5992 74.7511 24.4958 75.5316 23.9764C76.3767 23.4571 78.0022 23.1972 80.4735 23.1972C82.9442 23.1972 84.6336 23.4571 85.4141 24.0415C86.194 24.5601 86.5846 25.6643 86.5846 27.2868ZM101.409 28.1311V44.3592H96.2076V27.3519C96.2076 26.9626 96.1424 26.7023 96.0126 26.5721C95.8822 26.4425 95.6221 26.3782 95.3625 26.3782C95.0372 26.3782 94.8422 26.4425 94.7118 26.5721C94.582 26.7023 94.5175 26.9626 94.5175 27.3519V44.3592H89.2502V23.3274H94.5175V24.2355C94.9726 23.9114 95.4271 23.6515 95.9474 23.4571C96.4678 23.2618 96.9881 23.1972 97.5085 23.1972C98.9384 23.1972 99.9791 23.5221 100.564 24.1709C101.149 24.8851 101.409 26.1834 101.409 28.1311ZM110.904 27.417C110.904 26.9626 110.904 26.7023 110.775 26.5721C110.645 26.4425 110.385 26.3782 110.125 26.3782C109.8 26.3782 109.604 26.4425 109.474 26.6377C109.344 26.7674 109.279 27.0269 109.279 27.417V40.3342C109.279 40.6589 109.344 40.9838 109.474 41.114C109.54 41.2433 109.734 41.308 110.06 41.308C110.385 41.308 110.58 41.2433 110.709 41.0481C110.839 40.9179 110.904 40.6589 110.904 40.3342V27.417ZM110.904 16.3813H116.17V44.3592H110.904V43.5149C110.514 43.7748 110.06 44.0343 109.54 44.2283C109.019 44.3592 108.499 44.4894 107.914 44.4894C106.484 44.4894 105.509 44.0984 104.924 43.4501C104.338 42.801 104.013 41.5024 104.013 39.555V28.1311C104.013 26.1834 104.338 24.8851 104.924 24.1709C105.509 23.5221 106.549 23.1972 107.979 23.1972C108.499 23.1972 109.019 23.2618 109.54 23.4571C110.06 23.6515 110.514 23.9114 110.904 24.2355V16.3813ZM125.664 34.6867L124.819 35.076C124.559 35.1408 124.365 35.336 124.233 35.4662C124.103 35.6602 124.039 35.8555 124.039 36.1152V36.3748V40.4639C124.039 40.8541 124.103 41.1778 124.233 41.308C124.365 41.5024 124.559 41.5675 124.884 41.5675C125.21 41.5675 125.405 41.5024 125.534 41.373C125.6 41.1778 125.664 40.9179 125.664 40.4639V34.6867ZM130.995 27.2868V44.3592H125.664V43.5149C125.21 43.8391 124.754 44.0984 124.17 44.2283C123.649 44.4235 123.062 44.4894 122.478 44.4894C121.112 44.4894 120.137 44.164 119.618 43.5149C119.033 42.8666 118.772 41.6326 118.772 39.7505V36.1791C118.772 35.336 118.967 34.6867 119.292 34.2329C119.682 33.7779 120.332 33.3886 121.308 32.9338L125.664 31.1165V27.2217C125.664 26.7674 125.6 26.5076 125.469 26.3782C125.339 26.248 125.144 26.1178 124.819 26.1178C124.559 26.1178 124.365 26.248 124.233 26.3782C124.103 26.5721 124.039 26.8325 124.039 27.2217V30.4019H118.772V27.2868C118.772 25.5992 119.162 24.4958 119.942 23.9764C120.722 23.4571 122.347 23.1972 124.819 23.1972C127.355 23.1972 128.98 23.4571 129.76 24.0415C130.605 24.5601 130.995 25.6643 130.995 27.2868ZM145.56 28.1311V31.8955H140.553V27.3519C140.553 26.9626 140.489 26.7023 140.358 26.5721C140.229 26.4425 140.034 26.3782 139.707 26.3782C139.448 26.3782 139.254 26.4425 139.123 26.5721C138.993 26.7023 138.929 26.9626 138.929 27.3519V44.3592H133.662V23.3274H138.929V24.2355C139.318 23.9114 139.773 23.6515 140.294 23.4571C140.813 23.2618 141.334 23.1972 141.788 23.1972C143.154 23.1972 144.128 23.5221 144.715 24.2355C145.299 24.8851 145.56 26.1834 145.56 28.1311ZM147.836 12.454H153.037V16.3813H198.03V19.3024H153.037V40.529C153.037 40.9179 153.167 41.1778 153.36 41.308C153.556 41.4381 153.946 41.5024 154.469 41.5024H155.118V44.4235H152.972C150.957 44.4235 149.589 44.164 148.875 43.6451C148.161 43.1902 147.836 41.9567 147.836 40.1398V19.3024H119.041V16.3813H147.836V12.454ZM169.163 28.1311V39.555C169.163 41.4381 168.901 42.7365 168.317 43.4501C167.732 44.164 166.755 44.4894 165.391 44.4894C164.806 44.4894 164.221 44.4235 163.7 44.2283C163.181 44.0343 162.725 43.8391 162.27 43.4501V48.7755H157.004V23.3274H162.27V24.2355C162.725 23.9114 163.181 23.6515 163.7 23.4571C164.221 23.2618 164.741 23.1972 165.26 23.1972C166.692 23.1972 167.668 23.5221 168.251 24.1709C168.901 24.8851 169.163 26.1834 169.163 28.1311ZM163.894 27.417C163.894 27.2868 163.894 27.2217 163.894 27.1566C163.894 27.0269 163.894 26.9626 163.894 26.9626C163.894 26.8325 163.83 26.7023 163.635 26.5721C163.506 26.4425 163.376 26.3782 163.116 26.3782C162.79 26.3782 162.593 26.4425 162.465 26.6377C162.335 26.7674 162.27 27.0269 162.27 27.417V40.2696C162.27 40.6589 162.335 40.9179 162.465 41.114C162.593 41.2433 162.79 41.308 163.116 41.308C163.376 41.308 163.571 41.2433 163.765 41.0481C163.83 40.9179 163.894 40.6589 163.894 40.2696V27.417ZM178.395 34.6867L177.482 35.076C177.224 35.1408 177.029 35.336 176.898 35.4662C176.77 35.6602 176.704 35.8555 176.704 36.1152V36.3748V40.4639C176.704 40.8541 176.77 41.1778 176.898 41.308C177.029 41.5024 177.288 41.5675 177.615 41.5675C177.874 41.5675 178.07 41.5024 178.2 41.373C178.328 41.1778 178.395 40.9179 178.395 40.4639V34.6867ZM183.661 27.2868V44.3592H178.395V43.5149C177.939 43.8391 177.419 44.0984 176.898 44.2283C176.313 44.4235 175.794 44.4894 175.143 44.4894C173.843 44.4894 172.867 44.164 172.284 43.5149C171.762 42.8666 171.438 41.6326 171.438 39.7505V36.1791C171.438 35.336 171.632 34.6867 172.023 34.2329C172.413 33.7779 173.062 33.3886 173.972 32.9338L178.395 31.1165V27.2217C178.395 26.7674 178.328 26.5076 178.2 26.3782C178.07 26.248 177.874 26.1178 177.55 26.1178C177.224 26.1178 177.029 26.248 176.898 26.3782C176.77 26.5721 176.704 26.8325 176.704 27.2217V30.4019H171.438V27.2868C171.438 25.5992 171.827 24.4958 172.673 23.9764C173.453 23.4571 175.078 23.1972 177.55 23.1972C180.019 23.1972 181.71 23.4571 182.49 24.0415C183.271 24.5601 183.661 25.6643 183.661 27.2868ZM198.29 28.1311V31.8955H193.285V27.3519C193.285 26.9626 193.218 26.7023 193.09 26.5721C192.959 26.4425 192.763 26.3782 192.439 26.3782C192.114 26.3782 191.918 26.4425 191.787 26.5721C191.659 26.7023 191.592 26.9626 191.592 27.3519V44.3592H186.391V23.3274H191.592V24.2355C192.049 23.9114 192.504 23.6515 193.023 23.4571C193.544 23.2618 193.998 23.1972 194.519 23.1972C195.884 23.1972 196.861 23.5221 197.379 24.2355C197.965 24.8851 198.29 26.1834 198.29 28.1311ZM200.306 16.3813H205.248V30.9872H205.508L207.589 23.3274H212.53L209.734 32.5446L213.179 44.3592H207.784L205.508 34.4262H205.248V44.3592H200.306V16.3813Z" fill="#006946"/>
<path d="M3.73154 59.8148V58.0052C3.73154 57.69 3.79318 57.1489 3.91645 56.382C4.03897 55.615 4.10596 55.1811 4.11793 55.0816H4.10596L2.30593 59.8148H0.275391V52.0379H2.27052V53.9649C2.27052 54.2079 2.2555 54.4537 2.22595 54.7013C2.1964 54.9488 2.14801 55.3182 2.08026 55.8102C2.012 56.2995 1.97073 56.6716 1.95443 56.9218H1.96641L3.73154 52.0379H5.72667V59.8148H3.73154Z" fill="#393536"/>
<path d="M9.03899 56.5325V59.8148H6.94629V52.0379H9.03899V54.9731H10.4055V52.0379H12.4987V59.8148H10.4055V56.5325H9.03899Z" fill="#393536"/>
<path d="M17.0677 58.0154L16.4982 57.1163L15.5448 59.8148H13.3311L15.2646 55.4823L13.3311 52.0379H15.5916L17.0677 55.1466V52.0379H19.0628V55.1466L20.5353 52.0379H22.8083L20.8751 55.4721L22.8083 59.8148H20.5982L19.6418 57.1068L19.0628 58.0269V59.8148H17.0677V58.0154Z" fill="#393536"/>
<path d="M23.4727 59.8148V52.0379H28.3337V53.5101H25.565V55.0152H28.1295V56.4879H25.565V58.3421H28.3337V59.8148H23.4727Z" fill="#393536"/>
<path d="M31.4533 56.5325V59.8148H29.3604V52.0379H31.4533V54.9731H32.8193V52.0379H34.9125V59.8148H32.8193V56.5325H31.4533Z" fill="#393536"/>
<path d="M36.2139 59.8148V52.0379H41.0749V53.5101H38.3062V55.0152H40.8712V56.4879H38.3062V58.3421H41.0749V59.8148H36.2139Z" fill="#393536"/>
<path d="M44.1949 55.3853H44.5701C45.2314 55.3853 45.5617 55.0527 45.5617 54.3873C45.5617 54.0287 45.4743 53.7794 45.3011 53.6413C45.1264 53.5022 44.8712 53.4327 44.5347 53.4327H44.1949V55.3853ZM42.1025 59.8148V52.0379H45.1381C45.6015 52.0379 46.0197 52.103 46.3933 52.2319C46.7675 52.3633 47.0747 52.6045 47.3162 52.9575C47.5571 53.3102 47.6778 53.7939 47.6778 54.409C47.6778 55.0063 47.5583 55.4823 47.3197 55.837C47.0805 56.1918 46.7726 56.4373 46.3956 56.5754C46.0186 56.7125 45.6004 56.7801 45.1399 56.7801H44.1949V59.8148H42.1025Z" fill="#393536"/>
<path d="M50.7125 56.5325V59.8148H48.6201V52.0379H50.7125V54.9731H52.0791V52.0379H54.1717V59.8148H52.0791V56.5325H50.7125Z" fill="#393536"/>
<path d="M58.1587 53.2863C57.9577 53.2863 57.7871 53.3424 57.6457 53.4535C57.5041 53.5657 57.4335 53.7265 57.4335 53.9351V57.8766C57.4335 58.0936 57.5056 58.2633 57.6497 58.385C57.7944 58.5075 57.9638 58.5696 58.1587 58.5696C58.3487 58.5696 58.5168 58.5075 58.6627 58.3837C58.8097 58.2607 58.8825 58.0915 58.8825 57.8766V53.9351C58.8825 53.7278 58.8107 53.5683 58.6663 53.4547C58.5213 53.3424 58.3523 53.2863 58.1587 53.2863ZM55.3408 54.052C55.3408 53.6308 55.4417 53.2556 55.6434 52.9277C55.8451 52.5984 56.1584 52.3394 56.5838 52.1492C57.0092 51.9603 57.5379 51.8651 58.1696 51.8651C58.8015 51.8651 59.3283 51.9616 59.7486 52.153C60.1688 52.3458 60.4783 52.6073 60.6772 52.9392C60.8759 53.2697 60.975 53.6454 60.975 54.0634V57.5512C60.975 58.345 60.746 58.9491 60.2872 59.3651C59.8288 59.7811 59.1191 59.9886 58.1587 59.9886C56.2796 59.9886 55.3408 59.177 55.3408 57.5512V54.052Z" fill="#393536"/>
<path d="M62.0996 59.8148V52.0379H66.9609V53.5101H64.1926V55.0152H66.7574V56.4879H64.1926V58.3421H66.9609V59.8148H62.0996Z" fill="#393536"/>
<path d="M73.84 53.2863C73.6398 53.2863 73.469 53.3424 73.3281 53.4535C73.186 53.5657 73.1156 53.7265 73.1156 53.9351V57.8766C73.1156 58.0936 73.1879 58.2633 73.3314 58.385C73.4761 58.5075 73.6457 58.5696 73.84 58.5696C74.0304 58.5696 74.1993 58.5075 74.3447 58.3837C74.4914 58.2607 74.5651 58.0915 74.5651 57.8766V53.9351C74.5651 53.7278 74.492 53.5683 74.3479 53.4547C74.2038 53.3424 74.0343 53.2863 73.84 53.2863ZM71.0225 54.052C71.0225 53.6308 71.1242 53.2556 71.3257 52.9277C71.5272 52.5984 71.8401 52.3394 72.2659 52.1492C72.6911 51.9603 73.2192 51.8651 73.8511 51.8651C74.4836 51.8651 75.0104 51.9616 75.4304 52.153C75.8503 52.3458 76.16 52.6073 76.3589 52.9392C76.5578 53.2697 76.6575 53.6454 76.6575 54.0634V57.5512C76.6575 58.345 76.4273 58.9491 75.969 59.3651C75.5106 59.7811 74.8011 59.9886 73.84 59.9886C71.9614 59.9886 71.0225 59.177 71.0225 57.5512V54.052Z" fill="#393536"/>
<path d="M79.874 58.4149H80.2137C80.5456 58.4149 80.7999 58.346 80.9766 58.2094C81.1527 58.0703 81.2401 57.8207 81.2401 57.4616C81.2401 56.798 80.9101 56.4675 80.2483 56.4675H79.874V58.4149ZM82.5096 52.0379V53.4327H79.874V55.0675H80.8182C81.5504 55.0675 82.1562 55.2449 82.6361 55.5958C83.1167 55.9493 83.3566 56.5644 83.3566 57.4412C83.3566 58.0601 83.236 58.5463 82.9947 58.8973C82.7541 59.2495 82.4457 59.4907 82.0727 59.6196C81.6985 59.7497 81.2805 59.8148 80.8182 59.8148H77.7842V52.0379H82.5096Z" fill="#393536"/>
<path d="M90.2145 52.0378L88.3516 58.0268C88.1925 58.5398 88.0191 58.9291 87.8319 59.1945C87.6448 59.4599 87.4055 59.6437 87.1134 59.7471C86.8212 59.8504 86.4241 59.9015 85.9227 59.9015C85.4011 59.9015 85.0509 59.8339 84.8716 59.696V58.3732C84.974 58.4097 85.1468 58.4288 85.3913 58.4288C85.6547 58.4288 85.8203 58.342 85.8868 58.1672L83.9268 52.0378H86.1144L86.9021 55.4273C86.9262 55.537 86.9464 55.7616 86.9627 56.1036C86.9797 56.4436 86.996 56.7519 87.0116 57.0301H87.0351C87.1023 56.244 87.1694 55.7093 87.2386 55.4273L88.0504 52.0378H90.2145Z" fill="#393536"/>
<path d="M94.263 56.7394H96.3555V57.4643C96.3555 58.3435 96.1272 58.9867 95.6708 59.3925C95.2137 59.7971 94.4984 60 93.5236 60C92.882 60 92.3519 59.9119 91.9332 59.7346C91.5153 59.5597 91.2036 59.2815 91.0001 58.9063C90.7967 58.5299 90.6943 58.0449 90.6943 57.4528V54.0633C90.6943 53.6452 90.7948 53.2695 90.9956 52.9377C91.1958 52.6046 91.51 52.3443 91.9365 52.1516C92.3623 51.9615 92.8918 51.865 93.5236 51.865C94.1541 51.865 94.681 51.9627 95.1048 52.1567C95.5293 52.3507 95.8436 52.6149 96.0483 52.9498C96.2531 53.2861 96.3555 53.6606 96.3555 54.0753V54.7787H94.263V53.9038C94.263 53.7136 94.1828 53.5656 94.0237 53.4559C93.8646 53.35 93.6905 53.2951 93.5014 53.2951C93.3045 53.2951 93.1363 53.3449 92.9967 53.4431C92.8572 53.5401 92.7868 53.683 92.7868 53.8693V57.7476C92.7868 58.3014 93.0254 58.5796 93.5014 58.5796C94.0094 58.5796 94.263 58.3091 94.263 57.768V56.7394Z" fill="#393536"/>
<path d="M98.7024 59.8148V53.5974H97.0586V52.0379H102.158V53.5974H100.623V59.8148H98.7024Z" fill="#393536"/>
<path d="M105.072 55.3853H105.447C106.108 55.3853 106.439 55.0527 106.439 54.3873C106.439 54.0287 106.352 53.7794 106.177 53.6413C106.003 53.5022 105.748 53.4327 105.412 53.4327H105.072V55.3853ZM102.979 59.8148V52.0379H106.015C106.478 52.0379 106.897 52.103 107.271 52.2319C107.644 52.3633 107.952 52.6045 108.193 52.9575C108.434 53.3102 108.555 53.7939 108.555 54.409C108.555 55.0063 108.435 55.4823 108.197 55.837C107.957 56.1918 107.649 56.4373 107.273 56.5754C106.896 56.7125 106.477 56.7801 106.017 56.7801H105.072V59.8148H102.979Z" fill="#393536"/>
<path d="M112.181 53.2863C111.982 53.2863 111.81 53.3424 111.669 53.4535C111.528 53.5657 111.457 53.7265 111.457 53.9351V57.8766C111.457 58.0936 111.529 58.2633 111.674 58.385C111.817 58.5075 111.987 58.5696 112.181 58.5696C112.372 58.5696 112.541 58.5075 112.686 58.3837C112.833 58.2607 112.906 58.0915 112.906 57.8766V53.9351C112.906 53.7278 112.833 53.5683 112.689 53.4547C112.545 53.3424 112.376 53.2863 112.181 53.2863ZM109.364 54.052C109.364 53.6308 109.465 53.2556 109.667 52.9277C109.869 52.5984 110.183 52.3394 110.608 52.1492C111.032 51.9603 111.562 51.8651 112.193 51.8651C112.826 51.8651 113.352 51.9616 113.771 52.153C114.192 52.3458 114.502 52.6073 114.7 52.9392C114.9 53.2697 114.999 53.6454 114.999 54.0634V57.5512C114.999 58.345 114.769 58.9491 114.311 59.3651C113.852 59.7811 113.143 59.9886 112.181 59.9886C110.303 59.9886 109.364 59.177 109.364 57.5512V54.052Z" fill="#393536"/>
<path d="M118.844 51.5823C119.174 51.5823 119.48 51.53 119.759 51.4249C120.04 51.3194 120.265 51.1617 120.437 50.9506C120.609 50.7388 120.696 50.4835 120.696 50.1857H119.922C119.851 50.4096 119.734 50.5576 119.573 50.6303C119.412 50.7031 119.185 50.7388 118.894 50.7388C118.222 50.7388 117.863 50.555 117.818 50.1857H117.02C117.075 51.1178 117.683 51.5823 118.844 51.5823ZM119.583 59.8148V58.0052C119.583 57.69 119.643 57.1489 119.766 56.382C119.89 55.615 119.958 55.1811 119.969 55.0816H119.958L118.157 59.8148H116.126V52.0379H118.121V53.9649C118.121 54.2079 118.106 54.4537 118.078 54.7013C118.047 54.9488 117.998 55.3182 117.931 55.8102C117.863 56.2995 117.821 56.6716 117.806 56.9218H117.818L119.583 52.0379H121.578V59.8148H119.583Z" fill="#393536"/>
<path d="M126.168 56.7394H128.262V57.4643C128.262 58.3435 128.033 58.9867 127.577 59.3925C127.12 59.7971 126.404 60 125.43 60C124.788 60 124.258 59.9119 123.839 59.7346C123.421 59.5597 123.11 59.2815 122.906 58.9063C122.703 58.5299 122.6 58.0449 122.6 57.4528V54.0633C122.6 53.6452 122.702 53.2695 122.902 52.9377C123.103 52.6046 123.416 52.3443 123.842 52.1516C124.268 51.9615 124.798 51.865 125.43 51.865C126.06 51.865 126.588 51.9627 127.01 52.1567C127.436 52.3507 127.75 52.6149 127.955 52.9498C128.159 53.2861 128.262 53.6606 128.262 54.0753V54.7787H126.168V53.9038C126.168 53.7136 126.089 53.5656 125.93 53.4559C125.771 53.35 125.596 53.2951 125.407 53.2951C125.21 53.2951 125.042 53.3449 124.903 53.4431C124.762 53.5401 124.692 53.683 124.692 53.8693V57.7476C124.692 58.3014 124.931 58.5796 125.407 58.5796C125.915 58.5796 126.168 58.3091 126.168 57.768V56.7394Z" fill="#393536"/>
<path d="M130.608 59.8148V53.5974H128.965V52.0379H134.065V53.5974H132.53V59.8148H130.608Z" fill="#393536"/>
<path d="M136.919 56.445V58.4174H137.391C137.777 58.4174 138.043 58.346 138.188 58.2005C138.333 58.055 138.406 57.8023 138.406 57.4424C138.406 57.1017 138.333 56.8508 138.188 56.6895C138.043 56.5274 137.793 56.445 137.438 56.445H136.919ZM136.919 53.4327V55.0489H137.537C137.828 55.0489 138.039 54.9782 138.166 54.8391C138.293 54.6974 138.356 54.4721 138.356 54.1602C138.356 53.6752 138.083 53.4327 137.537 53.4327H136.919ZM137.814 59.8148H134.9V52.0379H138.236C138.598 52.0379 138.941 52.1056 139.267 52.2421C139.593 52.3799 139.859 52.5931 140.066 52.8878C140.272 53.1814 140.376 53.5476 140.376 53.9866C140.376 54.4652 140.251 54.8442 139.999 55.1262C139.748 55.4082 139.478 55.5767 139.192 55.6341C139.62 55.7936 139.939 56.0175 140.149 56.3067C140.356 56.5951 140.46 56.9988 140.46 57.519C140.46 58.2546 140.237 58.8207 139.793 59.2181C139.346 59.6157 138.686 59.8148 137.814 59.8148Z" fill="#393536"/>
<path d="M144.098 53.2863C143.899 53.2863 143.727 53.3424 143.586 53.4535C143.444 53.5657 143.374 53.7265 143.374 53.9351V57.8766C143.374 58.0936 143.445 58.2633 143.591 58.385C143.735 58.5075 143.904 58.5696 144.098 58.5696C144.288 58.5696 144.458 58.5075 144.603 58.3837C144.75 58.2607 144.824 58.0915 144.824 57.8766V53.9351C144.824 53.7278 144.752 53.5683 144.606 53.4547C144.462 53.3424 144.293 53.2863 144.098 53.2863ZM141.28 54.052C141.28 53.6308 141.382 53.2556 141.585 52.9277C141.785 52.5984 142.099 52.3394 142.524 52.1492C142.95 51.9603 143.479 51.8651 144.111 51.8651C144.743 51.8651 145.268 51.9616 145.689 52.153C146.109 52.3458 146.419 52.6073 146.617 52.9392C146.817 53.2697 146.916 53.6454 146.916 54.0634V57.5512C146.916 58.345 146.686 58.9491 146.227 59.3651C145.77 59.7811 145.059 59.9886 144.098 59.9886C142.22 59.9886 141.28 59.177 141.28 57.5512V54.052Z" fill="#393536"/>
<path d="M152.445 59.8148V53.5974H150.801V52.0379H155.901V53.5974H154.366V59.8148H152.445Z" fill="#393536"/>
<path d="M156.722 59.8148V52.0379H161.583V53.5101H158.814V55.0152H161.379V56.4879H158.814V58.3421H161.583V59.8148H156.722Z" fill="#393536"/>
<path d="M164.702 55.3853H165.076C165.738 55.3853 166.07 55.0527 166.07 54.3873C166.07 54.0287 165.982 53.7794 165.807 53.6413C165.634 53.5022 165.378 53.4327 165.041 53.4327H164.702V55.3853ZM162.61 59.8148V52.0379H165.646C166.108 52.0379 166.526 52.103 166.9 52.2319C167.275 52.3633 167.582 52.6045 167.824 52.9575C168.065 53.3102 168.185 53.7939 168.185 54.409C168.185 55.0063 168.067 55.4823 167.826 55.837C167.588 56.1918 167.28 56.4373 166.903 56.5754C166.526 56.7125 166.107 56.7801 165.647 56.7801H164.702V59.8148H162.61Z" fill="#393536"/>
<path d="M171.22 55.3853H171.595C172.256 55.3853 172.588 55.0527 172.588 54.3873C172.588 54.0287 172.5 53.7794 172.326 53.6413C172.152 53.5022 171.896 53.4327 171.559 53.4327H171.22V55.3853ZM169.128 59.8148V52.0379H172.164C172.626 52.0379 173.045 52.103 173.418 52.2319C173.792 52.3633 174.1 52.6045 174.341 52.9575C174.582 53.3102 174.704 53.7939 174.704 54.409C174.704 55.0063 174.584 55.4823 174.345 55.837C174.106 56.1918 173.797 56.4373 173.421 56.5754C173.044 56.7125 172.626 56.7801 172.165 56.7801H171.22V59.8148H169.128Z" fill="#393536"/>
<path d="M179.104 59.8148V58.0052C179.104 57.69 179.165 57.1489 179.289 56.382C179.411 55.615 179.478 55.1811 179.491 55.0816H179.478L177.677 59.8148H175.647V52.0379H177.643V53.9649C177.643 54.2079 177.628 54.4537 177.598 54.7013C177.568 54.9488 177.52 55.3182 177.452 55.8102C177.385 56.2995 177.343 56.6716 177.327 56.9218H177.338L179.104 52.0379H181.098V59.8148H179.104Z" fill="#393536"/>
<path d="M183.554 59.8148V53.5974H181.91V52.0379H187.011V53.5974H185.476V59.8148H183.554Z" fill="#393536"/>
<path d="M190.515 53.2863C190.314 53.2863 190.143 53.3424 190.002 53.4535C189.862 53.5657 189.79 53.7265 189.79 53.9351V57.8766C189.79 58.0936 189.862 58.2633 190.007 58.385C190.151 58.5075 190.32 58.5696 190.515 58.5696C190.705 58.5696 190.874 58.5075 191.02 58.3837C191.167 58.2607 191.24 58.0915 191.24 57.8766V53.9351C191.24 53.7278 191.168 53.5683 191.023 53.4547C190.879 53.3424 190.709 53.2863 190.515 53.2863ZM187.697 54.052C187.697 53.6308 187.799 53.2556 188.001 52.9277C188.203 52.5984 188.515 52.3394 188.941 52.1492C189.367 51.9603 189.895 51.8651 190.527 51.8651C191.159 51.8651 191.686 51.9616 192.106 52.153C192.526 52.3458 192.835 52.6073 193.034 52.9392C193.233 53.2697 193.332 53.6454 193.332 54.0634V57.5512C193.332 58.345 193.103 58.9491 192.644 59.3651C192.186 59.7811 191.475 59.9886 190.515 59.9886C188.637 59.9886 187.697 59.177 187.697 57.5512V54.052Z" fill="#393536"/>
<path d="M196.55 55.3853H196.925C197.587 55.3853 197.917 55.0527 197.917 54.3873C197.917 54.0287 197.83 53.7794 197.656 53.6413C197.481 53.5022 197.227 53.4327 196.89 53.4327H196.55V55.3853ZM194.458 59.8148V52.0379H197.493C197.956 52.0379 198.374 52.103 198.749 52.2319C199.123 52.3633 199.43 52.6045 199.672 52.9575C199.912 53.3102 200.032 53.7939 200.032 54.409C200.032 55.0063 199.914 55.4823 199.674 55.837C199.434 56.1918 199.128 56.4373 198.751 56.5754C198.374 56.7125 197.955 56.7801 197.494 56.7801H196.55V59.8148H194.458Z" fill="#393536"/>
<path d="M204.433 59.8148V58.0052C204.433 57.69 204.495 57.1489 204.619 56.382C204.742 55.615 204.809 55.1811 204.82 55.0816H204.809L203.008 59.8148H200.979V52.0379H202.973V53.9649C202.973 54.2079 202.959 54.4537 202.929 54.7013C202.899 54.9488 202.85 55.3182 202.783 55.8102C202.716 56.2995 202.672 56.6716 202.658 56.9218H202.669L204.433 52.0379H206.429V59.8148H204.433Z" fill="#393536"/>
<path d="M211.107 59.8148V58.0052C211.107 57.69 211.169 57.1489 211.292 56.382C211.415 55.615 211.483 55.1811 211.494 55.0816H211.483L209.682 59.8148H207.65V52.0379H209.647V53.9649C209.647 54.2079 209.632 54.4537 209.603 54.7013C209.572 54.9488 209.523 55.3182 209.457 55.8102C209.388 56.2995 209.346 56.6716 209.33 56.9218H209.342L211.107 52.0379H213.102V59.8148H211.107Z" fill="#393536"/>
</svg>
