<svg width="20" height="20" viewBox="0 0 20 20" fill="none" xmlns="http://www.w3.org/2000/svg">
<g clip-path="url(#clip0)">
<path d="M9.93674 10.625L20 10.625L20 9.37501L9.93674 9.375C9.64638 7.95036 8.38402 6.875 6.87497 6.875C5.36593 6.875 4.10361 7.95036 3.81321 9.375L-4.01636e-05 9.375L-4.02182e-05 10.625L3.81321 10.625C4.10357 12.0497 5.36593 13.125 6.87497 13.125C8.38402 13.125 9.64638 12.0497 9.93674 10.625ZM5.00001 10C5.00001 8.96612 5.84109 8.12504 6.87501 8.12504C7.90894 8.12504 8.75002 8.96612 8.75002 10C8.75002 11.034 7.90894 11.8751 6.87501 11.8751C5.84105 11.875 5.00001 11.034 5.00001 10Z" fill="#8B8D8D" stroke="#8B8D8D" stroke-width="0.2"/>
<path d="M16.1868 3.75001L20 3.75001L20 2.50001L16.1868 2.50001C15.8964 1.07536 14.634 -2.34554e-07 13.125 -3.00516e-07C11.6159 -3.66479e-07 10.3536 1.07536 10.0632 2.50001L-4.01636e-05 2.5L-4.02182e-05 3.75001L10.0633 3.75001C10.3536 5.17465 11.616 6.25001 13.125 6.25001C14.6341 6.25001 15.8964 5.17465 16.1868 3.75001ZM11.25 3.12501C11.25 2.09108 12.0911 1.25 13.125 1.25C14.1589 1.25 15 2.09108 15 3.12501C15 4.15893 14.1589 5.00001 13.125 5.00001C12.091 5.00001 11.25 4.15893 11.25 3.12501Z" fill="#8B8D8D" stroke="#8B8D8D" stroke-width="0.2"/>
<path d="M13.125 20C14.634 20 15.8964 18.9247 16.1868 17.5L20 17.5L20 16.25L16.1868 16.25C15.8964 14.8254 14.634 13.75 13.125 13.75C11.6159 13.75 10.3536 14.8254 10.0632 16.25L-3.82563e-05 16.25L-3.83109e-05 17.5L10.0633 17.5C10.3536 18.9247 11.616 20 13.125 20ZM11.25 16.875C11.25 15.8411 12.0911 15 13.125 15C14.1589 15 15 15.8411 15 16.875C15 17.9089 14.1589 18.75 13.125 18.75C12.0911 18.75 11.25 17.909 11.25 16.875Z" fill="#8B8D8D" stroke="#8B8D8D" stroke-width="0.2"/>
</g>
<defs>
<clipPath id="clip0">
<rect width="20" height="20" fill="white" transform="translate(20) rotate(90)"/>
</clipPath>
</defs>
</svg>
