<svg width="22" height="31" viewBox="0 0 22 31" fill="none" xmlns="http://www.w3.org/2000/svg">
<path d="M10.9996 0.127441C5.00871 0.127441 0.134766 4.98197 0.134766 10.949C0.134766 18.3542 9.85775 29.2255 10.2717 29.6847C10.6605 30.116 11.3394 30.1153 11.7275 29.6847C12.1415 29.2255 21.8645 18.3542 21.8645 10.949C21.8644 4.98197 16.9905 0.127441 10.9996 0.127441ZM10.9996 16.3936C7.98545 16.3936 5.5333 13.9511 5.5333 10.949C5.5333 7.94679 7.98551 5.50441 10.9996 5.50441C14.0137 5.50441 16.4659 7.94685 16.4659 10.949C16.4659 13.9512 14.0137 16.3936 10.9996 16.3936Z" fill="#006843"/>
</svg>
