<svg width="73" height="82" viewBox="0 0 73 82" fill="none" xmlns="http://www.w3.org/2000/svg">
<g clip-path="url(#clip0)">
<path d="M36.5129 8.52405C21.9084 8.52192 8.70906 17.2273 2.96075 30.653L2.50581 30.8039L2.68219 31.333C-4.88633 49.9998 4.11041 71.2677 22.7772 78.8362C27.137 80.604 31.7975 81.5114 36.5021 81.5088C56.6563 81.5119 72.997 65.1761 73 45.0219C73.003 24.8678 56.6672 8.52694 36.5129 8.52405ZM65.1371 63.4153L63.2632 61.5426V57.1806C63.2653 56.9923 63.2237 56.8062 63.1416 56.6368L58.3976 47.1622V42.5836C58.3976 42.177 58.1946 41.7972 57.8563 41.5716L54.207 39.1387C53.921 38.9478 53.5675 38.8868 53.2339 38.9709L48.7648 40.0875L41.2583 36.8665L40.2256 29.6313L43.0878 26.7702H49.2319L51.2998 29.8782C51.4865 30.1577 51.7807 30.3476 52.1124 30.4025L59.4108 31.6189C59.6064 31.6517 59.8068 31.6357 59.9947 31.5726L66.7166 29.332C72.3545 40.1512 71.7515 53.164 65.1371 63.4153ZM60.12 20.5106L58.1421 21.8292L52.6281 20.7259L49.0506 19.535C48.8317 19.4607 48.596 19.4512 48.3719 19.5083L43.8493 20.6383L41.8665 19.9778L43.3359 17.0389H47.4498C47.6385 17.0391 47.8247 16.9955 47.9936 16.9112L52.2024 14.8068C55.1008 16.3197 57.7672 18.2405 60.12 20.5106ZM23.1788 13.6731L26.0981 15.6194C26.2417 15.7149 26.4038 15.7787 26.5738 15.8067L32.4685 16.7896L31.8931 18.5108L28.8217 19.5362C28.5466 19.6278 28.3132 19.8145 28.1636 20.0629L24.6701 25.8847L19.0588 29.2517L10.7872 30.4329C10.1876 30.5176 9.7418 31.0304 9.74104 31.6359V35.2851C9.74104 35.6078 9.86937 35.9171 10.0974 36.1451L12.1739 38.2216V40.3114L7.11358 36.937L5.27802 31.4303C8.77034 23.4507 15.1713 17.101 23.1788 13.6731ZM19.7156 53.5557L14.2174 52.4548L12.1739 48.3786V45.52L16.7062 40.9877L18.3837 44.3438C18.5897 44.7561 19.0113 45.0166 19.4723 45.0164H27.2987L30.594 50.5086C30.8139 50.8745 31.2095 51.0984 31.6365 51.0985H35.0181L34.1666 55.3645L29.5613 59.9698C29.3327 60.1977 29.2041 60.507 29.2036 60.8298V63.8708L24.8246 67.1552C24.5183 67.3849 24.338 67.7454 24.338 68.1283V72.522L22.8248 72.0208L20.6888 66.6783V54.7478C20.6889 54.1697 20.282 53.6712 19.7156 53.5557ZM16.0591 72.2551C4.58998 63.6507 -0.260315 48.7837 3.9278 35.0711L4.93864 38.1024C5.02378 38.3589 5.19195 38.5798 5.41669 38.73L11.4805 42.7722L10.0974 44.1564C9.86937 44.3845 9.74104 44.6938 9.74104 45.0164V48.6657C9.74088 48.8544 9.78452 49.0405 9.86876 49.2094L12.3016 54.0751C12.4701 54.4111 12.7843 54.6504 13.1531 54.7234L18.262 55.744V66.9119C18.2619 67.0664 18.2912 67.2196 18.3484 67.3632L20.7812 73.4452C20.9144 73.7775 21.1872 74.0343 21.5269 74.1471L25.1761 75.3635C25.298 75.4049 25.4258 75.4262 25.5544 75.4268C26.2262 75.4268 26.7708 74.8821 26.7708 74.2104V68.7365L31.1499 65.4522C31.4561 65.2224 31.6365 64.8619 31.6365 64.4791V61.3334L36.1457 56.8242C36.3153 56.6543 36.4308 56.438 36.4778 56.2026L37.6942 50.1205C37.8259 49.4617 37.3986 48.8209 36.7398 48.6893C36.6615 48.6736 36.582 48.6657 36.5021 48.6657H32.325L29.0297 43.1736C28.8098 42.8076 28.4142 42.5838 27.9872 42.5836H20.2241L18.1343 38.3906C17.9593 38.0406 17.6266 37.7961 17.2402 37.7338C16.854 37.667 16.4597 37.7944 16.1856 38.0744L14.6067 39.6472V37.718C14.6067 37.3953 14.4784 37.086 14.2503 36.858L12.1739 34.7815V32.6905L19.6451 31.6237C19.8055 31.6005 19.9598 31.5454 20.0988 31.462L26.1809 27.8127C26.3515 27.7102 26.4944 27.5673 26.5969 27.3967L30.015 21.7002L33.2373 20.6249C33.6011 20.5056 33.8867 20.2202 34.006 19.8562L35.2225 16.2069C35.4332 15.5691 35.087 14.881 34.4491 14.6703C34.3903 14.6508 34.3299 14.6359 34.2688 14.6256L27.2282 13.4517L25.9911 12.627C33.6458 10.1355 41.9366 10.4439 49.3852 13.4967L47.1628 14.6061H42.5842C42.1209 14.6035 41.6965 14.8644 41.4894 15.2788L39.0566 20.1444C38.7569 20.7457 39.0012 21.4761 39.6025 21.7758C39.6537 21.8014 39.7066 21.8232 39.7609 21.8413L43.4101 23.0578C43.6291 23.1321 43.8648 23.1415 44.0889 23.0845L48.6115 21.9545L51.925 23.0578C51.9725 23.0748 52.0213 23.0879 52.071 23.0967L58.1531 24.3131C58.4693 24.3776 58.7984 24.3128 59.0666 24.1331L61.8351 22.2865C63.1977 23.8042 64.4221 25.4403 65.4941 27.1753L59.5094 29.1702L53.0295 28.0901L50.8886 24.8787C50.6642 24.5422 50.2871 24.3394 49.8827 24.3374H42.5842C42.2615 24.3374 41.9523 24.4658 41.7242 24.6938L38.075 28.3431C37.804 28.6139 37.6764 28.9966 37.7307 29.3758L38.9471 37.8907C39.0084 38.3117 39.2851 38.6701 39.677 38.8358L48.1919 42.4851C48.4357 42.5908 48.7079 42.6125 48.9655 42.5471L53.3093 41.4609L55.9647 43.2344V47.4493C55.9626 47.6375 56.0043 47.8236 56.0864 47.993L60.8304 57.4677V62.0462C60.8304 62.3689 60.9587 62.6782 61.1868 62.9062L63.7315 65.4522C52.4458 80.4951 31.102 83.541 16.0591 72.2551Z" fill="#C2C6C6"/>
</g>
<g clip-path="url(#clip1)">
<path d="M42.8423 11.0157C42.8423 4.11321 48.4555 -1.5 55.358 -1.5C62.2606 -1.5 67.8737 4.11322 67.8738 11.0157C67.8738 13.1988 67.1681 15.5247 66.1988 17.7167C65.2213 19.9273 63.9265 22.1103 62.6396 24.0365C60.0658 27.8888 57.4432 30.8325 57.2122 31.0898C56.2233 32.1911 54.4949 32.1934 53.5039 31.0898L42.8423 11.0157ZM42.8423 11.0157C42.8423 13.1988 43.548 15.5247 44.5173 17.7167M42.8423 11.0157L44.5173 17.7167M44.5173 17.7167C45.4948 19.9273 46.7896 22.1103 48.0765 24.0365M44.5173 17.7167L48.0765 24.0365M48.0765 24.0365C50.6501 27.8885 53.2725 30.832 53.5039 31.0897L48.0765 24.0365ZM55.358 15.058C53.1305 15.058 51.3158 13.2433 51.3158 11.0157C51.3158 8.7881 53.1305 6.97346 55.358 6.97346C57.5856 6.97346 59.4002 8.78812 59.4002 11.0158C59.4002 13.2434 57.5856 15.058 55.358 15.058Z" fill="#F7901E" stroke="#F7FAFB" stroke-width="3"/>
</g>
<g clip-path="url(#clip2)">
<path d="M34.0573 53.8489V53.849C34.0573 54.826 33.7459 55.8047 33.3723 56.6496C32.9905 57.5131 32.4927 58.3491 32.0112 59.0697C31.0485 60.5107 30.0707 61.6087 29.9735 61.7169L34.0573 53.8489ZM34.0573 53.8489C34.0573 50.8339 31.6068 48.3833 28.5917 48.3833C25.5765 48.3833 23.126 50.8339 23.126 53.849M34.0573 53.8489L23.126 53.849M23.126 53.849C23.126 54.826 23.4374 55.8047 23.811 56.6496M23.126 53.849L23.811 56.6496M23.811 56.6496C24.1928 57.5131 24.6906 58.3491 25.1721 59.0697M23.811 56.6496L25.1721 59.0697M25.1721 59.0697C26.1349 60.5108 27.1128 61.6089 27.2098 61.717L25.1721 59.0697ZM27.2099 61.717C27.9485 62.5396 29.2364 62.5378 29.9734 61.717H27.2099ZM28.5917 54.3442C28.3199 54.3442 28.0964 54.1207 28.0964 53.849C28.0964 53.5772 28.3199 53.3537 28.5917 53.3537C28.8633 53.3537 29.0868 53.5772 29.0868 53.849C29.0868 54.1207 28.8634 54.3442 28.5917 54.3442Z" fill="#F7901E" stroke="#F7FAFB" stroke-width="3"/>
</g>
<g clip-path="url(#clip3)">
<path d="M66.7399 42.1229V42.123C66.7399 43.1754 66.4038 44.2383 65.993 45.1673C65.5739 46.115 65.0263 47.0353 64.4945 47.8312C63.4311 49.4229 62.3505 50.6362 62.2449 50.7538C61.4922 51.5922 60.1767 51.5941 59.4223 50.7539L66.7399 42.1229ZM66.7399 42.1229C66.7398 38.8649 64.0916 36.2167 60.8336 36.2167C57.5755 36.2167 54.9272 38.8649 54.9272 42.123M66.7399 42.1229L54.9272 42.123M54.9272 42.123C54.9272 43.1754 55.2633 44.2383 55.6741 45.1673M54.9272 42.123L55.6741 45.1673M55.6741 45.1673C56.0932 46.115 56.6408 47.0353 57.1726 47.8312M55.6741 45.1673L57.1726 47.8312M57.1726 47.8312C58.2361 49.423 59.3168 50.6364 59.4222 50.7538L57.1726 47.8312ZM60.8336 42.8399C60.4396 42.8399 60.1167 42.517 60.1167 42.123C60.1167 41.729 60.4396 41.4061 60.8336 41.4061C61.2275 41.4061 61.5504 41.729 61.5504 42.123C61.5504 42.517 61.2275 42.8399 60.8336 42.8399Z" fill="#F7901E" stroke="#F7FAFB" stroke-width="3"/>
</g>
<defs>
<clipPath id="clip0">
<rect width="73" height="73" fill="white" transform="translate(0 8.5166)"/>
</clipPath>
<clipPath id="clip1">
<rect width="30.4167" height="30.4167" fill="white" transform="translate(40.1499)"/>
</clipPath>
<clipPath id="clip2">
<rect width="10.95" height="10.95" fill="white" transform="translate(23.1167 49.8833)"/>
</clipPath>
<clipPath id="clip3">
<rect width="12.1667" height="12.1667" fill="white" transform="translate(54.75 37.7167)"/>
</clipPath>
</defs>
</svg>
