<svg width="22" height="31" viewBox="0 0 22 31" fill="none" xmlns="http://www.w3.org/2000/svg">
<path d="M10.9996 0.290771C5.00871 0.290771 0.134766 5.1453 0.134766 11.1123C0.134766 18.5175 9.85775 29.3888 10.2717 29.848C10.6605 30.2793 11.3394 30.2786 11.7275 29.848C12.1415 29.3888 21.8645 18.5175 21.8645 11.1123C21.8644 5.1453 16.9905 0.290771 10.9996 0.290771ZM10.9996 16.5569C7.98545 16.5569 5.5333 14.1145 5.5333 11.1123C5.5333 8.11012 7.98551 5.66774 10.9996 5.66774C14.0137 5.66774 16.4659 8.11018 16.4659 11.1124C16.4659 14.1145 14.0137 16.5569 10.9996 16.5569Z" fill="#F7901E"/>
</svg>
