<svg width="141" height="31" viewBox="0 0 141 31" fill="none" xmlns="http://www.w3.org/2000/svg">
<path fill-rule="evenodd" clip-rule="evenodd" d="M0 24.2587H27.6584V28.0569H0V24.2587ZM0 0.998684H27.6584V22.9052H21.4228V13.8918C21.4228 9.85327 18.0058 6.54993 13.829 6.54993C9.65294 6.54993 6.23529 9.85327 6.23529 13.8918V22.9052H0V0.998684Z" fill="#006946"/>
<path fill-rule="evenodd" clip-rule="evenodd" d="M136.821 13.9797V11.6649H138.064C138.351 11.6649 138.553 11.7307 138.67 11.8631C138.786 11.9947 138.845 12.1482 138.845 12.3234C138.845 12.4752 138.814 12.5938 138.75 12.6802C138.687 12.7666 138.615 12.8285 138.539 12.8661C138.524 12.8745 138.511 12.8808 138.496 12.8864C138.482 12.8911 138.469 12.8962 138.457 12.8998V12.9093C138.582 12.943 138.666 12.9997 138.71 13.0798C138.754 13.1599 138.779 13.2447 138.789 13.3338C138.79 13.357 138.792 13.3798 138.792 13.4025C138.793 13.4258 138.794 13.4482 138.794 13.4715C138.797 13.6107 138.802 13.7117 138.809 13.7752C138.816 13.8386 138.835 13.8944 138.865 13.9425C138.866 13.9483 138.87 13.9551 138.874 13.9607C138.879 13.967 138.882 13.9737 138.887 13.9797H138.855H138.288C138.254 13.9321 138.23 13.8758 138.219 13.8116C138.207 13.7466 138.2 13.6383 138.195 13.4869C138.195 13.4762 138.195 13.4651 138.194 13.4524C138.193 13.4398 138.192 13.4287 138.192 13.4184C138.186 13.3457 138.16 13.278 138.114 13.2167C138.068 13.1556 137.966 13.125 137.809 13.125H137.41V13.9797H137.378H136.821ZM137.41 12.1141V12.704H137.888C137.892 12.704 137.893 12.704 137.894 12.704C137.895 12.704 137.896 12.704 137.899 12.704C137.986 12.7019 138.066 12.681 138.139 12.6414C138.213 12.6017 138.249 12.5259 138.249 12.4138C138.249 12.293 138.212 12.2127 138.139 12.1731C138.066 12.1339 137.976 12.1141 137.87 12.1141H137.41ZM137.807 10.6746H137.809C138.413 10.6759 138.961 10.918 139.359 11.3065C139.754 11.6934 140 12.2278 140.002 12.8161V12.8221V12.8248C140.001 13.4155 139.754 13.9528 139.356 14.3408C138.961 14.7271 138.414 14.9679 137.813 14.97H137.807H137.804C137.201 14.9689 136.651 14.7271 136.254 14.3384C135.86 13.9512 135.613 13.4163 135.612 12.8285V12.8221V12.8197C135.612 12.2294 135.86 11.6923 136.258 11.3038C136.652 10.9172 137.2 10.6762 137.8 10.6746H137.807ZM137.809 11.094H137.8C137.319 11.0953 136.877 11.29 136.56 11.6003C136.24 11.9127 136.041 12.3452 136.041 12.8197V12.8221V12.8285C136.042 13.3002 136.24 13.7315 136.558 14.0424C136.877 14.3547 137.319 14.5498 137.804 14.5501H137.807H137.813C138.296 14.5495 138.737 14.3547 139.054 14.0442C139.374 13.7323 139.572 13.2998 139.573 12.8248V12.8221V12.8161C139.571 12.3441 139.374 11.9135 139.056 11.6019C138.738 11.29 138.295 11.0945 137.809 11.094Z" fill="#006946"/>
<path fill-rule="evenodd" clip-rule="evenodd" d="M32.1362 23.2573H35.4879V25.6772C35.4879 25.9189 35.5293 26.0803 35.6119 26.1612C35.6948 26.282 35.8187 26.3224 35.9842 26.3224C36.1912 26.3224 36.3156 26.282 36.3981 26.2016C36.4809 26.1211 36.5222 25.9598 36.5222 25.6772V23.3783C36.5222 23.0963 36.4809 22.8545 36.3156 22.7329C36.1501 22.6127 35.9016 22.4509 35.4879 22.2894L33.9157 21.7247C33.2535 21.4429 32.7984 21.2011 32.5087 20.8776C32.2602 20.5962 32.1362 20.0713 32.1362 19.3458V17.6515C32.1362 16.5225 32.3847 15.7966 32.8812 15.4339C33.3777 15.0708 34.4946 14.9093 36.1912 14.9093C37.722 14.9093 38.7151 15.0708 39.212 15.3935C39.6668 15.7561 39.8736 16.5629 39.8736 17.8532V19.3855H36.5222V17.3693C36.5222 17.1274 36.4809 16.966 36.3981 16.8856C36.3156 16.7646 36.1912 16.7238 35.9842 16.7238C35.8187 16.7238 35.6946 16.7646 35.6119 16.8452C35.5293 16.966 35.4879 17.1274 35.4879 17.3693V19.104C35.4879 19.5876 35.8602 19.95 36.5637 20.2327C36.6464 20.2735 36.7289 20.3134 36.8117 20.3134L38.4671 20.9989C39.0048 21.2011 39.3773 21.4429 39.5843 21.7247C39.7913 22.0075 39.8736 22.4914 39.8736 23.136V25.1936C39.8736 26.4834 39.6668 27.3306 39.1701 27.653C38.7151 27.9756 37.6393 28.1378 35.9431 28.1378C34.3707 28.1378 33.3362 27.9756 32.8397 27.653C32.3847 27.2905 32.1362 26.4834 32.1362 25.1936V23.2573ZM41.6943 10.6747H45.0048V14.9902H46.3285V16.8047H45.0048V25.6772C45.0048 25.9189 45.0874 26.0803 45.2114 26.1612C45.3351 26.2421 45.5836 26.282 45.9148 26.282H46.3285V28.0968H44.9629C43.6803 28.0968 42.8114 27.9356 42.3562 27.6132C41.901 27.3306 41.6943 26.5643 41.6943 25.4354V16.8047H40.7839V14.9902H41.6943V10.6747ZM51.7486 22.0476L51.1697 22.2894C51.0041 22.3296 50.8801 22.4509 50.7971 22.5318C50.7145 22.6523 50.673 22.7737 50.673 22.9351V23.0963V25.6368C50.673 25.8792 50.7141 26.0803 50.7971 26.1612C50.8801 26.282 51.0452 26.3224 51.2523 26.3224C51.4178 26.3224 51.5419 26.282 51.6245 26.2016C51.7071 26.0803 51.7486 25.9189 51.7486 25.6368V22.0476ZM55.1001 17.4501V28.0569H51.7486V27.5323C51.4589 27.7337 51.1282 27.8949 50.7971 27.9756C50.4249 28.0968 50.0522 28.1378 49.68 28.1378C48.8111 28.1378 48.2319 27.9356 47.8592 27.5323C47.487 27.1296 47.3215 26.3629 47.3215 25.1936V22.9747C47.3215 22.4509 47.4455 22.0476 47.6941 21.7656C47.9422 21.4829 48.3559 21.2411 48.9352 20.9585L51.7486 19.8295V17.4097C51.7486 17.1274 51.7071 16.966 51.6245 16.8856C51.5419 16.8047 51.3763 16.7238 51.2112 16.7238C51.0041 16.7238 50.8801 16.8047 50.7971 16.8856C50.7145 17.0061 50.673 17.1679 50.673 17.4097V19.3855H47.3215V17.4501C47.3215 16.4017 47.5696 15.7161 48.0663 15.3935C48.6041 15.0708 49.6385 14.9093 51.2112 14.9093C52.7834 14.9093 53.8586 15.0708 54.3553 15.4339C54.8516 15.7561 55.1001 16.4421 55.1001 17.4501ZM64.534 17.9747V28.0569H61.2239V17.4905C61.2239 17.2487 61.1824 17.087 61.0999 17.0061C61.0169 16.9256 60.8513 16.8856 60.6862 16.8856C60.4791 16.8856 60.355 16.9256 60.272 17.0061C60.1895 17.087 60.1484 17.2487 60.1484 17.4905V28.0569H56.7964V14.9902H60.1484V15.5544C60.438 15.353 60.7272 15.1916 61.0584 15.0708C61.3895 14.9494 61.7206 14.9093 62.0518 14.9093C62.9617 14.9093 63.624 15.1112 63.9962 15.5143C64.3684 15.958 64.534 16.7646 64.534 17.9747ZM70.5765 17.531C70.5765 17.2487 70.5765 17.087 70.4939 17.0061C70.4113 16.9256 70.2458 16.8856 70.0806 16.8856C69.8736 16.8856 69.7491 16.9256 69.6665 17.0469C69.5835 17.1274 69.5424 17.2887 69.5424 17.531V25.5562C69.5424 25.7579 69.5835 25.9598 69.6665 26.0407C69.708 26.1211 69.8317 26.1612 70.0391 26.1612C70.2458 26.1612 70.3698 26.1211 70.4524 25.9998C70.535 25.9189 70.5765 25.7579 70.5765 25.5562V17.531ZM70.5765 10.6747H73.9276V28.0569H70.5765V27.5323C70.3284 27.6938 70.0391 27.855 69.708 27.9756C69.3769 28.0569 69.0457 28.1378 68.6735 28.1378C67.7635 28.1378 67.1428 27.8949 66.7706 27.4921C66.3979 27.0888 66.1909 26.282 66.1909 25.0721V17.9747C66.1909 16.7646 66.3979 15.958 66.7706 15.5143C67.1428 15.1112 67.8046 14.9093 68.715 14.9093C69.0457 14.9093 69.3769 14.9494 69.708 15.0708C70.0391 15.1916 70.3284 15.353 70.5765 15.5544V10.6747ZM79.9689 22.0476L79.4315 22.2894C79.266 22.3296 79.1423 22.4509 79.0585 22.5318C78.9759 22.6523 78.9348 22.7737 78.9348 22.9351V23.0963V25.6368C78.9348 25.8792 78.9759 26.0803 79.0585 26.1612C79.1423 26.282 79.266 26.3224 79.4726 26.3224C79.6801 26.3224 79.8042 26.282 79.8863 26.2016C79.9282 26.0803 79.9689 25.9189 79.9689 25.6368V22.0476ZM83.3619 17.4501V28.0569H79.9689V27.5323C79.6801 27.7337 79.39 27.8949 79.0182 27.9756C78.6867 28.0968 78.3137 28.1378 77.9419 28.1378C77.0721 28.1378 76.4522 27.9356 76.1215 27.5323C75.7497 27.1296 75.5833 26.3629 75.5833 25.1936V22.9747C75.5833 22.4509 75.7073 22.0476 75.914 21.7656C76.1621 21.4829 76.5763 21.2411 77.197 20.9585L79.9689 19.8295V17.4097C79.9689 17.1274 79.9282 16.966 79.8448 16.8856C79.7622 16.8047 79.6382 16.7238 79.4315 16.7238C79.266 16.7238 79.1423 16.8047 79.0585 16.8856C78.9759 17.0061 78.9348 17.1679 78.9348 17.4097V19.3855H75.5833V17.4501C75.5833 16.4017 75.8314 15.7161 76.3281 15.3935C76.8244 15.0708 77.8585 14.9093 79.4315 14.9093C81.0453 14.9093 82.0793 15.0708 82.576 15.4339C83.1134 15.7561 83.3619 16.4421 83.3619 17.4501ZM92.6303 17.9747V20.3134H89.4439V17.4905C89.4439 17.2487 89.4032 17.087 89.3198 17.0061C89.238 16.9256 89.114 16.8856 88.9057 16.8856C88.7409 16.8856 88.6173 16.9256 88.5343 17.0061C88.4517 17.087 88.4106 17.2487 88.4106 17.4905V28.0569H85.0591V14.9902H88.4106V15.5544C88.6583 15.353 88.9476 15.1916 89.2791 15.0708C89.6098 14.9494 89.9414 14.9093 90.2298 14.9093C91.0995 14.9093 91.7194 15.1112 92.0925 15.5544C92.4643 15.958 92.6303 16.7646 92.6303 17.9747ZM94.0788 8.23477H97.3885V10.6747H126.021V12.4896H97.3885V25.6772C97.3885 25.9189 97.4711 26.0803 97.5943 26.1612C97.7192 26.2421 97.9673 26.282 98.2997 26.282H98.713V28.0968H97.3474C96.0652 28.0968 95.1946 27.9356 94.7399 27.6132C94.2855 27.3306 94.0788 26.5643 94.0788 25.4354V12.4896H75.7547V10.6747H94.0788V8.23477ZM107.651 17.9747V25.0721C107.651 26.2421 107.484 27.0487 107.112 27.4921C106.74 27.9356 106.119 28.1378 105.251 28.1378C104.878 28.1378 104.506 28.0968 104.175 27.9756C103.844 27.855 103.554 27.7337 103.264 27.4921V30.8007H99.913V14.9902H103.264V15.5544C103.554 15.353 103.844 15.1916 104.175 15.0708C104.506 14.9494 104.836 14.9093 105.167 14.9093C106.078 14.9093 106.699 15.1112 107.07 15.5143C107.484 15.958 107.651 16.7646 107.651 17.9747ZM104.298 17.531C104.298 17.4501 104.298 17.4097 104.298 17.3693C104.298 17.2887 104.298 17.2487 104.298 17.2487C104.298 17.1679 104.257 17.087 104.133 17.0061C104.051 16.9256 103.968 16.8856 103.802 16.8856C103.595 16.8856 103.47 16.9256 103.388 17.0469C103.306 17.1274 103.264 17.2887 103.264 17.531V25.5161C103.264 25.7579 103.306 25.9189 103.388 26.0407C103.47 26.1211 103.595 26.1612 103.802 26.1612C103.968 26.1612 104.092 26.1211 104.216 25.9998C104.257 25.9189 104.298 25.7579 104.298 25.5161V17.531ZM113.525 22.0476L112.945 22.2894C112.781 22.3296 112.657 22.4509 112.573 22.5318C112.491 22.6523 112.45 22.7737 112.45 22.9351V23.0963V25.6368C112.45 25.8792 112.491 26.0803 112.573 26.1612C112.657 26.282 112.821 26.3224 113.03 26.3224C113.194 26.3224 113.319 26.282 113.401 26.2016C113.483 26.0803 113.525 25.9189 113.525 25.6368V22.0476ZM116.877 17.4501V28.0569H113.525V27.5323C113.235 27.7337 112.905 27.8949 112.573 27.9756C112.201 28.0968 111.871 28.1378 111.457 28.1378C110.629 28.1378 110.008 27.9356 109.637 27.5323C109.305 27.1296 109.099 26.3629 109.099 25.1936V22.9747C109.099 22.4509 109.222 22.0476 109.471 21.7656C109.719 21.4829 110.132 21.2411 110.711 20.9585L113.525 19.8295V17.4097C113.525 17.1274 113.483 16.966 113.401 16.8856C113.319 16.8047 113.194 16.7238 112.988 16.7238C112.781 16.7238 112.657 16.8047 112.573 16.8856C112.491 17.0061 112.45 17.1679 112.45 17.4097V19.3855H109.099V17.4501C109.099 16.4017 109.346 15.7161 109.884 15.3935C110.381 15.0708 111.415 14.9093 112.988 14.9093C114.56 14.9093 115.635 15.0708 116.132 15.4339C116.628 15.7561 116.877 16.4421 116.877 17.4501ZM126.186 17.9747V20.3134H123.001V17.4905C123.001 17.2487 122.959 17.087 122.877 17.0061C122.794 16.9256 122.669 16.8856 122.463 16.8856C122.256 16.8856 122.132 16.9256 122.048 17.0061C121.966 17.087 121.924 17.2487 121.924 17.4905V28.0569H118.614V14.9902H121.924V15.5544C122.215 15.353 122.505 15.1916 122.835 15.0708C123.166 14.9494 123.455 14.9093 123.786 14.9093C124.655 14.9093 125.277 15.1112 125.607 15.5544C125.98 15.958 126.186 16.7646 126.186 17.9747ZM127.469 10.6747H130.614V19.7491H130.78L132.104 14.9902H135.248L133.469 20.7167L135.661 28.0569H132.228L130.78 21.8857H130.614V28.0569H127.469V10.6747Z" fill="#006946"/>
</svg>
