<svg width="234" height="63" viewBox="0 0 234 63" fill="none" xmlns="http://www.w3.org/2000/svg">
<path fill-rule="evenodd" clip-rule="evenodd" d="M0 39.8468H46.2283V46.3535H0V39.8468ZM0 8.41431e-05H46.2283V37.5282H35.8061V22.0873C35.8061 15.1689 30.0949 9.50992 23.1139 9.50992C16.134 9.50992 10.4217 15.1689 10.4217 22.0873V37.5282H0V8.41431e-05Z" fill="white"/>
<path fill-rule="evenodd" clip-rule="evenodd" d="M228.683 22.2379V18.2724H230.761C231.241 18.2724 231.579 18.3851 231.773 18.6119C231.968 18.8374 232.067 19.1003 232.067 19.4005C232.067 19.6605 232.014 19.8637 231.907 20.0117C231.802 20.1598 231.682 20.2657 231.555 20.3301C231.53 20.3445 231.508 20.3554 231.483 20.3649C231.46 20.373 231.438 20.3817 231.418 20.388V20.4042C231.627 20.4619 231.768 20.5591 231.84 20.6963C231.914 20.8335 231.956 20.9788 231.972 21.1314C231.975 21.1712 231.978 21.2102 231.978 21.2491C231.98 21.289 231.981 21.3273 231.981 21.3673C231.985 21.6058 231.994 21.7788 232.006 21.8875C232.018 21.9961 232.049 22.0917 232.099 22.1741C232.102 22.1841 232.107 22.1958 232.114 22.2053C232.123 22.2162 232.128 22.2276 232.136 22.2379H232.083H231.135C231.078 22.1564 231.039 22.06 231.02 21.9499C231.001 21.8385 230.987 21.653 230.98 21.3936C230.98 21.3754 230.979 21.3564 230.978 21.3346C230.976 21.3129 230.975 21.2939 230.975 21.2763C230.964 21.1518 230.921 21.0358 230.844 20.9307C230.768 20.8262 230.597 20.7737 230.335 20.7737H229.668V22.2379H229.615H228.683ZM229.668 19.042V20.0525H230.467C230.473 20.0525 230.476 20.0525 230.476 20.0525C230.478 20.0525 230.48 20.0525 230.485 20.0525C230.631 20.049 230.765 20.0131 230.885 19.9452C231.01 19.8773 231.07 19.7474 231.07 19.5553C231.07 19.3484 231.009 19.2109 230.885 19.143C230.765 19.0759 230.614 19.042 230.436 19.042H229.668ZM230.331 16.576H230.335C231.345 16.5781 232.261 16.9929 232.926 17.6585C233.585 18.3213 233.996 19.2367 234 20.2446V20.2549V20.2595C233.999 21.2714 233.585 22.1917 232.92 22.8564C232.259 23.5182 231.346 23.9308 230.341 23.9343H230.331H230.326C229.319 23.9324 228.4 23.5182 227.736 22.8524C227.078 22.189 226.664 21.2727 226.663 20.2657V20.2549V20.2508C226.663 19.2394 227.078 18.3194 227.742 17.6539C228.401 16.9915 229.317 16.5787 230.319 16.576H230.331ZM230.335 17.2945H230.319C229.515 17.2966 228.776 17.6302 228.247 18.1618C227.712 18.697 227.38 19.4378 227.379 20.2508V20.2549V20.2657C227.382 21.0739 227.712 21.8127 228.243 22.3452C228.776 22.8803 229.515 23.2145 230.326 23.215H230.331H230.341C231.148 23.2139 231.886 22.8804 232.416 22.3484C232.95 21.8141 233.282 21.0731 233.283 20.2595V20.2549V20.2446C233.28 19.4359 232.95 18.6983 232.419 18.1645C231.887 17.6302 231.147 17.2952 230.335 17.2945Z" fill="white"/>
<path fill-rule="evenodd" clip-rule="evenodd" d="M53.7124 38.1309H59.3144V42.2765C59.3144 42.6905 59.3836 42.9671 59.5217 43.1056C59.6601 43.3126 59.8674 43.3818 60.144 43.3818C60.49 43.3818 60.6978 43.3126 60.8356 43.1749C60.9741 43.0368 61.0431 42.7606 61.0431 42.2765V38.3382C61.0431 37.8552 60.9741 37.4409 60.6978 37.2326C60.4212 37.0267 60.0058 36.7496 59.3144 36.4728L56.6866 35.5055C55.5799 35.0227 54.8191 34.6084 54.335 34.0543C53.9196 33.5721 53.7124 32.6729 53.7124 31.4302V28.5276C53.7124 26.5935 54.1277 25.3499 54.9575 24.7286C55.7874 24.1066 57.6543 23.83 60.49 23.83C63.0485 23.83 64.7084 24.1066 65.5388 24.6594C66.299 25.2806 66.6447 26.6627 66.6447 28.8732V31.4981H61.0431V28.0441C61.0431 27.6298 60.9741 27.3533 60.8356 27.2156C60.6978 27.0083 60.49 26.9385 60.144 26.9385C59.8674 26.9385 59.6599 27.0083 59.5217 27.1463C59.3836 27.3533 59.3144 27.6298 59.3144 28.0441V31.0159C59.3144 31.8444 59.9367 32.4652 61.1125 32.9495C61.2507 33.0193 61.3886 33.0878 61.527 33.0878L64.2939 34.2621C65.1925 34.6084 65.8151 35.0227 66.1611 35.5055C66.5071 35.9898 66.6447 36.8188 66.6447 37.9231V41.448C66.6447 43.6576 66.299 45.109 65.4689 45.6613C64.7084 46.2138 62.9103 46.4917 60.0752 46.4917C57.447 46.4917 55.718 46.2138 54.8882 45.6613C54.1277 45.0403 53.7124 43.6576 53.7124 41.448V38.1309ZM69.6878 16.5757H75.221V23.9685H77.4334V27.077H75.221V42.2765C75.221 42.6905 75.359 42.9671 75.5663 43.1056C75.773 43.2441 76.1885 43.3126 76.7419 43.3126H77.4334V46.4216H75.1509C73.0071 46.4216 71.5549 46.1453 70.794 45.593C70.0332 45.109 69.6878 43.7961 69.6878 41.8623V27.077H68.1661V23.9685H69.6878V16.5757ZM86.4925 36.0585L85.525 36.4728C85.2483 36.5418 85.0409 36.7496 84.9022 36.8882C84.7642 37.0946 84.6948 37.3024 84.6948 37.5789V37.8552V42.2073C84.6948 42.6226 84.7635 42.9671 84.9022 43.1056C85.0409 43.3126 85.317 43.3818 85.663 43.3818C85.9398 43.3818 86.1471 43.3126 86.2851 43.1749C86.4232 42.9671 86.4925 42.6905 86.4925 42.2073V36.0585ZM92.0943 28.1826V46.3531H86.4925V45.4545C86.0084 45.7995 85.4557 46.0755 84.9022 46.2138C84.2801 46.4216 83.6573 46.4917 83.0352 46.4917C81.5829 46.4917 80.6147 46.1453 79.9919 45.4545C79.3698 44.7645 79.093 43.4512 79.093 41.448V37.6469C79.093 36.7496 79.3004 36.0585 79.7158 35.5756C80.1306 35.0912 80.8221 34.6769 81.7903 34.1929L86.4925 32.2587V28.1134C86.4925 27.6298 86.4232 27.3533 86.2851 27.2156C86.1471 27.077 85.8704 26.9385 85.5944 26.9385C85.2483 26.9385 85.0409 27.077 84.9022 27.2156C84.7642 27.422 84.6948 27.6991 84.6948 28.1134V31.4981H79.093V28.1826C79.093 26.3865 79.5078 25.2122 80.338 24.6594C81.2368 24.1066 82.9658 23.83 85.5944 23.83C88.2222 23.83 90.0192 24.1066 90.8494 24.7286C91.6789 25.2806 92.0943 26.4558 92.0943 28.1826ZM107.862 29.0813V46.3531H102.33V28.2519C102.33 27.8376 102.26 27.5606 102.122 27.422C101.984 27.284 101.707 27.2156 101.431 27.2156C101.085 27.2156 100.877 27.284 100.739 27.422C100.601 27.5606 100.532 27.8376 100.532 28.2519V46.3531H94.9295V23.9685H100.532V24.9351C101.016 24.5901 101.5 24.3135 102.053 24.1066C102.606 23.8987 103.16 23.83 103.713 23.83C105.234 23.83 106.341 24.1758 106.963 24.8663C107.585 25.6264 107.862 27.0083 107.862 29.0813ZM117.962 28.3212C117.962 27.8376 117.962 27.5606 117.824 27.422C117.686 27.284 117.409 27.2156 117.133 27.2156C116.787 27.2156 116.579 27.284 116.441 27.4918C116.302 27.6298 116.233 27.9061 116.233 28.3212V42.0692C116.233 42.4148 116.302 42.7606 116.441 42.8991C116.51 43.0368 116.717 43.1056 117.063 43.1056C117.409 43.1056 117.616 43.0368 117.754 42.829C117.892 42.6905 117.962 42.4148 117.962 42.0692V28.3212ZM117.962 16.5757H123.563V46.3531H117.962V45.4545C117.547 45.7311 117.063 46.0073 116.51 46.2138C115.957 46.3531 115.403 46.4917 114.781 46.4917C113.26 46.4917 112.222 46.0755 111.6 45.3855C110.978 44.6947 110.631 43.3126 110.631 41.2399V29.0813C110.631 27.0083 110.978 25.6264 111.6 24.8663C112.222 24.1758 113.329 23.83 114.85 23.83C115.403 23.83 115.957 23.8987 116.51 24.1066C117.063 24.3135 117.547 24.5901 117.962 24.9351V16.5757ZM133.66 36.0585L132.762 36.4728C132.485 36.5418 132.279 36.7496 132.138 36.8882C132 37.0946 131.932 37.3024 131.932 37.5789V37.8552V42.2073C131.932 42.6226 132 42.9671 132.138 43.1056C132.279 43.3126 132.485 43.3818 132.831 43.3818C133.177 43.3818 133.385 43.3126 133.522 43.1749C133.592 42.9671 133.66 42.6905 133.66 42.2073V36.0585ZM139.331 28.1826V46.3531H133.66V45.4545C133.177 45.7995 132.693 46.0755 132.071 46.2138C131.517 46.4216 130.894 46.4917 130.272 46.4917C128.818 46.4917 127.782 46.1453 127.23 45.4545C126.608 44.7645 126.33 43.4512 126.33 41.448V37.6469C126.33 36.7496 126.537 36.0585 126.883 35.5756C127.297 35.0912 127.99 34.6769 129.027 34.1929L133.66 32.2587V28.1134C133.66 27.6298 133.592 27.3533 133.453 27.2156C133.315 27.077 133.107 26.9385 132.762 26.9385C132.485 26.9385 132.279 27.077 132.138 27.2156C132 27.422 131.932 27.6991 131.932 28.1134V31.4981H126.33V28.1826C126.33 26.3865 126.745 25.2122 127.575 24.6594C128.404 24.1066 130.133 23.83 132.762 23.83C135.459 23.83 137.187 24.1066 138.018 24.7286C138.916 25.2806 139.331 26.4558 139.331 28.1826ZM154.822 29.0813V33.0878H149.497V28.2519C149.497 27.8376 149.429 27.5606 149.289 27.422C149.153 27.284 148.945 27.2156 148.597 27.2156C148.322 27.2156 148.115 27.284 147.976 27.422C147.838 27.5606 147.77 27.8376 147.77 28.2519V46.3531H142.168V23.9685H147.77V24.9351C148.184 24.5901 148.667 24.3135 149.221 24.1066C149.774 23.8987 150.328 23.83 150.81 23.83C152.264 23.83 153.3 24.1758 153.924 24.9351C154.545 25.6264 154.822 27.0083 154.822 29.0813ZM157.244 12.3958H162.775V16.5757H210.632V19.6847H162.775V42.2765C162.775 42.6905 162.913 42.9671 163.119 43.1056C163.328 43.2441 163.743 43.3126 164.298 43.3126H164.989V46.4216H162.707C160.564 46.4216 159.108 46.1453 158.348 45.593C157.589 45.109 157.244 43.7961 157.244 41.8623V19.6847H126.616V16.5757H157.244V12.3958ZM179.927 29.0813V41.2399C179.927 43.2441 179.649 44.626 179.028 45.3855C178.406 46.1453 177.367 46.4917 175.916 46.4917C175.293 46.4917 174.672 46.4216 174.118 46.2138C173.565 46.0073 173.08 45.7995 172.596 45.3855V51.0535H166.995V23.9685H172.596V24.9351C173.08 24.5901 173.565 24.3135 174.118 24.1066C174.672 23.8987 175.224 23.83 175.777 23.83C177.3 23.83 178.337 24.1758 178.957 24.8663C179.649 25.6264 179.927 27.0083 179.927 29.0813ZM174.324 28.3212C174.324 28.1826 174.324 28.1134 174.324 28.0441C174.324 27.9061 174.324 27.8376 174.324 27.8376C174.324 27.6991 174.256 27.5606 174.048 27.422C173.91 27.284 173.772 27.2156 173.495 27.2156C173.149 27.2156 172.94 27.284 172.803 27.4918C172.665 27.6298 172.596 27.9061 172.596 28.3212V42.0005C172.596 42.4148 172.665 42.6905 172.803 42.8991C172.94 43.0368 173.149 43.1056 173.495 43.1056C173.772 43.1056 173.98 43.0368 174.186 42.829C174.256 42.6905 174.324 42.4148 174.324 42.0005V28.3212ZM189.747 36.0585L188.776 36.4728C188.502 36.5418 188.294 36.7496 188.155 36.8882C188.018 37.0946 187.949 37.3024 187.949 37.5789V37.8552V42.2073C187.949 42.6226 188.018 42.9671 188.155 43.1056C188.294 43.3126 188.57 43.3818 188.918 43.3818C189.193 43.3818 189.401 43.3126 189.539 43.1749C189.676 42.9671 189.747 42.6905 189.747 42.2073V36.0585ZM195.348 28.1826V46.3531H189.747V45.4545C189.262 45.7995 188.709 46.0755 188.155 46.2138C187.533 46.4216 186.981 46.4917 186.289 46.4917C184.905 46.4917 183.867 46.1453 183.247 45.4545C182.692 44.7645 182.348 43.4512 182.348 41.448V37.6469C182.348 36.7496 182.554 36.0585 182.969 35.5756C183.384 35.0912 184.075 34.6769 185.042 34.1929L189.747 32.2587V28.1134C189.747 27.6298 189.676 27.3533 189.539 27.2156C189.401 27.077 189.193 26.9385 188.849 26.9385C188.502 26.9385 188.294 27.077 188.155 27.2156C188.018 27.422 187.949 27.6991 187.949 28.1134V31.4981H182.348V28.1826C182.348 26.3865 182.761 25.2122 183.661 24.6594C184.491 24.1066 186.219 23.83 188.849 23.83C191.475 23.83 193.273 24.1066 194.103 24.7286C194.933 25.2806 195.348 26.4558 195.348 28.1826ZM210.908 29.0813V33.0878H205.585V28.2519C205.585 27.8376 205.514 27.5606 205.377 27.422C205.238 27.284 205.029 27.2156 204.685 27.2156C204.34 27.2156 204.131 27.284 203.992 27.422C203.855 27.5606 203.784 27.8376 203.784 28.2519V46.3531H198.252V23.9685H203.784V24.9351C204.27 24.5901 204.754 24.3135 205.306 24.1066C205.861 23.8987 206.343 23.83 206.897 23.83C208.349 23.83 209.388 24.1758 209.939 24.9351C210.563 25.6264 210.908 27.0083 210.908 29.0813ZM213.052 16.5757H218.309V32.121H218.586L220.799 23.9685H226.054L223.08 33.7786L226.745 46.3531H221.006L218.586 35.7812H218.309V46.3531H213.052V16.5757Z" fill="white"/>
<path d="M3.96954 62.803V60.877C3.96954 60.5415 4.0351 59.9656 4.16622 59.1493C4.29653 58.333 4.36779 57.8712 4.38052 57.7653H4.36779L2.45321 62.803H0.293457V54.5259H2.41555V56.5768C2.41555 56.8354 2.39957 57.097 2.36814 57.3605C2.33672 57.624 2.28524 58.0171 2.21318 58.5408C2.14057 59.0616 2.09669 59.4576 2.07935 59.7239H2.09208L3.96954 54.5259H6.09163V62.803H3.96954Z" fill="white"/>
<path d="M9.61455 59.3096V62.803H7.38867V54.5259H9.61455V57.6498H11.068V54.5259H13.2945V62.803H11.068V59.3096H9.61455Z" fill="white"/>
<path d="M18.1536 60.8879L17.5478 59.9308L16.5338 62.803H14.1792L16.2358 58.1918L14.1792 54.5259H16.5836L18.1536 57.8345V54.5259H20.2757V57.8345L21.8419 54.5259H24.2595L22.2033 58.1809L24.2595 62.803H21.9088L20.8915 59.9208L20.2757 60.9001V62.803H18.1536V60.8879Z" fill="white"/>
<path d="M24.9663 62.803V54.5259H30.1367V56.0927H27.1918V57.6946H29.9195V59.2621H27.1918V61.2356H30.1367V62.803H24.9663Z" fill="white"/>
<path d="M33.4552 59.3096V62.803H31.229V54.5259H33.4552V57.6498H34.9081V54.5259H37.1345V62.803H34.9081V59.3096H33.4552Z" fill="white"/>
<path d="M38.519 62.803V54.5259H43.6895V56.0927H40.7446V57.6946H43.4727V59.2621H40.7446V61.2356H43.6895V62.803H38.519Z" fill="white"/>
<path d="M47.0073 58.0885H47.4063C48.1097 58.0885 48.461 57.7346 48.461 57.0264C48.461 56.6447 48.3681 56.3793 48.1839 56.2324C47.9981 56.0843 47.7265 56.0104 47.3687 56.0104H47.0073V58.0885ZM44.7817 62.803V54.5259H48.0105C48.5033 54.5259 48.9482 54.5952 49.3456 54.7323C49.7435 54.8722 50.0703 55.1289 50.3272 55.5046C50.5834 55.88 50.7118 56.3948 50.7118 57.0495C50.7118 57.6851 50.5847 58.1918 50.3309 58.5694C50.0765 58.9469 49.749 59.2083 49.348 59.3552C48.9471 59.5011 48.5022 59.5731 48.0124 59.5731H47.0073V62.803H44.7817Z" fill="white"/>
<path d="M53.9399 59.3096V62.803H51.7144V54.5259H53.9399V57.6498H55.3934V54.5259H57.6192V62.803H55.3934V59.3096H53.9399Z" fill="white"/>
<path d="M61.8595 55.8543C61.6457 55.8543 61.4642 55.9141 61.3139 56.0323C61.1632 56.1518 61.0882 56.3229 61.0882 56.5449V60.7399C61.0882 60.9708 61.1648 61.1515 61.3182 61.281C61.4721 61.4114 61.6522 61.4774 61.8595 61.4774C62.0616 61.4774 62.2404 61.4114 62.3956 61.2797C62.5519 61.1487 62.6294 60.9686 62.6294 60.7399V56.5449C62.6294 56.3243 62.553 56.1545 62.3994 56.0336C62.2452 55.9141 62.0654 55.8543 61.8595 55.8543ZM58.8623 56.6693C58.8623 56.221 58.9696 55.8217 59.1842 55.4727C59.3987 55.1223 59.7319 54.8465 60.1843 54.6442C60.6368 54.4431 61.1992 54.3418 61.8711 54.3418C62.5432 54.3418 63.1035 54.4445 63.5506 54.6482C63.9975 54.8533 64.3267 55.1317 64.5383 55.4849C64.7496 55.8367 64.855 56.2365 64.855 56.6815V60.3936C64.855 61.2384 64.6114 61.8814 64.1235 62.3242C63.6359 62.7669 62.8811 62.9878 61.8595 62.9878C59.8609 62.9878 58.8623 62.124 58.8623 60.3936V56.6693Z" fill="white"/>
<path d="M66.0513 62.803V54.5259H71.2219V56.0927H68.2774V57.6946H71.0055V59.2621H68.2774V61.2356H71.2219V62.803H66.0513Z" fill="white"/>
<path d="M78.5388 55.8543C78.3259 55.8543 78.1442 55.9141 77.9944 56.0323C77.8432 56.1518 77.7683 56.3229 77.7683 56.5449V60.7399C77.7683 60.9708 77.8453 61.1515 77.9979 61.281C78.1518 61.4114 78.3321 61.4774 78.5388 61.4774C78.7413 61.4774 78.921 61.4114 79.0756 61.2797C79.2317 61.1487 79.31 60.9686 79.31 60.7399V56.5449C79.31 56.3243 79.2324 56.1545 79.0791 56.0336C78.9258 55.9141 78.7455 55.8543 78.5388 55.8543ZM75.542 56.6693C75.542 56.221 75.6502 55.8217 75.8645 55.4727C76.0788 55.1223 76.4117 54.8465 76.8646 54.6442C77.3168 54.4431 77.8786 54.3418 78.5506 54.3418C79.2233 54.3418 79.7837 54.4445 80.2304 54.6482C80.677 54.8533 81.0065 55.1317 81.218 55.4849C81.4295 55.8367 81.5356 56.2365 81.5356 56.6815V60.3936C81.5356 61.2384 81.2908 61.8814 80.8033 62.3242C80.3157 62.7669 79.5611 62.9878 78.5388 62.9878C76.5407 62.9878 75.542 62.124 75.542 60.3936V56.6693Z" fill="white"/>
<path d="M84.9572 61.313H85.3185C85.6716 61.313 85.942 61.2396 86.13 61.0943C86.3173 60.9463 86.4102 60.6806 86.4102 60.2984C86.4102 59.5921 86.0592 59.2403 85.3553 59.2403H84.9572V61.313ZM87.7605 54.5259V56.0104H84.9572V57.7503H85.9615C86.7403 57.7503 87.3846 57.9391 87.8951 58.3126C88.4062 58.6889 88.6614 59.3435 88.6614 60.2767C88.6614 60.9354 88.5331 61.4529 88.2765 61.8264C88.0206 62.2013 87.6926 62.458 87.2959 62.5952C86.8978 62.7337 86.4532 62.803 85.9615 62.803H82.7344V54.5259H87.7605Z" fill="white"/>
<path d="M95.955 54.5258L93.9735 60.9C93.8043 61.446 93.6198 61.8603 93.4208 62.1428C93.2217 62.4253 92.9672 62.6209 92.6565 62.7309C92.3458 62.8409 91.9234 62.8953 91.39 62.8953C90.8352 62.8953 90.4628 62.8233 90.272 62.6766V61.2686C90.3809 61.3075 90.5647 61.3279 90.8248 61.3279C91.105 61.3279 91.2812 61.2355 91.3519 61.0494L89.2671 54.5258H91.5939L92.4318 58.1333C92.4574 58.2501 92.4789 58.4891 92.4963 58.8531C92.5143 59.215 92.5316 59.5431 92.5483 59.8392H92.5732C92.6447 59.0026 92.7161 58.4334 92.7896 58.1333L93.6531 54.5258H95.955Z" fill="white"/>
<path d="M100.261 59.5297H102.487V60.3012C102.487 61.237 102.244 61.9216 101.758 62.3535C101.272 62.784 100.511 63 99.4746 63C98.7922 63 98.2283 62.9063 97.7831 62.7175C97.3385 62.5314 97.007 62.2353 96.7906 61.836C96.5742 61.4353 96.4653 60.9192 96.4653 60.289V56.6815C96.4653 56.2365 96.5721 55.8366 96.7858 55.4835C96.9987 55.129 97.333 54.8519 97.7865 54.6468C98.2394 54.4445 98.8026 54.3418 99.4746 54.3418C100.145 54.3418 100.706 54.4458 101.156 54.6523C101.608 54.8587 101.942 55.1399 102.16 55.4963C102.378 55.8543 102.487 56.2528 102.487 56.6942V57.4429H100.261V56.5117C100.261 56.3093 100.176 56.1518 100.007 56.035C99.8374 55.9222 99.6522 55.8638 99.4511 55.8638C99.2416 55.8638 99.0627 55.9168 98.9142 56.0213C98.7658 56.1246 98.6909 56.2767 98.6909 56.475V60.6027C98.6909 61.1922 98.9448 61.4883 99.4511 61.4883C99.9913 61.4883 100.261 61.2003 100.261 60.6244V59.5297Z" fill="white"/>
<path d="M104.983 62.803V56.1856H103.235V54.5259H108.659V56.1856H107.027V62.803H104.983Z" fill="white"/>
<path d="M111.758 58.0885H112.157C112.86 58.0885 113.212 57.7346 113.212 57.0264C113.212 56.6447 113.12 56.3793 112.934 56.2324C112.749 56.0843 112.478 56.0104 112.12 56.0104H111.758V58.0885ZM109.533 62.803V54.5259H112.761C113.254 54.5259 113.7 54.5952 114.097 54.7323C114.494 54.8722 114.822 55.1289 115.078 55.5046C115.334 55.88 115.463 56.3948 115.463 57.0495C115.463 57.6851 115.336 58.1918 115.082 58.5694C114.827 58.9469 114.499 59.2083 114.1 59.3552C113.698 59.5011 113.253 59.5731 112.763 59.5731H111.758V62.803H109.533Z" fill="white"/>
<path d="M119.319 55.8543C119.107 55.8543 118.925 55.9141 118.775 56.0323C118.624 56.1518 118.549 56.3229 118.549 56.5449V60.7399C118.549 60.9708 118.626 61.1515 118.78 61.281C118.932 61.4114 119.113 61.4774 119.319 61.4774C119.523 61.4774 119.702 61.4114 119.857 61.2797C120.013 61.1487 120.091 60.9686 120.091 60.7399V56.5449C120.091 56.3243 120.013 56.1545 119.86 56.0336C119.706 55.9141 119.527 55.8543 119.319 55.8543ZM116.323 56.6693C116.323 56.221 116.431 55.8217 116.646 55.4727C116.86 55.1223 117.194 54.8465 117.646 54.6442C118.097 54.4431 118.661 54.3418 119.332 54.3418C120.005 54.3418 120.564 54.4445 121.011 54.6482C121.458 54.8533 121.788 55.1317 121.999 55.4849C122.211 55.8367 122.316 56.2365 122.316 56.6815V60.3936C122.316 61.2384 122.072 61.8814 121.584 62.3242C121.097 62.7669 120.342 62.9878 119.319 62.9878C117.322 62.9878 116.323 62.124 116.323 60.3936V56.6693Z" fill="white"/>
<path d="M126.406 54.041C126.758 54.041 127.083 53.9853 127.38 53.8734C127.678 53.7612 127.918 53.5933 128.101 53.3687C128.284 53.1432 128.376 52.8715 128.376 52.5545H127.553C127.477 52.7928 127.354 52.9503 127.182 53.0278C127.01 53.1052 126.77 53.1432 126.46 53.1432C125.745 53.1432 125.363 52.9476 125.315 52.5545H124.466C124.525 53.5466 125.172 54.041 126.406 54.041ZM127.192 62.803V60.877C127.192 60.5415 127.257 59.9656 127.388 59.1493C127.519 58.333 127.592 57.8712 127.603 57.7653H127.592L125.676 62.803H123.516V54.5259H125.638V56.5768C125.638 56.8354 125.622 57.097 125.591 57.3605C125.559 57.624 125.507 58.0171 125.435 58.5408C125.363 59.0616 125.319 59.4576 125.302 59.7239H125.315L127.192 54.5259H129.314V62.803H127.192Z" fill="white"/>
<path d="M134.198 59.5297H136.425V60.3012C136.425 61.237 136.181 61.9216 135.696 62.3535C135.21 62.784 134.448 63 133.412 63C132.729 63 132.166 62.9063 131.72 62.7175C131.276 62.5314 130.944 62.2353 130.728 61.836C130.512 61.4353 130.402 60.9192 130.402 60.289V56.6815C130.402 56.2365 130.511 55.8366 130.723 55.4835C130.937 55.129 131.27 54.8519 131.723 54.6468C132.177 54.4445 132.741 54.3418 133.412 54.3418C134.083 54.3418 134.644 54.4458 135.093 54.6523C135.546 54.8587 135.88 55.1399 136.098 55.4963C136.315 55.8543 136.425 56.2528 136.425 56.6942V57.4429H134.198V56.5117C134.198 56.3093 134.113 56.1518 133.945 56.035C133.775 55.9222 133.589 55.8638 133.388 55.8638C133.179 55.8638 132.999 55.9168 132.851 56.0213C132.702 56.1246 132.627 56.2767 132.627 56.475V60.6027C132.627 61.1922 132.881 61.4883 133.388 61.4883C133.928 61.4883 134.198 61.2003 134.198 60.6244V59.5297Z" fill="white"/>
<path d="M138.92 62.803V56.1856H137.172V54.5259H142.597V56.1856H140.964V62.803H138.92Z" fill="white"/>
<path d="M145.632 59.2164V61.3157H146.134C146.545 61.3157 146.827 61.2396 146.982 61.0848C147.136 60.93 147.214 60.661 147.214 60.278C147.214 59.9154 147.136 59.6483 146.982 59.4767C146.827 59.3042 146.561 59.2164 146.184 59.2164H145.632ZM145.632 56.0104V57.7305H146.289C146.599 57.7305 146.823 57.6553 146.958 57.5072C147.093 57.3564 147.161 57.1166 147.161 56.7846C147.161 56.2685 146.87 56.0104 146.289 56.0104H145.632ZM146.584 62.803H143.485V54.5259H147.032C147.418 54.5259 147.783 54.5979 148.129 54.7432C148.476 54.8899 148.759 55.1167 148.979 55.4304C149.198 55.7429 149.309 56.1327 149.309 56.5999C149.309 57.1092 149.175 57.5126 148.908 57.8128C148.641 58.113 148.354 58.2923 148.05 58.3534C148.505 58.5232 148.845 58.7614 149.067 59.0692C149.288 59.3761 149.399 59.8059 149.399 60.3595C149.399 61.1424 149.162 61.7449 148.689 62.1679C148.213 62.5911 147.512 62.803 146.584 62.803Z" fill="white"/>
<path d="M153.268 55.8543C153.056 55.8543 152.873 55.9141 152.723 56.0323C152.572 56.1518 152.498 56.3229 152.498 56.5449V60.7399C152.498 60.9708 152.574 61.1515 152.729 61.281C152.882 61.4114 153.062 61.4774 153.268 61.4774C153.47 61.4774 153.651 61.4114 153.805 61.2797C153.962 61.1487 154.04 60.9686 154.04 60.7399V56.5449C154.04 56.3243 153.963 56.1545 153.809 56.0336C153.656 55.9141 153.475 55.8543 153.268 55.8543ZM150.271 56.6693C150.271 56.221 150.379 55.8217 150.595 55.4727C150.808 55.1223 151.142 54.8465 151.594 54.6442C152.046 54.4431 152.61 54.3418 153.282 54.3418C153.954 54.3418 154.513 54.4445 154.961 54.6482C155.407 54.8533 155.737 55.1317 155.947 55.4849C156.16 55.8367 156.265 56.2365 156.265 56.6815V60.3936C156.265 61.2384 156.021 61.8814 155.533 62.3242C155.046 62.7669 154.29 62.9878 153.268 62.9878C151.27 62.9878 150.271 62.124 150.271 60.3936V56.6693Z" fill="white"/>
<path d="M162.145 62.803V56.1856H160.397V54.5259H165.822V56.1856H164.189V62.803H162.145Z" fill="white"/>
<path d="M166.695 62.803V54.5259H171.865V56.0927H168.92V57.6946H171.649V59.2621H168.92V61.2356H171.865V62.803H166.695Z" fill="white"/>
<path d="M175.183 58.0885H175.581C176.285 58.0885 176.638 57.7346 176.638 57.0264C176.638 56.6447 176.545 56.3793 176.359 56.2324C176.174 56.0843 175.902 56.0104 175.543 56.0104H175.183V58.0885ZM172.958 62.803V54.5259H176.187C176.679 54.5259 177.123 54.5952 177.521 54.7323C177.919 54.8722 178.247 55.1289 178.503 55.5046C178.761 55.88 178.888 56.3948 178.888 57.0495C178.888 57.6851 178.762 58.1918 178.506 58.5694C178.252 58.9469 177.925 59.2083 177.525 59.3552C177.123 59.5011 176.677 59.5731 176.188 59.5731H175.183V62.803H172.958Z" fill="white"/>
<path d="M182.115 58.0885H182.514C183.218 58.0885 183.57 57.7346 183.57 57.0264C183.57 56.6447 183.476 56.3793 183.291 56.2324C183.106 56.0843 182.834 56.0104 182.476 56.0104H182.115V58.0885ZM179.89 62.803V54.5259H183.119C183.611 54.5259 184.056 54.5952 184.454 54.7323C184.851 54.8722 185.178 55.1289 185.435 55.5046C185.691 55.88 185.821 56.3948 185.821 57.0495C185.821 57.6851 185.694 58.1918 185.439 58.5694C185.185 58.9469 184.857 59.2083 184.456 59.3552C184.056 59.5011 183.61 59.5731 183.121 59.5731H182.115V62.803H179.89Z" fill="white"/>
<path d="M190.502 62.803V60.877C190.502 60.5415 190.567 59.9656 190.698 59.1493C190.828 58.333 190.9 57.8712 190.913 57.7653H190.9L188.984 62.803H186.825V54.5259H188.948V56.5768C188.948 56.8354 188.932 57.097 188.9 57.3605C188.868 57.624 188.816 58.0171 188.745 58.5408C188.673 59.0616 188.628 59.4576 188.612 59.7239H188.624L190.502 54.5259H192.623V62.803H190.502Z" fill="white"/>
<path d="M195.235 62.803V56.1856H193.487V54.5259H198.912V56.1856H197.279V62.803H195.235Z" fill="white"/>
<path d="M202.64 55.8543C202.425 55.8543 202.244 55.9141 202.094 56.0323C201.945 56.1518 201.868 56.3229 201.868 56.5449V60.7399C201.868 60.9708 201.945 61.1515 202.099 61.281C202.252 61.4114 202.432 61.4774 202.64 61.4774C202.841 61.4774 203.021 61.4114 203.176 61.2797C203.332 61.1487 203.41 60.9686 203.41 60.7399V56.5449C203.41 56.3243 203.333 56.1545 203.18 56.0336C203.026 55.9141 202.846 55.8543 202.64 55.8543ZM199.642 56.6693C199.642 56.221 199.75 55.8217 199.965 55.4727C200.18 55.1223 200.512 54.8465 200.965 54.6442C201.418 54.4431 201.979 54.3418 202.651 54.3418C203.324 54.3418 203.885 54.4445 204.331 54.6482C204.779 54.8533 205.107 55.1317 205.319 55.4849C205.53 55.8367 205.636 56.2365 205.636 56.6815V60.3936C205.636 61.2384 205.392 61.8814 204.904 62.3242C204.416 62.7669 203.661 62.9878 202.64 62.9878C200.641 62.9878 199.642 62.124 199.642 60.3936V56.6693Z" fill="white"/>
<path d="M209.059 58.0885H209.457C210.161 58.0885 210.512 57.7346 210.512 57.0264C210.512 56.6447 210.419 56.3793 210.234 56.2324C210.048 56.0843 209.778 56.0104 209.419 56.0104H209.059V58.0885ZM206.833 62.803V54.5259H210.061C210.554 54.5259 210.998 54.5952 211.397 54.7323C211.795 54.8722 212.121 55.1289 212.379 55.5046C212.635 55.88 212.762 56.3948 212.762 57.0495C212.762 57.6851 212.636 58.1918 212.381 58.5694C212.126 58.9469 211.8 59.2083 211.399 59.3552C210.998 59.5011 210.553 59.5731 210.062 59.5731H209.059V62.803H206.833Z" fill="white"/>
<path d="M217.443 62.803V60.877C217.443 60.5415 217.509 59.9656 217.641 59.1493C217.771 58.333 217.842 57.8712 217.855 57.7653H217.842L215.928 62.803H213.769V54.5259H215.89V56.5768C215.89 56.8354 215.875 57.097 215.844 57.3605C215.811 57.624 215.759 58.0171 215.688 58.5408C215.616 59.0616 215.57 59.4576 215.554 59.7239H215.566L217.443 54.5259H219.566V62.803H217.443Z" fill="white"/>
<path d="M224.541 62.803V60.877C224.541 60.5415 224.607 59.9656 224.738 59.1493C224.869 58.333 224.94 57.8712 224.953 57.7653H224.94L223.025 62.803H220.864V54.5259H222.988V56.5768C222.988 56.8354 222.972 57.097 222.941 57.3605C222.908 57.624 222.856 58.0171 222.785 58.5408C222.713 59.0616 222.668 59.4576 222.651 59.7239H222.664L224.541 54.5259H226.663V62.803H224.541Z" fill="white"/>
</svg>
